SplineFontDB: 3.2
FontName: AtkinsonHyperPro-Regular
FullName: Atkinson Hyperlegible Pro Regular
FamilyName: Atkinson Hyperlegible Pro
Weight: Regular
Copyright: Copyright 2020 Braille Institute of America, Inc.
Version: 1.000
ItalicAngle: 0
UnderlinePosition: -106
UnderlineWidth: 57
Ascent: 800
Descent: 200
InvalidEm: 0
sfntRevision: 0x00010000
LayerCount: 2
Layer: 0 1 "Back" 1
Layer: 1 1 "Fore" 0
XUID: [1021 466 782043844 18134]
StyleMap: 0x0040
FSType: 0
OS2Version: 4
OS2_WeightWidthSlopeOnly: 0
OS2_UseTypoMetrics: 1
CreationTime: 1615339189
ModificationTime: 1694327665
PfmFamily: 81
TTFWeight: 400
TTFWidth: 5
LineGap: 0
VLineGap: 0
Panose: 0 0 0 0 0 0 0 0 0 0
OS2TypoAscent: 950
OS2TypoAOffset: 0
OS2TypoDescent: -290
OS2TypoDOffset: 0
OS2TypoLinegap: 0
OS2WinAscent: 950
OS2WinAOffset: 0
OS2WinDescent: 290
OS2WinDOffset: 0
HheadAscent: 950
HheadAOffset: 0
HheadDescent: -290
HheadDOffset: 0
OS2SubXSize: 650
OS2SubYSize: 699
OS2SubXOff: 0
OS2SubYOff: 140
OS2SupXSize: 650
OS2SupYSize: 699
OS2SupXOff: 0
OS2SupYOff: 479
OS2StrikeYSize: 49
OS2StrikeYPos: 258
OS2CapHeight: 668
OS2XHeight: 496
OS2Vendor: 'NONE'
OS2CodePages: 20000003.00000000
OS2UnicodeRanges: 800000ef.0000204b.00000000.00000000
Lookup: 4 0 1 "'liga' Standard Ligatures lookup 0" { "'liga' Standard Ligatures lookup 0-1"  } ['liga' ('DFLT' <'dflt' > 'grek' <'dflt' > 'latn' <'MOL ' 'dflt' > ) ]
Lookup: 1 0 0 "'zero' Slashed Zero lookup 0" { "'zero' Slashed Zero lookup 0-1"  } ['zero' ('DFLT' <'dflt' > 'grek' <'dflt' > 'latn' <'MOL ' 'dflt' > ) ]
Lookup: 1 0 0 "'aalt' Access All Alternates lookup 0" { "'aalt' Access All Alternates lookup 0 subtable"  } ['aalt' ('DFLT' <'dflt' > 'grek' <'dflt' > 'latn' <'dflt' > ) ]
Lookup: 3 0 0 "'aalt' Access All Alternates lookup 1" { "'aalt' Access All Alternates lookup 1 subtable"  } ['aalt' ('DFLT' <'dflt' > 'grek' <'dflt' > 'latn' <'dflt' > ) ]

StartChar: .notdef
Encoding: 256 -1 0
Width: 523
GlyphClass: 1
Flags: W
HStem: 0 21<77 447> 680 20<76 447>
VStem: 48 21<49 650> 455 20<47 652>
LayerCount: 2
Fore
SplineSet
48 0 m 1,0,-1
 48 700 l 1,1,-1
 475 700 l 1,2,-1
 475 0 l 1,3,-1
 48 0 l 1,0,-1
261 371 m 1,4,-1
 447 680 l 1,5,-1
 76 680 l 1,6,-1
 261 371 l 1,4,-1
455 47 m 1,7,-1
 455 652 l 1,8,-1
 274 350 l 1,9,-1
 455 47 l 1,7,-1
69 49 m 1,10,-1
 249 350 l 1,11,-1
 69 650 l 1,12,-1
 69 49 l 1,10,-1
77 21 m 1,13,-1
 447 21 l 1,14,-1
 262 329 l 1,15,-1
 77 21 l 1,13,-1
EndSplineSet
Validated: 1
EndChar

StartChar: zero
Encoding: 48 48 5
Width: 644
GlyphClass: 1
Flags: W
HStem: -12 74<239.969 403.767> 606 74<239.757 404.031>
VStem: 58 91<178.169 483.765> 495 91<191.274 491.112>
LayerCount: 2
Fore
SplineSet
322 -12 m 256,0,1
 193 -12 193 -12 125.5 77.5 c 128,-1,2
 58 167 58 167 58 335 c 0,3,4
 58 502 58 502 125.5 591 c 128,-1,5
 193 680 193 680 322 680 c 256,6,7
 451 680 451 680 518.5 591 c 128,-1,8
 586 502 586 502 586 335 c 0,9,10
 586 167 586 167 518.5 77.5 c 128,-1,11
 451 -12 451 -12 322 -12 c 256,0,1
478 190 m 1,12,13
 495 250 495 250 495 335 c 0,14,15
 495 466 495 466 452.5 536 c 128,-1,16
 410 606 410 606 322 606 c 0,17,18
 257 606 257 606 215 566 c 1,19,-1
 478 190 l 1,12,13
322 62 m 0,20,21
 391 62 391 62 433 107 c 1,22,-1
 169 486 l 1,23,24
 159 455 159 455 154 417 c 128,-1,25
 149 379 149 379 149 335 c 0,26,27
 149 204 149 204 191.5 133 c 128,-1,28
 234 62 234 62 322 62 c 0,20,21
EndSplineSet
Validated: 1
Substitution2: "'zero' Slashed Zero lookup 0-1" zero.alt1
Substitution2: "'tnum' Tabular Numbers lookup 14 subtable" zero.tf
Substitution2: "'aalt' Access All Alternates lookup 0 subtable" zero.alt1
EndChar

StartChar: one
Encoding: 49 49 6
Width: 398
GlyphClass: 1
Flags: W
HStem: 0 21G<218 302> 504 67<40 178.157> 648 20G<239 302>
VStem: 218 84<0 504> 246 56<627.278 668>
LayerCount: 2
Fore
SplineSet
218 0 m 1,0,-1
 218 504 l 1,1,-1
 40 504 l 1,2,-1
 40 571 l 1,3,4
 88 571 88 571 129.5 578 c 128,-1,5
 171 585 171 585 201.5 606 c 128,-1,6
 232 627 232 627 246 668 c 1,7,-1
 302 668 l 1,8,-1
 302 0 l 1,9,-1
 218 0 l 1,0,-1
EndSplineSet
Validated: 1
Substitution2: "'tnum' Tabular Numbers lookup 14 subtable" one.tf
Substitution2: "'sups' Superscript lookup 9 subtable" uni00B9
AlternateSubs2: "'aalt' Access All Alternates lookup 1 subtable" uni00B9 one.tf
EndChar

StartChar: two
Encoding: 50 50 7
Width: 545
GlyphClass: 1
Flags: W
HStem: 0 77<145 513> 498 21G<71 147> 610 70<199.781 360.328>
VStem: 57 84<520 554.102> 406 89<409.826 565.402>
LayerCount: 2
Fore
SplineSet
32 0 m 1,0,-1
 32 75 l 1,1,2
 150 162 150 162 233.5 235 c 128,-1,3
 317 308 317 308 361.5 371.5 c 128,-1,4
 406 435 406 435 406 494 c 0,5,6
 406 546 406 546 373 578 c 128,-1,7
 340 610 340 610 281 610 c 0,8,9
 234 610 234 610 193.5 584.5 c 128,-1,10
 153 559 153 559 141 498 c 1,11,-1
 57 522 l 1,12,13
 75 595 75 595 135 637.5 c 128,-1,14
 195 680 195 680 283 680 c 0,15,16
 345 680 345 680 392.5 659.5 c 128,-1,17
 440 639 440 639 467.5 600 c 128,-1,18
 495 561 495 561 495 505 c 0,19,20
 495 447 495 447 467 391.5 c 128,-1,21
 439 336 439 336 390 283.5 c 128,-1,22
 341 231 341 231 278 179.5 c 128,-1,23
 215 128 215 128 145 77 c 1,24,-1
 513 77 l 1,25,-1
 513 0 l 1,26,-1
 32 0 l 1,0,-1
EndSplineSet
Validated: 1
Substitution2: "'tnum' Tabular Numbers lookup 14 subtable" two.tf
Substitution2: "'sups' Superscript lookup 9 subtable" uni00B2
AlternateSubs2: "'aalt' Access All Alternates lookup 1 subtable" uni00B2 two.tf
EndChar

StartChar: three
Encoding: 51 51 8
Width: 570
GlyphClass: 1
Flags: W
HStem: -12 70<185.288 361.101> 314 76<216 350.88> 498 21G<63.6667 137> 610 70<191.073 357.619>
VStem: 50 82<519.951 551.747> 405 88<436.237 567.259> 422 90<112.819 257.456>
LayerCount: 2
Fore
SplineSet
270 -12 m 0,0,1
 203 -12 203 -12 155.5 10 c 128,-1,2
 108 32 108 32 80 69 c 128,-1,3
 52 106 52 106 40 151 c 1,4,-1
 123 175 l 1,5,6
 134 123 134 123 170.5 90.5 c 128,-1,7
 207 58 207 58 271 58 c 0,8,9
 337 58 337 58 379.5 91.5 c 128,-1,10
 422 125 422 125 422 187 c 0,11,12
 422 225 422 225 406 249.5 c 128,-1,13
 390 274 390 274 365 287 c 128,-1,14
 340 300 340 300 311.5 306 c 128,-1,15
 283 312 283 312 257.5 313 c 128,-1,16
 232 314 232 314 216 314 c 1,17,-1
 216 390 l 1,18,19
 244 390 244 390 276.5 393 c 128,-1,20
 309 396 309 396 338.5 406.5 c 128,-1,21
 368 417 368 417 386.5 439.5 c 128,-1,22
 405 462 405 462 405 501 c 0,23,24
 405 555 405 555 366.5 582.5 c 128,-1,25
 328 610 328 610 275 610 c 0,26,27
 214 610 214 610 178 579 c 128,-1,28
 142 548 142 548 132 498 c 1,29,-1
 50 522 l 1,30,31
 68 593 68 593 126.5 636.5 c 128,-1,32
 185 680 185 680 277 680 c 0,33,34
 335 680 335 680 384 663.5 c 128,-1,35
 433 647 433 647 463 609.5 c 128,-1,36
 493 572 493 572 493 510 c 0,37,38
 493 459 493 459 465 418 c 128,-1,39
 437 377 437 377 384 355 c 1,40,41
 459 332 459 332 485.5 286.5 c 128,-1,42
 512 241 512 241 512 188 c 0,43,44
 512 121 512 121 478 76.5 c 128,-1,45
 444 32 444 32 389 10 c 128,-1,46
 334 -12 334 -12 270 -12 c 0,0,1
EndSplineSet
Validated: 1
Substitution2: "'tnum' Tabular Numbers lookup 14 subtable" three.tf
Substitution2: "'sups' Superscript lookup 9 subtable" uni00B3
AlternateSubs2: "'aalt' Access All Alternates lookup 1 subtable" uni00B3 three.tf
EndChar

StartChar: four
Encoding: 52 52 9
Width: 610
GlyphClass: 1
Flags: W
HStem: 0 21G<368 452> 165 79<127 368 452 574> 648 20G<351.387 452>
VStem: 368 84<0 165 244 553>
LayerCount: 2
Fore
SplineSet
368 0 m 1,0,-1
 368 165 l 1,1,-1
 36 165 l 1,2,-1
 36 244 l 1,3,-1
 367 668 l 1,4,-1
 452 668 l 1,5,-1
 452 244 l 1,6,-1
 574 244 l 1,7,-1
 574 165 l 1,8,-1
 452 165 l 1,9,-1
 452 0 l 1,10,-1
 368 0 l 1,0,-1
127 244 m 1,11,-1
 368 244 l 1,12,-1
 368 553 l 1,13,-1
 127 244 l 1,11,-1
EndSplineSet
Validated: 1
Substitution2: "'tnum' Tabular Numbers lookup 14 subtable" four.tf
Substitution2: "'sups' Superscript lookup 9 subtable" uni2074
AlternateSubs2: "'aalt' Access All Alternates lookup 1 subtable" four.tf uni2074
EndChar

StartChar: five
Encoding: 53 53 10
Width: 579
GlyphClass: 1
Flags: W
HStem: -12 70<194.477 360.063> 378 72<200.016 361.328> 587 81<179 494>
VStem: 431 88<130.176 308.978>
LayerCount: 2
Fore
SplineSet
282 -12 m 0,0,1
 215 -12 215 -12 168 10 c 128,-1,2
 121 32 121 32 93 69 c 128,-1,3
 65 106 65 106 52 151 c 1,4,-1
 134 175 l 1,5,6
 146 120 146 120 181.5 89 c 128,-1,7
 217 58 217 58 282 58 c 0,8,9
 322 58 322 58 356 77 c 128,-1,10
 390 96 390 96 410.5 132 c 128,-1,11
 431 168 431 168 431 219 c 0,12,13
 431 275 431 275 408.5 310 c 128,-1,14
 386 345 386 345 351.5 361.5 c 128,-1,15
 317 378 317 378 281 378 c 0,16,17
 229 378 229 378 196 353.5 c 128,-1,18
 163 329 163 329 152 304 c 1,19,-1
 70 328 l 1,20,-1
 111 668 l 1,21,-1
 494 668 l 1,22,-1
 494 587 l 1,23,-1
 179 587 l 1,24,-1
 156 400 l 1,25,26
 182 426 182 426 220.5 438 c 128,-1,27
 259 450 259 450 300 450 c 0,28,29
 359 450 359 450 408.5 423 c 128,-1,30
 458 396 458 396 488.5 345 c 128,-1,31
 519 294 519 294 519 220 c 0,32,33
 519 144 519 144 485.5 92 c 128,-1,34
 452 40 452 40 398 14 c 128,-1,35
 344 -12 344 -12 282 -12 c 0,0,1
EndSplineSet
Validated: 1
Substitution2: "'tnum' Tabular Numbers lookup 14 subtable" five.tf
Substitution2: "'aalt' Access All Alternates lookup 0 subtable" five.tf
EndChar

StartChar: six
Encoding: 54 54 11
Width: 594
GlyphClass: 1
Flags: W
HStem: -12 71<220.029 380.168> 371 74<220.535 381.03> 610 70<234.756 386.36>
VStem: 58 87<352 479.422> 446 90<127.166 302.577>
LayerCount: 2
Fore
SplineSet
301 -12 m 0,0,1
 176 -12 176 -12 117 72 c 128,-1,2
 58 156 58 156 58 310 c 0,3,4
 58 381 58 381 71.5 447 c 128,-1,5
 85 513 85 513 115.5 565.5 c 128,-1,6
 146 618 146 618 196 649 c 128,-1,7
 246 680 246 680 319 680 c 0,8,9
 393 680 393 680 439 649 c 128,-1,10
 485 618 485 618 507 573 c 1,11,-1
 422 548 l 1,12,13
 407 577 407 577 378 593.5 c 128,-1,14
 349 610 349 610 309 610 c 0,15,16
 231 610 231 610 189.5 539 c 128,-1,17
 148 468 148 468 145 352 c 1,18,19
 168 391 168 391 211 418 c 128,-1,20
 254 445 254 445 321 445 c 0,21,22
 383 445 383 445 431.5 416 c 128,-1,23
 480 387 480 387 508 336 c 128,-1,24
 536 285 536 285 536 218 c 0,25,26
 536 156 536 156 507 103.5 c 128,-1,27
 478 51 478 51 425.5 19.5 c 128,-1,28
 373 -12 373 -12 301 -12 c 0,0,1
301 59 m 0,29,30
 367 59 367 59 406.5 102.5 c 128,-1,31
 446 146 446 146 446 215 c 256,32,33
 446 284 446 284 406.5 327.5 c 128,-1,34
 367 371 367 371 301 371 c 0,35,36
 234 371 234 371 194.5 327.5 c 128,-1,37
 155 284 155 284 155 215 c 256,38,39
 155 146 155 146 194.5 102.5 c 128,-1,40
 234 59 234 59 301 59 c 0,29,30
EndSplineSet
Validated: 1
Substitution2: "'tnum' Tabular Numbers lookup 14 subtable" six.tf
Substitution2: "'aalt' Access All Alternates lookup 0 subtable" six.tf
EndChar

StartChar: seven
Encoding: 55 55 12
Width: 506
GlyphClass: 1
Flags: W
HStem: 0 21G<91 205.472> 587 81<13 381>
LayerCount: 2
Fore
SplineSet
91 0 m 1,0,-1
 381 587 l 1,1,-1
 13 587 l 1,2,-1
 13 668 l 1,3,-1
 474 668 l 1,4,-1
 474 587 l 1,5,-1
 196 0 l 1,6,-1
 91 0 l 1,0,-1
EndSplineSet
Validated: 1
Substitution2: "'tnum' Tabular Numbers lookup 14 subtable" seven.tf
Substitution2: "'aalt' Access All Alternates lookup 0 subtable" seven.tf
EndChar

StartChar: eight
Encoding: 56 56 13
Width: 611
GlyphClass: 1
Flags: W
HStem: -12 74<210.304 400.64> 317 74<241.125 369.303> 606 74<240.601 369.16>
VStem: 58 91<117.132 260.196> 124 74<433.675 563.728> 412 75<433.675 563.728> 462 91<117.132 260.196>
LayerCount: 2
Fore
SplineSet
305 -12 m 0,0,1
 236 -12 236 -12 180 11.5 c 128,-1,2
 124 35 124 35 91 79.5 c 128,-1,3
 58 124 58 124 58 188 c 0,4,5
 58 253 58 253 92 298.5 c 128,-1,6
 126 344 126 344 181 366 c 1,7,8
 155 391 155 391 139.5 425 c 128,-1,9
 124 459 124 459 124 499 c 0,10,11
 124 549 124 549 148.5 590 c 128,-1,12
 173 631 173 631 214 655.5 c 128,-1,13
 255 680 255 680 305 680 c 0,14,15
 356 680 356 680 397 655.5 c 128,-1,16
 438 631 438 631 462.5 590 c 128,-1,17
 487 549 487 549 487 499 c 0,18,19
 487 459 487 459 471.5 425 c 128,-1,20
 456 391 456 391 430 366 c 1,21,22
 486 344 486 344 519.5 298.5 c 128,-1,23
 553 253 553 253 553 188 c 0,24,25
 553 124 553 124 520 79.5 c 128,-1,26
 487 35 487 35 431 11.5 c 128,-1,27
 375 -12 375 -12 305 -12 c 0,0,1
305 391 m 256,28,29
 349 391 349 391 380.5 422.5 c 128,-1,30
 412 454 412 454 412 500 c 0,31,32
 412 544 412 544 380.5 575 c 128,-1,33
 349 606 349 606 305 606 c 256,34,35
 261 606 261 606 229.5 575 c 128,-1,36
 198 544 198 544 198 500 c 0,37,38
 198 454 198 454 229.5 422.5 c 128,-1,39
 261 391 261 391 305 391 c 256,28,29
305 62 m 0,40,41
 377 62 377 62 419.5 96 c 128,-1,42
 462 130 462 130 462 188 c 0,43,44
 462 247 462 247 419.5 282 c 128,-1,45
 377 317 377 317 305 317 c 0,46,47
 234 317 234 317 191.5 282 c 128,-1,48
 149 247 149 247 149 188 c 0,49,50
 149 130 149 130 191.5 96 c 128,-1,51
 234 62 234 62 305 62 c 0,40,41
EndSplineSet
Validated: 1
Substitution2: "'tnum' Tabular Numbers lookup 14 subtable" eight.tf
Substitution2: "'aalt' Access All Alternates lookup 0 subtable" eight.tf
EndChar

StartChar: nine
Encoding: 57 57 14
Width: 594
GlyphClass: 1
Flags: W
HStem: 0 21G<211 334> 201 86<219.381 349.605> 594 85<218.409 377.282>
VStem: 58 86<362.409 519.493> 452 84<363.204 518.967>
LayerCount: 2
Fore
SplineSet
211 0 m 1,0,1
 211 0 211 0 224.5 19 c 128,-1,2
 238 38 238 38 259.5 69 c 128,-1,3
 281 100 281 100 305 136.5 c 128,-1,4
 329 173 329 173 350 207 c 1,5,6
 325 201 325 201 297 201 c 0,7,8
 232 201 232 201 177.5 233.5 c 128,-1,9
 123 266 123 266 90.5 320.5 c 128,-1,10
 58 375 58 375 58 441 c 256,11,12
 58 507 58 507 90 561 c 128,-1,13
 122 615 122 615 176.5 647 c 128,-1,14
 231 679 231 679 297 679 c 0,15,16
 366 679 366 679 420 646.5 c 128,-1,17
 474 614 474 614 505 559.5 c 128,-1,18
 536 505 536 505 536 439 c 0,19,20
 536 393 536 393 518 348 c 0,21,22
 513 336 513 336 495 301.5 c 128,-1,23
 477 267 477 267 449.5 218 c 128,-1,24
 422 169 422 169 387.5 112.5 c 128,-1,25
 353 56 353 56 315 0 c 1,26,-1
 211 0 l 1,0,1
297 287 m 0,27,28
 340 287 340 287 375 308 c 128,-1,29
 410 329 410 329 431 364 c 128,-1,30
 452 399 452 399 452 441 c 256,31,32
 452 483 452 483 431 518 c 128,-1,33
 410 553 410 553 375 573.5 c 128,-1,34
 340 594 340 594 297 594 c 0,35,36
 255 594 255 594 220 573.5 c 128,-1,37
 185 553 185 553 164.5 518 c 128,-1,38
 144 483 144 483 144 441 c 256,39,40
 144 399 144 399 164.5 364 c 128,-1,41
 185 329 185 329 220 308 c 128,-1,42
 255 287 255 287 297 287 c 0,27,28
EndSplineSet
Validated: 1
Substitution2: "'tnum' Tabular Numbers lookup 14 subtable" nine.tf
Substitution2: "'aalt' Access All Alternates lookup 0 subtable" nine.tf
EndChar

StartChar: A
Encoding: 65 65 15
Width: 622
GlyphClass: 2
Flags: W
HStem: 0 21G<8 114.986 507.014 614> 146 81<188 434> 649 20G<251.496 371.474>
AnchorPoint: "Anchor-2" 613 0 basechar 0
AnchorPoint: "Anchor-1" 311 0 basechar 0
AnchorPoint: "Anchor-0" 311 668 basechar 0
LayerCount: 2
Fore
SplineSet
8 0 m 1,0,-1
 259 669 l 1,1,-1
 364 669 l 1,2,-1
 614 0 l 1,3,-1
 514 0 l 1,4,-1
 463 146 l 1,5,-1
 159 146 l 1,6,-1
 108 0 l 1,7,-1
 8 0 l 1,0,-1
188 227 m 1,8,-1
 434 227 l 1,9,-1
 311 574 l 1,10,-1
 188 227 l 1,8,-1
EndSplineSet
Validated: 1
Substitution2: "Single Substitution lookup 12 subtable" ordfeminine
Substitution2: "'aalt' Access All Alternates lookup 0 subtable" ordfeminine
EndChar

StartChar: B
Encoding: 66 66 16
Width: 615
GlyphClass: 1
Flags: W
HStem: 0 79<168 437.227> 308 74<168 419.746> 589 79<168 416.424>
VStem: 74 94<79 308 382 589> 455 95<419.201 550.964> 482 97<124.835 264.711>
LayerCount: 2
Fore
SplineSet
74 0 m 1,0,-1
 74 668 l 1,1,-1
 343 668 l 2,2,3
 416 668 416 668 461.5 644 c 128,-1,4
 507 620 507 620 528.5 582.5 c 128,-1,5
 550 545 550 545 550 502 c 0,6,7
 550 462 550 462 532 423 c 128,-1,8
 514 384 514 384 480 355 c 1,9,10
 530 329 530 329 554.5 284.5 c 128,-1,11
 579 240 579 240 579 192 c 256,12,13
 579 144 579 144 554.5 100 c 128,-1,14
 530 56 530 56 481 28 c 128,-1,15
 432 0 432 0 359 0 c 2,16,-1
 74 0 l 1,0,-1
168 382 m 1,17,-1
 353 382 l 2,18,19
 404 382 404 382 429.5 414 c 128,-1,20
 455 446 455 446 455 484 c 0,21,22
 455 510 455 510 443.5 534 c 128,-1,23
 432 558 432 558 409.5 573.5 c 128,-1,24
 387 589 387 589 353 589 c 2,25,-1
 168 589 l 1,26,-1
 168 382 l 1,17,-1
168 79 m 1,27,-1
 369 79 l 2,28,29
 406 79 406 79 431 96 c 128,-1,30
 456 113 456 113 469 139.5 c 128,-1,31
 482 166 482 166 482 195 c 256,32,33
 482 224 482 224 469.5 249.5 c 128,-1,34
 457 275 457 275 431.5 291.5 c 128,-1,35
 406 308 406 308 368 308 c 2,36,-1
 168 308 l 1,37,-1
 168 79 l 1,27,-1
EndSplineSet
Validated: 1
EndChar

StartChar: C
Encoding: 67 67 17
Width: 652
GlyphClass: 2
Flags: W
HStem: -12 79<264.437 454.941> 499 21G<519 584.667> 601 79<262.995 451.332>
VStem: 48 96<203.92 465.835>
AnchorPoint: "Anchor-1" 346 0 basechar 0
AnchorPoint: "Anchor-0" 351 668 basechar 0
LayerCount: 2
Fore
SplineSet
351 -12 m 0,0,1
 256 -12 256 -12 188 32.5 c 128,-1,2
 120 77 120 77 84 155 c 128,-1,3
 48 233 48 233 48 335 c 0,4,5
 48 439 48 439 86.5 516.5 c 128,-1,6
 125 594 125 594 195 637 c 128,-1,7
 265 680 265 680 359 680 c 0,8,9
 443 680 443 680 510.5 641 c 128,-1,10
 578 602 578 602 612 529 c 1,11,-1
 530 499 l 1,12,13
 508 544 508 544 463.5 572.5 c 128,-1,14
 419 601 419 601 354 601 c 0,15,16
 295 601 295 601 247.5 571 c 128,-1,17
 200 541 200 541 172 481.5 c 128,-1,18
 144 422 144 422 144 335 c 0,19,20
 144 251 144 251 171 191 c 128,-1,21
 198 131 198 131 246.5 99 c 128,-1,22
 295 67 295 67 357 67 c 0,23,24
 422 67 422 67 466.5 95 c 128,-1,25
 511 123 511 123 534 169 c 1,26,-1
 616 139 l 1,27,28
 580 65 580 65 510 26.5 c 128,-1,29
 440 -12 440 -12 351 -12 c 0,0,1
EndSplineSet
Validated: 1
EndChar

StartChar: D
Encoding: 68 68 18
Width: 669
GlyphClass: 2
Flags: W
HStem: 0 79<168 400.419> 589 79<168 400.419>
VStem: 74 94<79 589> 525 96<199.956 469.077>
AnchorPoint: "Anchor-1" 335 0 basechar 0
AnchorPoint: "Anchor-0" 325 668 basechar 0
LayerCount: 2
Fore
SplineSet
74 0 m 1,0,-1
 74 668 l 1,1,-1
 256 668 l 2,2,3
 336 668 336 668 402.5 651.5 c 128,-1,4
 469 635 469 635 518 597 c 128,-1,5
 567 559 567 559 594 494.5 c 128,-1,6
 621 430 621 430 621 335 c 0,7,8
 621 239 621 239 594 174.5 c 128,-1,9
 567 110 567 110 518 71.5 c 128,-1,10
 469 33 469 33 402.5 16.5 c 128,-1,11
 336 0 336 0 256 0 c 2,12,-1
 74 0 l 1,0,-1
168 79 m 1,13,-1
 254 79 l 2,14,15
 306 79 306 79 354.5 87.5 c 128,-1,16
 403 96 403 96 441.5 121.5 c 128,-1,17
 480 147 480 147 502.5 198.5 c 128,-1,18
 525 250 525 250 525 335 c 256,19,20
 525 420 525 420 502.5 470.5 c 128,-1,21
 480 521 480 521 441.5 546.5 c 128,-1,22
 403 572 403 572 354.5 580.5 c 128,-1,23
 306 589 306 589 254 589 c 2,24,-1
 168 589 l 1,25,-1
 168 79 l 1,13,-1
EndSplineSet
Validated: 1
EndChar

StartChar: E
Encoding: 69 69 19
Width: 563
GlyphClass: 2
Flags: W
HStem: 0 81<168 527> 303 81<168 433> 587 81<168 527>
VStem: 74 94<81 303 384 587>
AnchorPoint: "Anchor-2" 504 0 basechar 0
AnchorPoint: "Anchor-1" 282 0 basechar 0
AnchorPoint: "Anchor-0" 302 668 basechar 0
LayerCount: 2
Fore
SplineSet
74 0 m 1,0,-1
 74 668 l 1,1,-1
 527 668 l 1,2,-1
 527 587 l 1,3,-1
 168 587 l 1,4,-1
 168 384 l 1,5,-1
 433 384 l 1,6,-1
 433 303 l 1,7,-1
 168 303 l 1,8,-1
 168 81 l 1,9,-1
 527 81 l 1,10,-1
 527 0 l 1,11,-1
 74 0 l 1,0,-1
EndSplineSet
Validated: 1
EndChar

StartChar: F
Encoding: 70 70 20
Width: 544
GlyphClass: 1
Flags: W
HStem: 0 21G<74 168> 303 81<168 508> 587 81<168 508>
VStem: 74 94<0 303 384 587>
LayerCount: 2
Fore
SplineSet
74 0 m 1,0,-1
 74 668 l 1,1,-1
 508 668 l 1,2,-1
 508 587 l 1,3,-1
 168 587 l 1,4,-1
 168 384 l 1,5,-1
 508 384 l 1,6,-1
 508 303 l 1,7,-1
 168 303 l 1,8,-1
 168 0 l 1,9,-1
 74 0 l 1,0,-1
EndSplineSet
Validated: 1
EndChar

StartChar: G
Encoding: 71 71 21
Width: 706
GlyphClass: 2
Flags: W
HStem: -12 79<262.472 461.329> 0 21G<580.048 640> 264 81<356 551> 499 21G<519 585.333> 601 79<262.995 451.332>
VStem: 48 96<202.944 465.835> 551 89<149.752 264> 586 54<0 23.52>
AnchorPoint: "Anchor-1" 353 0 basechar 0
AnchorPoint: "Anchor-0" 357 668 basechar 0
LayerCount: 2
Fore
SplineSet
350 -12 m 0,0,1
 254 -12 254 -12 186.5 32.5 c 128,-1,2
 119 77 119 77 83.5 155 c 128,-1,3
 48 233 48 233 48 335 c 0,4,5
 48 439 48 439 86.5 516.5 c 128,-1,6
 125 594 125 594 195 637 c 128,-1,7
 265 680 265 680 359 680 c 0,8,9
 443 680 443 680 510.5 641 c 128,-1,10
 578 602 578 602 613 529 c 1,11,-1
 530 499 l 1,12,13
 508 544 508 544 463.5 572.5 c 128,-1,14
 419 601 419 601 354 601 c 0,15,16
 295 601 295 601 247.5 571 c 128,-1,17
 200 541 200 541 172 481.5 c 128,-1,18
 144 422 144 422 144 335 c 0,19,20
 144 251 144 251 170.5 191 c 128,-1,21
 197 131 197 131 244.5 99 c 128,-1,22
 292 67 292 67 354 67 c 0,23,24
 387 67 387 67 422 75 c 128,-1,25
 457 83 457 83 486 102.5 c 128,-1,26
 515 122 515 122 533 156 c 128,-1,27
 551 190 551 190 551 242 c 2,28,-1
 551 264 l 1,29,-1
 356 264 l 1,30,-1
 356 345 l 1,31,-1
 640 345 l 1,32,-1
 640 0 l 1,33,-1
 586 0 l 1,34,-1
 561 84 l 1,35,36
 529 33 529 33 473.5 10.5 c 128,-1,37
 418 -12 418 -12 350 -12 c 0,0,1
EndSplineSet
Validated: 1
EndChar

StartChar: H
Encoding: 72 72 22
Width: 686
GlyphClass: 2
Flags: W
HStem: 0 21G<74 168 518 612> 303 81<168 518> 648 20G<74 168 518 612>
VStem: 74 94<0 303 384 668> 518 94<0 303 384 668>
AnchorPoint: "Anchor-1" 343 0 basechar 0
AnchorPoint: "Anchor-0" 343 668 basechar 0
LayerCount: 2
Fore
SplineSet
74 0 m 1,0,-1
 74 668 l 1,1,-1
 168 668 l 1,2,-1
 168 384 l 1,3,-1
 518 384 l 1,4,-1
 518 668 l 1,5,-1
 612 668 l 1,6,-1
 612 0 l 1,7,-1
 518 0 l 1,8,-1
 518 303 l 1,9,-1
 168 303 l 1,10,-1
 168 0 l 1,11,-1
 74 0 l 1,0,-1
EndSplineSet
Validated: 1
EndChar

StartChar: I
Encoding: 73 73 23
Width: 410
GlyphClass: 2
Flags: W
HStem: 0 74<64 158 252 346> 594 74<64 158 252 346>
VStem: 158 94<74 594>
AnchorPoint: "Anchor-2" 271 0 basechar 0
AnchorPoint: "Anchor-1" 205 0 basechar 0
AnchorPoint: "Anchor-0" 205 668 basechar 0
LayerCount: 2
Fore
SplineSet
64 0 m 1,0,-1
 64 74 l 1,1,-1
 158 74 l 1,2,-1
 158 594 l 1,3,-1
 64 594 l 1,4,-1
 64 668 l 1,5,-1
 346 668 l 1,6,-1
 346 594 l 1,7,-1
 252 594 l 1,8,-1
 252 74 l 1,9,-1
 346 74 l 1,10,-1
 346 0 l 1,11,-1
 64 0 l 1,0,-1
EndSplineSet
Validated: 1
EndChar

StartChar: J
Encoding: 74 74 24
Width: 506
GlyphClass: 1
Flags: W
HStem: -12 77<153.786 292.051> 648 20G<338 432>
VStem: 13 87<118.428 189> 338 94<115.875 668>
LayerCount: 2
Fore
SplineSet
222 -12 m 0,0,1
 128 -12 128 -12 73 38.5 c 128,-1,2
 18 89 18 89 13 189 c 1,3,-1
 100 214 l 1,4,5
 98 138 98 138 135 101.5 c 128,-1,6
 172 65 172 65 222 65 c 0,7,8
 249 65 249 65 276 77 c 128,-1,9
 303 89 303 89 320.5 121 c 128,-1,10
 338 153 338 153 338 213 c 2,11,-1
 338 668 l 1,12,-1
 432 668 l 1,13,-1
 432 212 l 2,14,15
 432 103 432 103 376 45.5 c 128,-1,16
 320 -12 320 -12 222 -12 c 0,0,1
EndSplineSet
Validated: 33
EndChar

StartChar: K
Encoding: 75 75 25
Width: 623
GlyphClass: 2
Flags: W
HStem: 0 21G<74 168 485.5 615> 648 20G<74 168 451.083 586>
VStem: 74 94<0 210 332 668>
AnchorPoint: "Anchor-1" 312 0 basechar 0
AnchorPoint: "Anchor-0" 312 668 basechar 0
LayerCount: 2
Fore
SplineSet
74 0 m 1,0,-1
 74 668 l 1,1,-1
 168 668 l 1,2,-1
 168 332 l 1,3,-1
 469 668 l 1,4,-1
 586 668 l 1,5,-1
 331 389 l 1,6,-1
 615 0 l 1,7,-1
 500 0 l 1,8,-1
 268 320 l 1,9,-1
 168 210 l 1,10,-1
 168 0 l 1,11,-1
 74 0 l 1,0,-1
EndSplineSet
Validated: 1
EndChar

StartChar: L
Encoding: 76 76 26
Width: 535
GlyphClass: 2
Flags: W
HStem: 0 81<168 527> 648 20G<74 168>
VStem: 74 94<81 668>
AnchorPoint: "Anchor-1" 303 0 basechar 0
AnchorPoint: "Anchor-0" 268 668 basechar 0
LayerCount: 2
Fore
SplineSet
74 0 m 1,0,-1
 74 668 l 1,1,-1
 168 668 l 1,2,-1
 168 81 l 1,3,-1
 527 81 l 1,4,-1
 527 0 l 1,5,-1
 74 0 l 1,0,-1
EndSplineSet
Validated: 1
EndChar

StartChar: M
Encoding: 77 77 27
Width: 816
GlyphClass: 1
Flags: W
HStem: 0 21G<74 168 355.193 461.772 648 742> 648 20G<74 236.52 579.48 742>
VStem: 74 94<0 570> 648 94<0 570>
LayerCount: 2
Fore
SplineSet
74 0 m 1,0,-1
 74 668 l 1,1,-1
 230 668 l 1,2,-1
 408 122 l 1,3,-1
 586 668 l 1,4,-1
 742 668 l 1,5,-1
 742 0 l 1,6,-1
 648 0 l 1,7,-1
 648 570 l 1,8,-1
 455 0 l 1,9,-1
 362 0 l 1,10,-1
 168 570 l 1,11,-1
 168 0 l 1,12,-1
 74 0 l 1,0,-1
EndSplineSet
Validated: 1
EndChar

StartChar: N
Encoding: 78 78 28
Width: 685
GlyphClass: 2
Flags: W
HStem: 0 21G<74 168 462.317 611> 648 20G<74 223.704 517 611>
VStem: 74 94<0 571> 517 94<100 668>
AnchorPoint: "Anchor-1" 309 0 basechar 0
AnchorPoint: "Anchor-0" 360 668 basechar 0
LayerCount: 2
Fore
SplineSet
74 0 m 1,0,-1
 74 668 l 1,1,-1
 213 668 l 1,2,-1
 517 100 l 1,3,-1
 517 668 l 1,4,-1
 611 668 l 1,5,-1
 611 0 l 1,6,-1
 473 0 l 1,7,-1
 168 571 l 1,8,-1
 168 0 l 1,9,-1
 74 0 l 1,0,-1
EndSplineSet
Validated: 1
EndChar

StartChar: O
Encoding: 79 79 29
Width: 723
GlyphClass: 2
Flags: W
HStem: -12 79<268.869 453.999> 601 79<268.069 454.802>
VStem: 48 96<206.269 463.005> 579 96<206.269 463.005>
AnchorPoint: "Anchor-2" 652 10 basechar 0
AnchorPoint: "Anchor-1" 362 0 basechar 0
AnchorPoint: "Anchor-0" 362 668 basechar 0
LayerCount: 2
Fore
SplineSet
361 -12 m 0,0,1
 265 -12 265 -12 195 32.5 c 128,-1,2
 125 77 125 77 86.5 155.5 c 128,-1,3
 48 234 48 234 48 335 c 256,4,5
 48 436 48 436 86.5 513.5 c 128,-1,6
 125 591 125 591 195 635.5 c 128,-1,7
 265 680 265 680 361 680 c 0,8,9
 458 680 458 680 528 635.5 c 128,-1,10
 598 591 598 591 636.5 513.5 c 128,-1,11
 675 436 675 436 675 335 c 256,12,13
 675 234 675 234 636.5 155.5 c 128,-1,14
 598 77 598 77 528 32.5 c 128,-1,15
 458 -12 458 -12 361 -12 c 0,0,1
361 67 m 0,16,17
 422 67 422 67 471.5 98 c 128,-1,18
 521 129 521 129 550 188.5 c 128,-1,19
 579 248 579 248 579 335 c 0,20,21
 579 421 579 421 550 480.5 c 128,-1,22
 521 540 521 540 471.5 570.5 c 128,-1,23
 422 601 422 601 361 601 c 0,24,25
 301 601 301 601 251.5 570.5 c 128,-1,26
 202 540 202 540 173 480.5 c 128,-1,27
 144 421 144 421 144 335 c 0,28,29
 144 248 144 248 173 188.5 c 128,-1,30
 202 129 202 129 251.5 98 c 128,-1,31
 301 67 301 67 361 67 c 0,16,17
EndSplineSet
Validated: 1
Substitution2: "Single Substitution lookup 12 subtable" ordmasculine
Substitution2: "'aalt' Access All Alternates lookup 0 subtable" ordmasculine
EndChar

StartChar: P
Encoding: 80 80 30
Width: 597
GlyphClass: 1
Flags: W
HStem: 1 21G<74 168> 266 81<168 419.611> 589 79<168 415.61>
VStem: 74 94<1 266 347 589> 465 96<389.347 544.733>
LayerCount: 2
Fore
SplineSet
74 1 m 1,0,-1
 74 668 l 1,1,-1
 283 668 l 2,2,3
 365 668 365 668 427.5 652 c 128,-1,4
 490 636 490 636 525.5 592.5 c 128,-1,5
 561 549 561 549 561 466 c 0,6,7
 561 384 561 384 525.5 340.5 c 128,-1,8
 490 297 490 297 427.5 281.5 c 128,-1,9
 365 266 365 266 283 266 c 2,10,-1
 168 266 l 1,11,-1
 168 1 l 1,12,-1
 74 1 l 1,0,-1
168 347 m 1,13,-1
 291 347 l 2,14,15
 340 347 340 347 379 354 c 128,-1,16
 418 361 418 361 441.5 386.5 c 128,-1,17
 465 412 465 412 465 466 c 0,18,19
 465 521 465 521 441.5 547 c 128,-1,20
 418 573 418 573 379 581 c 128,-1,21
 340 589 340 589 291 589 c 2,22,-1
 168 589 l 1,23,-1
 168 347 l 1,13,-1
EndSplineSet
Validated: 1
EndChar

StartChar: Q
Encoding: 81 81 31
Width: 749
GlyphClass: 1
Flags: W
HStem: -12 79<268.869 456.377> 601 79<268.069 454.802>
VStem: 48 96<206.269 463.005> 579 96<206.804 463.005>
LayerCount: 2
Fore
SplineSet
687 -44 m 1,0,-1
 570 65 l 1,1,2
 531 28 531 28 478 8 c 128,-1,3
 425 -12 425 -12 361 -12 c 0,4,5
 265 -12 265 -12 195 32.5 c 128,-1,6
 125 77 125 77 86.5 155.5 c 128,-1,7
 48 234 48 234 48 335 c 256,8,9
 48 436 48 436 86.5 513.5 c 128,-1,10
 125 591 125 591 195 635.5 c 128,-1,11
 265 680 265 680 361 680 c 0,12,13
 458 680 458 680 528 635.5 c 128,-1,14
 598 591 598 591 636.5 513.5 c 128,-1,15
 675 436 675 436 675 335 c 0,16,17
 675 279 675 279 663 229.5 c 128,-1,18
 651 180 651 180 628 139 c 1,19,-1
 751 24 l 1,20,-1
 687 -44 l 1,0,-1
361 67 m 0,21,22
 449 67 449 67 506 126 c 1,23,-1
 327 294 l 1,24,-1
 391 362 l 1,25,-1
 557 206 l 1,26,27
 568 233 568 233 573.5 265.5 c 128,-1,28
 579 298 579 298 579 335 c 0,29,30
 579 421 579 421 550 480.5 c 128,-1,31
 521 540 521 540 471.5 570.5 c 128,-1,32
 422 601 422 601 361 601 c 0,33,34
 301 601 301 601 251.5 570.5 c 128,-1,35
 202 540 202 540 173 480.5 c 128,-1,36
 144 421 144 421 144 335 c 0,37,38
 144 248 144 248 173 188.5 c 128,-1,39
 202 129 202 129 251.5 98 c 128,-1,40
 301 67 301 67 361 67 c 0,21,22
EndSplineSet
Validated: 1
EndChar

StartChar: R
Encoding: 82 82 32
Width: 614
GlyphClass: 2
Flags: W
HStem: 0 21G<74 168 456.552 586> 281 79<168 268> 589 79<168 420.615>
VStem: 74 94<0 281 360 589> 468 96<400.729 547.976>
AnchorPoint: "Anchor-1" 307 0 basechar 0
AnchorPoint: "Anchor-0" 301 668 basechar 0
LayerCount: 2
Fore
SplineSet
74 0 m 1,0,-1
 74 668 l 1,1,-1
 286 668 l 2,2,3
 368 668 368 668 430.5 653.5 c 128,-1,4
 493 639 493 639 528.5 597.5 c 128,-1,5
 564 556 564 556 564 476 c 0,6,7
 564 431 564 431 550 392 c 128,-1,8
 536 353 536 353 496.5 326 c 128,-1,9
 457 299 457 299 379 288 c 1,10,-1
 586 0 l 1,11,-1
 471 0 l 1,12,-1
 268 281 l 1,13,-1
 168 281 l 1,14,-1
 168 0 l 1,15,-1
 74 0 l 1,0,-1
168 360 m 1,16,-1
 293 360 l 2,17,18
 342 360 342 360 381.5 367 c 128,-1,19
 421 374 421 374 444.5 398.5 c 128,-1,20
 468 423 468 423 468 474 c 0,21,22
 468 526 468 526 444.5 550 c 128,-1,23
 421 574 421 574 381.5 581.5 c 128,-1,24
 342 589 342 589 293 589 c 2,25,-1
 168 589 l 1,26,-1
 168 360 l 1,16,-1
EndSplineSet
Validated: 1
EndChar

StartChar: S
Encoding: 83 83 33
Width: 592
GlyphClass: 2
Flags: W
HStem: -12 79<200.055 394.012> 601 79<192.892 381.377>
VStem: 44 97<441.857 555.489> 455 99<120.557 242.874>
AnchorPoint: "Anchor-1" 296 0 basechar 0
AnchorPoint: "Anchor-0" 296 668 basechar 0
LayerCount: 2
Fore
SplineSet
294 -12 m 0,0,1
 239 -12 239 -12 187 5 c 128,-1,2
 135 22 135 22 95.5 57 c 128,-1,3
 56 92 56 92 38 146 c 1,4,-1
 125 172 l 1,5,6
 137 136 137 136 164 112.5 c 128,-1,7
 191 89 191 89 226.5 78 c 128,-1,8
 262 67 262 67 298 67 c 0,9,10
 338 67 338 67 374 80 c 128,-1,11
 410 93 410 93 432.5 119.5 c 128,-1,12
 455 146 455 146 455 186 c 0,13,14
 455 227 455 227 425 251 c 128,-1,15
 395 275 395 275 321 294 c 2,16,-1
 236 313 l 2,17,18
 190 325 190 325 145.5 345 c 128,-1,19
 101 365 101 365 72.5 402 c 128,-1,20
 44 439 44 439 44 501 c 0,21,22
 44 558 44 558 79.5 598 c 128,-1,23
 115 638 115 638 171.5 659 c 128,-1,24
 228 680 228 680 289 680 c 0,25,26
 336 680 336 680 381.5 666.5 c 128,-1,27
 427 653 427 653 463.5 625.5 c 128,-1,28
 500 598 500 598 521 555 c 1,29,-1
 435 530 l 1,30,31
 416 565 416 565 373.5 583 c 128,-1,32
 331 601 331 601 285 601 c 0,33,34
 249 601 249 601 216 589.5 c 128,-1,35
 183 578 183 578 162 555 c 128,-1,36
 141 532 141 532 141 497 c 0,37,38
 141 464 141 464 160.5 444 c 128,-1,39
 180 424 180 424 212.5 412.5 c 128,-1,40
 245 401 245 401 284 392 c 2,41,-1
 357 376 l 2,42,43
 408 364 408 364 453 343 c 128,-1,44
 498 322 498 322 526 284 c 128,-1,45
 554 246 554 246 554 182 c 0,46,47
 554 136 554 136 532 99.5 c 128,-1,48
 510 63 510 63 473 38.5 c 128,-1,49
 436 14 436 14 389.5 1 c 128,-1,50
 343 -12 343 -12 294 -12 c 0,0,1
EndSplineSet
Validated: 1
EndChar

StartChar: T
Encoding: 84 84 34
Width: 554
GlyphClass: 2
Flags: W
HStem: 0 21G<230 324> 587 81<8 230 324 546>
VStem: 230 94<0 587>
AnchorPoint: "Anchor-1" 277 0 basechar 0
AnchorPoint: "Anchor-0" 277 668 basechar 0
LayerCount: 2
Fore
SplineSet
230 0 m 1,0,-1
 230 587 l 1,1,-1
 8 587 l 1,2,-1
 8 668 l 1,3,-1
 546 668 l 1,4,-1
 546 587 l 1,5,-1
 324 587 l 1,6,-1
 324 0 l 1,7,-1
 230 0 l 1,0,-1
EndSplineSet
Validated: 1
EndChar

StartChar: U
Encoding: 85 85 35
Width: 686
GlyphClass: 2
Flags: W
HStem: -12 81<242.786 441.715> 648 20G<74 168 518 612>
VStem: 74 94<151.941 668> 518 94<151.941 668>
AnchorPoint: "Anchor-2" 425 0 basechar 0
AnchorPoint: "Anchor-1" 343 0 basechar 0
AnchorPoint: "Anchor-0" 343 668 basechar 0
LayerCount: 2
Fore
SplineSet
343 -12 m 0,0,1
 198 -12 198 -12 136 60.5 c 128,-1,2
 74 133 74 133 74 279 c 2,3,-1
 74 668 l 1,4,-1
 168 668 l 1,5,-1
 168 272 l 2,6,7
 168 173 168 173 207.5 121 c 128,-1,8
 247 69 247 69 343 69 c 256,9,10
 439 69 439 69 478.5 121 c 128,-1,11
 518 173 518 173 518 272 c 2,12,-1
 518 668 l 1,13,-1
 612 668 l 1,14,-1
 612 279 l 2,15,16
 612 133 612 133 550.5 60.5 c 128,-1,17
 489 -12 489 -12 343 -12 c 0,0,1
EndSplineSet
Validated: 1
EndChar

StartChar: V
Encoding: 86 86 36
Width: 585
GlyphClass: 1
Flags: W
HStem: 0 21G<230.144 353.886> 648 20G<8 117.487 467.477 577>
LayerCount: 2
Fore
SplineSet
237 0 m 1,0,-1
 8 668 l 1,1,-1
 111 668 l 1,2,-1
 292 110 l 1,3,-1
 474 668 l 1,4,-1
 577 668 l 1,5,-1
 347 0 l 1,6,-1
 237 0 l 1,0,-1
EndSplineSet
Validated: 1
EndChar

StartChar: W
Encoding: 87 87 37
Width: 836
GlyphClass: 1
Flags: W
HStem: 0 21G<170.97 293.674 542.326 666> 648 20G<8 115.71 358.58 477.42 720.29 828>
LayerCount: 2
Fore
SplineSet
176 0 m 1,0,-1
 8 668 l 1,1,-1
 111 668 l 1,2,-1
 241 116 l 1,3,-1
 363 668 l 1,4,-1
 473 668 l 1,5,-1
 595 116 l 1,6,-1
 725 668 l 1,7,-1
 828 668 l 1,8,-1
 661 0 l 1,9,-1
 547 0 l 1,10,-1
 418 552 l 1,11,-1
 289 0 l 1,12,-1
 176 0 l 1,0,-1
EndSplineSet
Validated: 1
EndChar

StartChar: X
Encoding: 88 88 38
Width: 619
GlyphClass: 1
Flags: W
HStem: 0 21G<8 135.189 483.736 611> 648 20G<22 148.286 469.714 597>
LayerCount: 2
Fore
SplineSet
8 0 m 1,0,-1
 253 344 l 1,1,-1
 22 668 l 1,2,-1
 134 668 l 1,3,-1
 309 423 l 1,4,-1
 484 668 l 1,5,-1
 597 668 l 1,6,-1
 366 344 l 1,7,-1
 611 0 l 1,8,-1
 498 0 l 1,9,-1
 309 265 l 1,10,-1
 121 0 l 1,11,-1
 8 0 l 1,0,-1
EndSplineSet
Validated: 1
EndChar

StartChar: Y
Encoding: 89 89 39
Width: 591
GlyphClass: 2
Flags: W
HStem: 0 21G<249 343> 648 20G<8 122.455 468.607 583>
VStem: 249 94<0 259>
AnchorPoint: "Anchor-1" 296 0 basechar 0
AnchorPoint: "Anchor-0" 296 668 basechar 0
LayerCount: 2
Fore
SplineSet
249 0 m 1,0,-1
 249 259 l 1,1,-1
 8 668 l 1,2,-1
 111 668 l 1,3,-1
 296 345 l 1,4,-1
 480 668 l 1,5,-1
 583 668 l 1,6,-1
 343 259 l 1,7,-1
 343 0 l 1,8,-1
 249 0 l 1,0,-1
EndSplineSet
Validated: 1
EndChar

StartChar: Z
Encoding: 90 90 40
Width: 603
GlyphClass: 2
Flags: W
HStem: 0 81<154 561> 587 81<57 436>
AnchorPoint: "Anchor-1" 302 0 basechar 0
AnchorPoint: "Anchor-0" 302 668 basechar 0
LayerCount: 2
Fore
SplineSet
42 0 m 1,0,-1
 42 81 l 1,1,-1
 436 587 l 1,2,-1
 57 587 l 1,3,-1
 57 668 l 1,4,-1
 546 668 l 1,5,-1
 546 587 l 1,6,-1
 154 81 l 1,7,-1
 561 81 l 1,8,-1
 561 0 l 1,9,-1
 42 0 l 1,0,-1
EndSplineSet
Validated: 1
EndChar

StartChar: a
Encoding: 97 97 41
Width: 522
GlyphClass: 2
Flags: W
HStem: -12 67<154.655 313.341> 0 21G<390.118 473> 239 67<236.409 371> 437 67<183.82 333.099>
VStem: 36 93<79.8849 180.792> 371 85<303.504 397.836> 378 78<117.75 239>
AnchorPoint: "Anchor-2" 473 0 basechar 0
AnchorPoint: "Anchor-1" 261 0 basechar 0
AnchorPoint: "Anchor-0" 261 496 basechar 0
LayerCount: 2
Fore
SplineSet
207 -12 m 0,0,1
 160 -12 160 -12 121 5 c 128,-1,2
 82 22 82 22 59 54 c 128,-1,3
 36 86 36 86 36 131 c 0,4,5
 36 190 36 190 77.5 224 c 128,-1,6
 119 258 119 258 194.5 276.5 c 128,-1,7
 270 295 270 295 371 306 c 1,8,9
 373 369 373 369 346 403 c 128,-1,10
 319 437 319 437 259 437 c 0,11,12
 214 437 214 437 185.5 416.5 c 128,-1,13
 157 396 157 396 149 360 c 1,14,-1
 68 384 l 1,15,16
 88 441 88 441 139.5 472.5 c 128,-1,17
 191 504 191 504 258 504 c 0,18,19
 361 504 361 504 408.5 455.5 c 128,-1,20
 456 407 456 407 456 303 c 2,21,-1
 456 187 l 2,22,23
 456 125 456 125 461 80 c 128,-1,24
 466 35 466 35 473 0 c 1,25,-1
 396 0 l 1,26,-1
 376 68 l 1,27,28
 354 31 354 31 313 9.5 c 128,-1,29
 272 -12 272 -12 207 -12 c 0,0,1
225 55 m 0,30,31
 264 55 264 55 299 69 c 128,-1,32
 334 83 334 83 356 116.5 c 128,-1,33
 378 150 378 150 378 208 c 2,34,-1
 378 239 l 1,35,36
 302 231 302 231 246 219.5 c 128,-1,37
 190 208 190 208 159.5 187.5 c 128,-1,38
 129 167 129 167 129 133 c 0,39,40
 129 98 129 98 154.5 76.5 c 128,-1,41
 180 55 180 55 225 55 c 0,30,31
EndSplineSet
Validated: 33
Substitution2: "Single Substitution lookup 12 subtable" ordfeminine
Substitution2: "'aalt' Access All Alternates lookup 0 subtable" ordfeminine
EndChar

StartChar: b
Encoding: 98 98 42
Width: 562
GlyphClass: 1
Flags: W
HStem: -12 72<218.386 364.294> 0 21G<68 135.867> 432 72<218.386 365.029> 648 20G<68 152>
VStem: 68 84<132.304 360.343 418 668> 68 62<0 23.8636> 432 94<136.359 356.96>
LayerCount: 2
Fore
SplineSet
313 -12 m 0,0,1
 255 -12 255 -12 215 11.5 c 128,-1,2
 175 35 175 35 152 75 c 1,3,-1
 130 0 l 1,4,-1
 68 0 l 1,5,-1
 68 668 l 1,6,-1
 152 668 l 1,7,-1
 152 418 l 1,8,9
 175 457 175 457 215 480.5 c 128,-1,10
 255 504 255 504 313 504 c 0,11,12
 370 504 370 504 418.5 473.5 c 128,-1,13
 467 443 467 443 496.5 385.5 c 128,-1,14
 526 328 526 328 526 246 c 256,15,16
 526 164 526 164 496.5 106.5 c 128,-1,17
 467 49 467 49 418.5 18.5 c 128,-1,18
 370 -12 370 -12 313 -12 c 0,0,1
291 60 m 256,19,20
 355 60 355 60 393.5 109 c 128,-1,21
 432 158 432 158 432 246 c 0,22,23
 432 335 432 335 393.5 383.5 c 128,-1,24
 355 432 355 432 291 432 c 256,25,26
 227 432 227 432 188.5 383.5 c 128,-1,27
 150 335 150 335 150 246 c 0,28,29
 150 158 150 158 188.5 109 c 128,-1,30
 227 60 227 60 291 60 c 256,19,20
EndSplineSet
Validated: 1
EndChar

StartChar: c
Encoding: 99 99 43
Width: 496
GlyphClass: 2
Flags: W
HStem: -12 74<198.156 345.997> 430 74<196.473 345.022>
VStem: 36 91<141.024 354.173>
AnchorPoint: "Anchor-1" 268 0 basechar 0
AnchorPoint: "Anchor-0" 273 496 basechar 0
LayerCount: 2
Fore
SplineSet
267 -12 m 0,0,1
 196 -12 196 -12 144 21.5 c 128,-1,2
 92 55 92 55 64 113 c 128,-1,3
 36 171 36 171 36 246 c 0,4,5
 36 320 36 320 65.5 378.5 c 128,-1,6
 95 437 95 437 149 470.5 c 128,-1,7
 203 504 203 504 276 504 c 0,8,9
 343 504 343 504 391 471 c 128,-1,10
 439 438 439 438 463 392 c 1,11,-1
 386 364 l 1,12,13
 370 394 370 394 339 412 c 128,-1,14
 308 430 308 430 270 430 c 0,15,16
 233 430 233 430 200 410.5 c 128,-1,17
 167 391 167 391 147 350.5 c 128,-1,18
 127 310 127 310 127 247 c 0,19,20
 127 185 127 185 147.5 143.5 c 128,-1,21
 168 102 168 102 200.5 82 c 128,-1,22
 233 62 233 62 270 62 c 0,23,24
 311 62 311 62 341.5 80.5 c 128,-1,25
 372 99 372 99 388 127 c 1,26,-1
 465 99 l 1,27,28
 437 51 437 51 385 19.5 c 128,-1,29
 333 -12 333 -12 267 -12 c 0,0,1
EndSplineSet
Validated: 1
EndChar

StartChar: d
Encoding: 100 100 44
Width: 560
GlyphClass: 2
Flags: W
HStem: -12 72<198.01 344.113> 0 21G<426.133 511> 432 72<196.452 344.113> 648 20G<410 494>
VStem: 36 94<136.359 356.96> 410 84<132.304 360.343 418 668>
AnchorPoint: "Anchor-1" 280 0 basechar 0
AnchorPoint: "Anchor-0" 280 796 basechar 0
LayerCount: 2
Fore
SplineSet
249 -12 m 0,0,1
 193 -12 193 -12 144 18.5 c 128,-1,2
 95 49 95 49 65.5 106.5 c 128,-1,3
 36 164 36 164 36 246 c 256,4,5
 36 328 36 328 65.5 385.5 c 128,-1,6
 95 443 95 443 144 473.5 c 128,-1,7
 193 504 193 504 249 504 c 0,8,9
 308 504 308 504 348 480.5 c 128,-1,10
 388 457 388 457 410 418 c 1,11,-1
 410 668 l 1,12,-1
 494 668 l 1,13,-1
 494 187 l 2,14,15
 494 162 494 162 496 113.5 c 128,-1,16
 498 65 498 65 511 0 c 1,17,-1
 432 0 l 1,18,-1
 410 75 l 1,19,20
 388 35 388 35 348 11.5 c 128,-1,21
 308 -12 308 -12 249 -12 c 0,0,1
271 60 m 256,22,23
 335 60 335 60 373.5 109 c 128,-1,24
 412 158 412 158 412 246 c 0,25,26
 412 335 412 335 373.5 383.5 c 128,-1,27
 335 432 335 432 271 432 c 256,28,29
 207 432 207 432 168.5 383.5 c 128,-1,30
 130 335 130 335 130 246 c 0,31,32
 130 158 130 158 168.5 109 c 128,-1,33
 207 60 207 60 271 60 c 256,22,23
EndSplineSet
Validated: 1
EndChar

StartChar: e
Encoding: 101 101 45
Width: 535
GlyphClass: 2
Flags: W
HStem: -12 74<200.004 364.328> 225 67<127 419> 432 72<191.941 354.518>
VStem: 36 90<136.406 225 292 362.849> 419 89<292 363.93>
AnchorPoint: "Anchor-2" 363 0 basechar 0
AnchorPoint: "Anchor-1" 268 0 basechar 0
AnchorPoint: "Anchor-0" 279 496 basechar 0
LayerCount: 2
Fore
SplineSet
279 -12 m 0,0,1
 201 -12 201 -12 147 22.5 c 128,-1,2
 93 57 93 57 64.5 115.5 c 128,-1,3
 36 174 36 174 36 247 c 0,4,5
 36 326 36 326 68 383.5 c 128,-1,6
 100 441 100 441 154.5 472.5 c 128,-1,7
 209 504 209 504 277 504 c 0,8,9
 336 504 336 504 381 480.5 c 128,-1,10
 426 457 426 457 455.5 417.5 c 128,-1,11
 485 378 485 378 498.5 328 c 128,-1,12
 512 278 512 278 508 225 c 1,13,-1
 126 225 l 1,14,15
 128 163 128 163 153.5 127 c 128,-1,16
 179 91 179 91 214 76.5 c 128,-1,17
 249 62 249 62 279 62 c 0,18,19
 321 62 321 62 349.5 75.5 c 128,-1,20
 378 89 378 89 395 111 c 1,21,-1
 476 87 l 1,22,23
 449 44 449 44 399 16 c 128,-1,24
 349 -12 349 -12 279 -12 c 0,0,1
127 292 m 1,25,-1
 419 292 l 1,26,27
 419 327 419 327 401.5 359 c 128,-1,28
 384 391 384 391 352.5 411.5 c 128,-1,29
 321 432 321 432 277 432 c 0,30,31
 240 432 240 432 207 418 c 128,-1,32
 174 404 174 404 152.5 373 c 128,-1,33
 131 342 131 342 127 292 c 1,25,-1
EndSplineSet
Validated: 33
EndChar

StartChar: f
Encoding: 102 102 46
Width: 307
GlyphClass: 1
Flags: W
HStem: 0 21G<97 181> 429 67<13 97 181 284> 635 71<190.802 284>
VStem: 97 84<0 429 496 621.588>
LayerCount: 2
Fore
SplineSet
97 0 m 1,0,-1
 97 429 l 1,1,-1
 13 429 l 1,2,-1
 13 496 l 1,3,-1
 97 496 l 1,4,-1
 97 570 l 2,5,6
 97 621 97 621 107 651 c 128,-1,7
 117 681 117 681 146 693.5 c 128,-1,8
 175 706 175 706 230 706 c 2,9,-1
 284 706 l 1,10,-1
 284 635 l 1,11,-1
 232 635 l 2,12,13
 200 635 200 635 190.5 622 c 128,-1,14
 181 609 181 609 181 571 c 2,15,-1
 181 496 l 1,16,-1
 284 496 l 1,17,-1
 284 429 l 1,18,-1
 181 429 l 1,19,-1
 181 0 l 1,20,-1
 97 0 l 1,0,-1
EndSplineSet
Validated: 1
EndChar

StartChar: g
Encoding: 103 103 47
Width: 556
GlyphClass: 2
Flags: W
HStem: -192 74<193.502 360.951> 9 70<193.824 340.498> 432 72<193.019 339.891> 476 20G<421.103 488>
VStem: 36 91<152.416 359.779> 404 84<-70.2194 94 144.578 367.414> 427 61<472.261 496>
AnchorPoint: "Anchor-1" 278 -251 basechar 0
AnchorPoint: "Anchor-0" 266 496 basechar 0
LayerCount: 2
Fore
SplineSet
272 -192 m 0,0,1
 232 -192 232 -192 192.5 -180.5 c 128,-1,2
 153 -169 153 -169 122.5 -143 c 128,-1,3
 92 -117 92 -117 79 -76 c 1,4,-1
 163 -53 l 1,5,6
 177 -92 177 -92 209 -105 c 128,-1,7
 241 -118 241 -118 272 -118 c 0,8,9
 349 -118 349 -118 376.5 -81 c 128,-1,10
 404 -44 404 -44 404 28 c 2,11,-1
 404 94 l 1,12,13
 381 55 381 55 343 32 c 128,-1,14
 305 9 305 9 246 9 c 0,15,16
 191 9 191 9 143 37.5 c 128,-1,17
 95 66 95 66 65.5 121.5 c 128,-1,18
 36 177 36 177 36 256 c 0,19,20
 36 336 36 336 65.5 391 c 128,-1,21
 95 446 95 446 143 475 c 128,-1,22
 191 504 191 504 246 504 c 0,23,24
 305 504 305 504 343 480.5 c 128,-1,25
 381 457 381 457 404 418 c 1,26,-1
 427 496 l 1,27,-1
 488 496 l 1,28,-1
 488 47 l 2,29,30
 488 -71 488 -71 440.5 -131.5 c 128,-1,31
 393 -192 393 -192 272 -192 c 0,0,1
267 79 m 0,32,33
 305 79 305 79 336.5 97 c 128,-1,34
 368 115 368 115 387.5 154 c 128,-1,35
 407 193 407 193 407 256 c 256,36,37
 407 319 407 319 387.5 358 c 128,-1,38
 368 397 368 397 336.5 414.5 c 128,-1,39
 305 432 305 432 267 432 c 0,40,41
 206 432 206 432 166.5 386.5 c 128,-1,42
 127 341 127 341 127 256 c 256,43,44
 127 171 127 171 166.5 125 c 128,-1,45
 206 79 206 79 267 79 c 0,32,33
EndSplineSet
Validated: 1
EndChar

StartChar: h
Encoding: 104 104 48
Width: 542
GlyphClass: 2
Flags: W
HStem: 0 21G<68 152 392 476> 432 72<215.066 354.916> 648 20G<68 152>
VStem: 68 84<0 370.501 421 668> 392 84<0 393.016>
AnchorPoint: "Anchor-1" 271 0 basechar 0
AnchorPoint: "Anchor-0" 271 796 basechar 0
LayerCount: 2
Fore
SplineSet
68 0 m 1,0,-1
 68 668 l 1,1,-1
 152 668 l 1,2,-1
 152 421 l 1,3,4
 173 456 173 456 211 480 c 128,-1,5
 249 504 249 504 312 504 c 0,6,7
 402 504 402 504 439 451.5 c 128,-1,8
 476 399 476 399 476 314 c 2,9,-1
 476 0 l 1,10,-1
 392 0 l 1,11,-1
 392 289 l 2,12,13
 392 327 392 327 385 359.5 c 128,-1,14
 378 392 378 392 354.5 412 c 128,-1,15
 331 432 331 432 283 432 c 0,16,17
 222 432 222 432 187 390.5 c 128,-1,18
 152 349 152 349 152 269 c 2,19,-1
 152 0 l 1,20,-1
 68 0 l 1,0,-1
EndSplineSet
Validated: 1
EndChar

StartChar: i
Encoding: 105 105 49
Width: 274
GlyphClass: 1
Flags: W
HStem: 0 21G<112 196> 429 67<43 112> 590 125<111.08 197.92>
VStem: 92 125<609.08 696.436> 112 84<0 429>
LayerCount: 2
Fore
SplineSet
154 590 m 0,0,1
 129 590 129 590 110.5 608.5 c 128,-1,2
 92 627 92 627 92 653 c 256,3,4
 92 679 92 679 110.5 697 c 128,-1,5
 129 715 129 715 154 715 c 0,6,7
 180 715 180 715 198.5 697 c 128,-1,8
 217 679 217 679 217 653 c 256,9,10
 217 627 217 627 198.5 608.5 c 128,-1,11
 180 590 180 590 154 590 c 0,0,1
112 0 m 1,12,-1
 112 429 l 1,13,-1
 43 429 l 1,14,-1
 43 496 l 1,15,-1
 196 496 l 1,16,-1
 196 0 l 1,17,-1
 112 0 l 1,12,-1
EndSplineSet
Validated: 1
Substitution2: "Single Substitution lookup 4 subtable" dotlessi
Substitution2: "Single Substitution lookup 3 subtable" dotlessi
EndChar

StartChar: j
Encoding: 106 106 50
Width: 250
GlyphClass: 1
Flags: W
HStem: -161 74<-60 72.4272> 476 20G<88 172> 590 125<86.08 173.436>
VStem: 67 125<609.08 696.436> 88 84<-70.7935 496>
LayerCount: 2
Fore
SplineSet
130 590 m 256,0,1
 104 590 104 590 85.5 608.5 c 128,-1,2
 67 627 67 627 67 653 c 256,3,4
 67 679 67 679 85.5 697 c 128,-1,5
 104 715 104 715 130 715 c 256,6,7
 156 715 156 715 174 697 c 128,-1,8
 192 679 192 679 192 653 c 256,9,10
 192 627 192 627 174 608.5 c 128,-1,11
 156 590 156 590 130 590 c 256,0,1
-5 -161 m 2,12,-1
 -60 -159 l 1,13,-1
 -60 -86 l 1,14,-1
 -13 -87 l 2,15,16
 29 -87 29 -87 51 -79.5 c 128,-1,17
 73 -72 73 -72 80.5 -51 c 128,-1,18
 88 -30 88 -30 88 12 c 2,19,-1
 88 496 l 1,20,-1
 172 496 l 1,21,-1
 172 7 l 2,22,23
 172 -57 172 -57 156.5 -93.5 c 128,-1,24
 141 -130 141 -130 102.5 -145.5 c 128,-1,25
 64 -161 64 -161 -5 -161 c 2,12,-1
EndSplineSet
Validated: 1
EndChar

StartChar: k
Encoding: 107 107 51
Width: 486
GlyphClass: 2
Flags: W
HStem: 0 21G<68 152 360.59 478> 476 20G<334.063 453> 648 20G<68 152>
VStem: 68 84<0 166 273 668>
AnchorPoint: "Anchor-1" 249 0 basechar 0
AnchorPoint: "Anchor-0" 243 796 basechar 0
LayerCount: 2
Fore
SplineSet
68 0 m 1,0,-1
 68 668 l 1,1,-1
 152 668 l 1,2,-1
 152 273 l 1,3,-1
 352 496 l 1,4,-1
 453 496 l 1,5,-1
 266 291 l 1,6,-1
 478 0 l 1,7,-1
 375 0 l 1,8,-1
 210 229 l 1,9,-1
 152 166 l 1,10,-1
 152 0 l 1,11,-1
 68 0 l 1,0,-1
EndSplineSet
Validated: 1
EndChar

StartChar: l
Encoding: 108 108 52
Width: 235
GlyphClass: 2
Flags: W
HStem: 0 74<160.257 222> 647 20G<68 152>
VStem: 68 84<87.4124 667>
AnchorPoint: "Anchor-1" 143 0 basechar 0
AnchorPoint: "Anchor-0" 115 680 basechar 0
LayerCount: 2
Fore
SplineSet
185 0 m 2,0,1
 138 0 138 0 112.5 9.5 c 128,-1,2
 87 19 87 19 77.5 46 c 128,-1,3
 68 73 68 73 68 124 c 2,4,-1
 68 667 l 1,5,-1
 152 667 l 1,6,-1
 152 138 l 2,7,8
 152 100 152 100 160 87 c 128,-1,9
 168 74 168 74 203 74 c 2,10,-1
 222 74 l 1,11,-1
 222 0 l 1,12,-1
 185 0 l 2,0,1
EndSplineSet
Validated: 1
EndChar

StartChar: m
Encoding: 109 109 53
Width: 837
GlyphClass: 2
Flags: W
HStem: 0 21G<68 152 378 462 687 771> 432 72<212.833 340.983 514.169 649.864> 476 20G<68 135.867>
VStem: 68 84<0 373.584> 68 62<472.136 496> 378 84<0 373.584> 687 84<0 393.016>
AnchorPoint: "Anchor-1" 419 0 basechar 0
AnchorPoint: "Anchor-0" 419 496 basechar 0
LayerCount: 2
Fore
SplineSet
68 0 m 1,0,-1
 68 496 l 1,1,-1
 130 496 l 1,2,-1
 152 421 l 1,3,4
 173 456 173 456 209.5 480 c 128,-1,5
 246 504 246 504 301 504 c 0,6,7
 358 504 358 504 393 481 c 128,-1,8
 428 458 428 458 444 417 c 1,9,10
 474 463 474 463 516.5 483.5 c 128,-1,11
 559 504 559 504 611 504 c 0,12,13
 697 504 697 504 734 451.5 c 128,-1,14
 771 399 771 399 771 314 c 2,15,-1
 771 0 l 1,16,-1
 687 0 l 1,17,-1
 687 289 l 2,18,19
 687 327 687 327 679.5 359.5 c 128,-1,20
 672 392 672 392 649.5 412 c 128,-1,21
 627 432 627 432 581 432 c 0,22,23
 527 432 527 432 494.5 390.5 c 128,-1,24
 462 349 462 349 462 269 c 2,25,-1
 462 0 l 1,26,-1
 378 0 l 1,27,-1
 378 289 l 2,28,29
 378 327 378 327 370.5 359.5 c 128,-1,30
 363 392 363 392 340.5 412 c 128,-1,31
 318 432 318 432 272 432 c 0,32,33
 218 432 218 432 185 390.5 c 128,-1,34
 152 349 152 349 152 269 c 2,35,-1
 152 0 l 1,36,-1
 68 0 l 1,0,-1
EndSplineSet
Validated: 1
EndChar

StartChar: n
Encoding: 110 110 54
Width: 542
GlyphClass: 2
Flags: W
HStem: 0 21G<68 152 392 476> 432 72<215.066 354.916> 476 20G<68 135.867>
VStem: 68 84<0 370.501> 68 62<472.136 496> 392 84<0 393.016>
AnchorPoint: "Anchor-1" 255 0 basechar 0
AnchorPoint: "Anchor-0" 286 496 basechar 0
LayerCount: 2
Fore
SplineSet
68 0 m 1,0,-1
 68 496 l 1,1,-1
 130 496 l 1,2,-1
 152 421 l 1,3,4
 173 456 173 456 211 480 c 128,-1,5
 249 504 249 504 312 504 c 0,6,7
 402 504 402 504 439 451.5 c 128,-1,8
 476 399 476 399 476 314 c 2,9,-1
 476 0 l 1,10,-1
 392 0 l 1,11,-1
 392 289 l 2,12,13
 392 327 392 327 385 359.5 c 128,-1,14
 378 392 378 392 354.5 412 c 128,-1,15
 331 432 331 432 283 432 c 0,16,17
 222 432 222 432 187 390.5 c 128,-1,18
 152 349 152 349 152 269 c 2,19,-1
 152 0 l 1,20,-1
 68 0 l 1,0,-1
EndSplineSet
Validated: 1
EndChar

StartChar: o
Encoding: 111 111 55
Width: 548
GlyphClass: 2
Flags: W
HStem: -12 74<201.063 347.349> 430 74<201.063 347.349>
VStem: 36 90<142.02 349.98> 422 90<142.02 349.98>
AnchorPoint: "Anchor-2" 495 10 basechar 0
AnchorPoint: "Anchor-1" 274 0 basechar 0
AnchorPoint: "Anchor-0" 274 496 basechar 0
LayerCount: 2
Fore
SplineSet
274 -12 m 256,0,1
 231 -12 231 -12 189 3 c 128,-1,2
 147 18 147 18 112.5 49.5 c 128,-1,3
 78 81 78 81 57 130 c 128,-1,4
 36 179 36 179 36 246 c 256,5,6
 36 313 36 313 57 362 c 128,-1,7
 78 411 78 411 112.5 442.5 c 128,-1,8
 147 474 147 474 189 489 c 128,-1,9
 231 504 231 504 274 504 c 256,10,11
 317 504 317 504 359.5 489 c 128,-1,12
 402 474 402 474 436.5 442.5 c 128,-1,13
 471 411 471 411 491.5 362 c 128,-1,14
 512 313 512 313 512 246 c 256,15,16
 512 179 512 179 491.5 130 c 128,-1,17
 471 81 471 81 436.5 49.5 c 128,-1,18
 402 18 402 18 359.5 3 c 128,-1,19
 317 -12 317 -12 274 -12 c 256,0,1
274 62 m 0,20,21
 310 62 310 62 344 81.5 c 128,-1,22
 378 101 378 101 400 141.5 c 128,-1,23
 422 182 422 182 422 246 c 256,24,25
 422 310 422 310 400 350.5 c 128,-1,26
 378 391 378 391 344 410.5 c 128,-1,27
 310 430 310 430 274 430 c 0,28,29
 239 430 239 430 204.5 410.5 c 128,-1,30
 170 391 170 391 148 350.5 c 128,-1,31
 126 310 126 310 126 246 c 256,32,33
 126 182 126 182 148 141.5 c 128,-1,34
 170 101 170 101 204.5 81.5 c 128,-1,35
 239 62 239 62 274 62 c 0,20,21
EndSplineSet
Validated: 1
Substitution2: "Single Substitution lookup 12 subtable" ordmasculine
Substitution2: "'aalt' Access All Alternates lookup 0 subtable" ordmasculine
EndChar

StartChar: p
Encoding: 112 112 56
Width: 562
GlyphClass: 1
Flags: W
HStem: -161 21G<68 152> -12 72<218.386 364.294> 432 72<218.386 365.029> 476 20G<68 134.897>
VStem: 68 84<-161 75 132.304 360.343> 68 61<472.261 496> 432 94<135.694 356.96>
LayerCount: 2
Fore
SplineSet
68 -161 m 1,0,-1
 68 496 l 1,1,-1
 129 496 l 1,2,-1
 152 418 l 1,3,4
 175 457 175 457 215 480.5 c 128,-1,5
 255 504 255 504 313 504 c 0,6,7
 370 504 370 504 418.5 473.5 c 128,-1,8
 467 443 467 443 496.5 385.5 c 128,-1,9
 526 328 526 328 526 246 c 0,10,11
 526 165 526 165 496.5 107 c 128,-1,12
 467 49 467 49 418.5 18.5 c 128,-1,13
 370 -12 370 -12 313 -12 c 0,14,15
 255 -12 255 -12 215 11.5 c 128,-1,16
 175 35 175 35 152 75 c 1,17,-1
 152 -161 l 1,18,-1
 68 -161 l 1,0,-1
291 60 m 256,19,20
 355 60 355 60 393.5 109 c 128,-1,21
 432 158 432 158 432 246 c 0,22,23
 432 335 432 335 393.5 383.5 c 128,-1,24
 355 432 355 432 291 432 c 256,25,26
 227 432 227 432 188.5 383.5 c 128,-1,27
 150 335 150 335 150 246 c 0,28,29
 150 158 150 158 188.5 109 c 128,-1,30
 227 60 227 60 291 60 c 256,19,20
EndSplineSet
Validated: 1
EndChar

StartChar: q
Encoding: 113 113 57
Width: 572
GlyphClass: 1
Flags: W
HStem: -173 79<511.015 625.157> -12 72<197.457 343.84> 432 72<196.717 343.84> 476 20G<427.103 494>
VStem: 36 93<136.688 355.969> 410 84<-71.8268 75 132.304 360.343> 433 61<472.261 496>
LayerCount: 2
Fore
SplineSet
541 -173 m 0,0,1
 507 -173 507 -173 477 -160 c 128,-1,2
 447 -147 447 -147 428.5 -115.5 c 128,-1,3
 410 -84 410 -84 410 -27 c 2,4,-1
 410 75 l 1,5,6
 388 35 388 35 347.5 11.5 c 128,-1,7
 307 -12 307 -12 248 -12 c 0,8,9
 192 -12 192 -12 143.5 18.5 c 128,-1,10
 95 49 95 49 65.5 107 c 128,-1,11
 36 165 36 165 36 246 c 0,12,13
 36 328 36 328 65.5 385.5 c 128,-1,14
 95 443 95 443 143.5 473.5 c 128,-1,15
 192 504 192 504 248 504 c 0,16,17
 307 504 307 504 347.5 480.5 c 128,-1,18
 388 457 388 457 410 418 c 1,19,-1
 433 496 l 1,20,-1
 494 496 l 1,21,-1
 494 -24 l 2,22,23
 494 -51 494 -51 510.5 -72.5 c 128,-1,24
 527 -94 527 -94 565 -94 c 0,25,26
 591 -94 591 -94 626 -81 c 1,27,-1
 626 -159 l 1,28,29
 607 -165 607 -165 585 -169 c 128,-1,30
 563 -173 563 -173 541 -173 c 0,0,1
271 60 m 256,31,32
 335 60 335 60 373.5 109 c 128,-1,33
 412 158 412 158 412 246 c 0,34,35
 412 335 412 335 373.5 383.5 c 128,-1,36
 335 432 335 432 271 432 c 256,37,38
 207 432 207 432 168 383.5 c 128,-1,39
 129 335 129 335 129 246 c 0,40,41
 129 158 129 158 168 109 c 128,-1,42
 207 60 207 60 271 60 c 256,31,32
EndSplineSet
Validated: 1
EndChar

StartChar: r
Encoding: 114 114 58
Width: 336
GlyphClass: 2
Flags: W
HStem: 0 21G<68 152> 417 87<237.543 333> 476 20G<68 134.87>
VStem: 68 84<0 334.225> 68 61<472.148 496>
AnchorPoint: "Anchor-1" 111 0 basechar 0
AnchorPoint: "Anchor-0" 197 496 basechar 0
LayerCount: 2
Fore
SplineSet
68 0 m 1,0,-1
 68 496 l 1,1,-1
 129 496 l 1,2,-1
 156 404 l 1,3,4
 182 449 182 449 226.5 476.5 c 128,-1,5
 271 504 271 504 333 504 c 1,6,-1
 333 417 l 1,7,8
 326 417 326 417 318.5 417 c 128,-1,9
 311 417 311 417 304 416 c 0,10,11
 219 409 219 409 185.5 357 c 128,-1,12
 152 305 152 305 152 213 c 2,13,-1
 152 0 l 1,14,-1
 68 0 l 1,0,-1
EndSplineSet
Validated: 1
EndChar

StartChar: s
Encoding: 115 115 59
Width: 467
GlyphClass: 2
Flags: W
HStem: -12 71<155.069 320.393> 434 71<147.902 304.712>
VStem: 39 85<324.32 410.717> 354 85<89.6953 183.453>
AnchorPoint: "Anchor-1" 228 0 basechar 0
AnchorPoint: "Anchor-0" 238 496 basechar 0
LayerCount: 2
Fore
SplineSet
237 -12 m 0,0,1
 194 -12 194 -12 152.5 1.5 c 128,-1,2
 111 15 111 15 78.5 42.5 c 128,-1,3
 46 70 46 70 29 112 c 1,4,-1
 110 142 l 1,5,6
 121 98 121 98 158.5 78.5 c 128,-1,7
 196 59 196 59 237 59 c 0,8,9
 267 59 267 59 293.5 68 c 128,-1,10
 320 77 320 77 337 94 c 128,-1,11
 354 111 354 111 354 133 c 0,12,13
 354 174 354 174 321.5 191 c 128,-1,14
 289 208 289 208 244 217 c 2,15,-1
 175 231 l 2,16,17
 139 239 139 239 108 253.5 c 128,-1,18
 77 268 77 268 58 295 c 128,-1,19
 39 322 39 322 39 367 c 256,20,21
 39 412 39 412 67 442.5 c 128,-1,22
 95 473 95 473 138.5 489 c 128,-1,23
 182 505 182 505 230 505 c 0,24,25
 289 505 289 505 341.5 480.5 c 128,-1,26
 394 456 394 456 416 404 c 1,27,-1
 337 375 l 1,28,29
 324 405 324 405 291.5 419.5 c 128,-1,30
 259 434 259 434 224 434 c 0,31,32
 186 434 186 434 155 417 c 128,-1,33
 124 400 124 400 124 368 c 256,34,35
 124 336 124 336 150.5 321.5 c 128,-1,36
 177 307 177 307 216 299 c 2,37,-1
 281 286 l 2,38,39
 321 278 321 278 357 263 c 128,-1,40
 393 248 393 248 416 218.5 c 128,-1,41
 439 189 439 189 439 136 c 0,42,43
 439 89 439 89 410 56 c 128,-1,44
 381 23 381 23 335 5.5 c 128,-1,45
 289 -12 289 -12 237 -12 c 0,0,1
EndSplineSet
Validated: 1
EndChar

StartChar: t
Encoding: 116 116 60
Width: 320
GlyphClass: 2
Flags: W
HStem: 0 74<193.741 282> 429 67<18 102 186 282>
VStem: 102 84<87.4124 429 496 621>
AnchorPoint: "Anchor-1" 181 0 basechar 0
AnchorPoint: "Anchor-0" 160 496 basechar 0
LayerCount: 2
Fore
SplineSet
219 0 m 2,0,1
 172 0 172 0 146.5 9.5 c 128,-1,2
 121 19 121 19 111.5 46 c 128,-1,3
 102 73 102 73 102 124 c 2,4,-1
 102 429 l 1,5,-1
 18 429 l 1,6,-1
 18 496 l 1,7,-1
 102 496 l 1,8,-1
 102 621 l 1,9,-1
 186 621 l 1,10,-1
 186 496 l 1,11,-1
 282 496 l 1,12,-1
 282 429 l 1,13,-1
 186 429 l 1,14,-1
 186 138 l 2,15,16
 186 100 186 100 193.5 87 c 128,-1,17
 201 74 201 74 237 74 c 2,18,-1
 282 74 l 1,19,-1
 282 0 l 1,20,-1
 219 0 l 2,0,1
EndSplineSet
Validated: 1
EndChar

StartChar: u
Encoding: 117 117 61
Width: 532
GlyphClass: 2
Flags: W
HStem: -12 74<184.659 319.348> 0 21G<395.167 464> 477 20G<66 150 380 464>
VStem: 66 84<98.818 497> 380 84<121.907 497> 401 63<0 24>
AnchorPoint: "Anchor-2" 467 0 basechar 0
AnchorPoint: "Anchor-1" 266 0 basechar 0
AnchorPoint: "Anchor-0" 265 496 basechar 0
LayerCount: 2
Fore
SplineSet
225 -12 m 0,0,1
 167 -12 167 -12 132 12.5 c 128,-1,2
 97 37 97 37 81.5 80.5 c 128,-1,3
 66 124 66 124 66 180 c 2,4,-1
 66 497 l 1,5,-1
 150 497 l 1,6,-1
 150 200 l 2,7,8
 150 145 150 145 163 115 c 128,-1,9
 176 85 176 85 199.5 73.5 c 128,-1,10
 223 62 223 62 254 62 c 0,11,12
 313 62 313 62 346.5 103.5 c 128,-1,13
 380 145 380 145 380 224 c 2,14,-1
 380 497 l 1,15,-1
 464 497 l 1,16,-1
 464 0 l 1,17,-1
 401 0 l 1,18,-1
 380 72 l 1,19,20
 359 36 359 36 323 12 c 128,-1,21
 287 -12 287 -12 225 -12 c 0,0,1
EndSplineSet
Validated: 1
EndChar

StartChar: v
Encoding: 118 118 62
Width: 441
GlyphClass: 1
Flags: W
HStem: 0 21G<169.863 271.137> 476 20G<0 97.7358 343.316 441>
LayerCount: 2
Fore
SplineSet
177 0 m 1,0,-1
 0 496 l 1,1,-1
 91 496 l 1,2,-1
 221 110 l 1,3,-1
 350 496 l 1,4,-1
 441 496 l 1,5,-1
 264 0 l 1,6,-1
 177 0 l 1,0,-1
EndSplineSet
Validated: 1
EndChar

StartChar: w
Encoding: 119 119 63
Width: 654
GlyphClass: 1
Flags: W
HStem: 0 21G<137.234 224.414 429.586 517.726> 476 20G<0 95.1771 278.605 376.341 558.823 654>
LayerCount: 2
Fore
SplineSet
143 0 m 1,0,-1
 0 496 l 1,1,-1
 90 496 l 1,2,-1
 185 129 l 1,3,-1
 284 496 l 1,4,-1
 371 496 l 1,5,-1
 469 129 l 1,6,-1
 564 496 l 1,7,-1
 654 496 l 1,8,-1
 512 0 l 1,9,-1
 435 0 l 1,10,-1
 327 399 l 1,11,-1
 219 0 l 1,12,-1
 143 0 l 1,0,-1
EndSplineSet
Validated: 1
EndChar

StartChar: x
Encoding: 120 120 64
Width: 461
GlyphClass: 1
Flags: W
HStem: 0 21G<0 113.162 347.73 461> 476 20G<9 122.186 338.698 452>
LayerCount: 2
Fore
SplineSet
0 0 m 1,0,-1
 181 255 l 1,1,-1
 9 496 l 1,2,-1
 108 496 l 1,3,-1
 230 324 l 1,4,-1
 353 496 l 1,5,-1
 452 496 l 1,6,-1
 280 255 l 1,7,-1
 461 0 l 1,8,-1
 362 0 l 1,9,-1
 230 185 l 1,10,-1
 99 0 l 1,11,-1
 0 0 l 1,0,-1
EndSplineSet
Validated: 1
EndChar

StartChar: y
Encoding: 121 121 65
Width: 429
GlyphClass: 2
Flags: W
HStem: -161 74<37 149.938> 475 20G<0 99.3874 330.613 429>
AnchorPoint: "Anchor-1" 215 0 basechar 0
AnchorPoint: "Anchor-0" 220 496 basechar 0
LayerCount: 2
Fore
SplineSet
37 -161 m 1,0,-1
 37 -87 l 1,1,-1
 71 -87 l 2,2,3
 107 -87 107 -87 126 -81.5 c 128,-1,4
 145 -76 145 -76 156.5 -57.5 c 128,-1,5
 168 -39 168 -39 179 -1 c 1,6,-1
 0 495 l 1,7,-1
 93 495 l 1,8,-1
 215 113 l 1,9,-1
 337 495 l 1,10,-1
 429 495 l 1,11,-1
 253 -22 l 2,12,13
 235 -75 235 -75 216.5 -105.5 c 128,-1,14
 198 -136 198 -136 167 -148.5 c 128,-1,15
 136 -161 136 -161 80 -161 c 2,16,-1
 37 -161 l 1,0,-1
EndSplineSet
Validated: 1
EndChar

StartChar: z
Encoding: 122 122 66
Width: 456
GlyphClass: 2
Flags: W
HStem: 0 74<133 428> 422 74<47 323>
AnchorPoint: "Anchor-1" 228 0 basechar 0
AnchorPoint: "Anchor-0" 235 496 basechar 0
LayerCount: 2
Fore
SplineSet
38 0 m 1,0,-1
 38 74 l 1,1,-1
 323 422 l 1,2,-1
 47 422 l 1,3,-1
 47 496 l 1,4,-1
 418 496 l 1,5,-1
 418 422 l 1,6,-1
 133 74 l 1,7,-1
 428 74 l 1,8,-1
 428 0 l 1,9,-1
 38 0 l 1,0,-1
EndSplineSet
Validated: 1
EndChar

StartChar: circumflex
Encoding: 258 710 67
Width: 425
GlyphClass: 1
Flags: W
HStem: 575 120
VStem: 51 323
LayerCount: 2
Fore
SplineSet
51 575 m 1,0,-1
 163 676 l 2,1,2
 183 695 183 695 213 695 c 0,3,4
 242 695 242 695 262 676 c 2,5,-1
 374 575 l 1,6,-1
 280 575 l 1,7,-1
 212 636 l 1,8,-1
 145 575 l 1,9,-1
 51 575 l 1,0,-1
EndSplineSet
Validated: 1
EndChar

StartChar: caron
Encoding: 259 711 68
Width: 425
GlyphClass: 1
Flags: W
HStem: 569 120
VStem: 51 323
LayerCount: 2
Fore
SplineSet
213 569 m 0,0,1
 183 569 183 569 163 588 c 2,2,-1
 51 689 l 1,3,-1
 145 689 l 1,4,-1
 212 628 l 1,5,-1
 280 689 l 1,6,-1
 374 689 l 1,7,-1
 262 588 l 2,8,9
 242 569 242 569 213 569 c 0,0,1
EndSplineSet
Validated: 1
EndChar

StartChar: breve
Encoding: 260 728 69
Width: 395
GlyphClass: 1
Flags: W
HStem: 569 67<141.784 253.493>
VStem: 51 294
LayerCount: 2
Fore
SplineSet
198 569 m 0,0,1
 143 569 143 569 102.5 603.5 c 128,-1,2
 62 638 62 638 51 689 c 1,3,-1
 120 689 l 1,4,5
 129 666 129 666 150 651 c 128,-1,6
 171 636 171 636 198 636 c 0,7,8
 224 636 224 636 245 651 c 128,-1,9
 266 666 266 666 276 689 c 1,10,-1
 345 689 l 1,11,12
 335 638 335 638 293.5 603.5 c 128,-1,13
 252 569 252 569 198 569 c 0,0,1
EndSplineSet
Validated: 1
EndChar

StartChar: dotaccent
Encoding: 261 729 70
Width: 210
GlyphClass: 1
Flags: W
HStem: 590 108<67.5015 143.014>
VStem: 51 108<606.501 682.014>
LayerCount: 2
Fore
SplineSet
105 590 m 0,0,1
 83 590 83 590 67 606 c 128,-1,2
 51 622 51 622 51 644 c 0,3,4
 51 667 51 667 67 682.5 c 128,-1,5
 83 698 83 698 105 698 c 0,6,7
 128 698 128 698 143.5 682.5 c 128,-1,8
 159 667 159 667 159 644 c 0,9,10
 159 622 159 622 143.5 606 c 128,-1,11
 128 590 128 590 105 590 c 0,0,1
EndSplineSet
Validated: 1
EndChar

StartChar: ring
Encoding: 262 730 71
Width: 249
GlyphClass: 1
Flags: W
HStem: 559 58<82.3475 161.728> 719 58<82.3475 161.728>
VStem: 13 57<629.61 706.718> 174 57<629.673 706.327>
LayerCount: 2
Fore
SplineSet
124 559 m 0,0,1
 93 559 93 559 68 574 c 128,-1,2
 43 589 43 589 28 614 c 128,-1,3
 13 639 13 639 13 668 c 0,4,5
 13 698 13 698 28 722.5 c 128,-1,6
 43 747 43 747 68 762 c 128,-1,7
 93 777 93 777 124 777 c 0,8,9
 170 777 170 777 200.5 744.5 c 128,-1,10
 231 712 231 712 231 668 c 256,11,12
 231 624 231 624 200.5 591.5 c 128,-1,13
 170 559 170 559 124 559 c 0,0,1
122 617 m 256,14,15
 144 617 144 617 159 632 c 128,-1,16
 174 647 174 647 174 668 c 256,17,18
 174 689 174 689 159 704 c 128,-1,19
 144 719 144 719 122 719 c 256,20,21
 100 719 100 719 85 704 c 128,-1,22
 70 689 70 689 70 668 c 256,23,24
 70 647 70 647 85 632 c 128,-1,25
 100 617 100 617 122 617 c 256,14,15
EndSplineSet
Validated: 1
EndChar

StartChar: ogonek
Encoding: 263 731 72
Width: 259
GlyphClass: 1
Flags: W
HStem: -173 58<130.236 207.313> -20 20G<112.5 208>
VStem: 51 70<-107.034 -34.266>
LayerCount: 2
Fore
SplineSet
145 -173 m 0,0,1
 100 -173 100 -173 75.5 -148 c 128,-1,2
 51 -123 51 -123 51 -91 c 0,3,4
 51 -60 51 -60 72.5 -34.5 c 128,-1,5
 94 -9 94 -9 131 0 c 1,6,-1
 208 0 l 1,7,8
 157 -19 157 -19 139 -37.5 c 128,-1,9
 121 -56 121 -56 121 -75 c 0,10,11
 121 -95 121 -95 135 -105 c 128,-1,12
 149 -115 149 -115 170 -115 c 0,13,14
 179 -115 179 -115 188.5 -113 c 128,-1,15
 198 -111 198 -111 208 -107 c 1,16,-1
 208 -161 l 1,17,18
 174 -173 174 -173 145 -173 c 0,0,1
EndSplineSet
Validated: 1
EndChar

StartChar: quoteleft
Encoding: 264 8216 73
Width: 231
GlyphClass: 1
Flags: W
HStem: 418 250<118 125.504>
VStem: 51 129<437.08 529.641>
LayerCount: 2
Fore
SplineSet
116 418 m 0,0,1
 89 418 89 418 70 437.5 c 128,-1,2
 51 457 51 457 51 482 c 0,3,4
 51 494 51 494 56 507 c 2,5,-1
 118 668 l 1,6,-1
 173 668 l 1,7,-1
 126 546 l 1,8,9
 149 542 149 542 164.5 524 c 128,-1,10
 180 506 180 506 180 482 c 0,11,12
 180 455 180 455 161 436.5 c 128,-1,13
 142 418 142 418 116 418 c 0,0,1
EndSplineSet
Validated: 1
EndChar

StartChar: quoteright
Encoding: 265 8217 74
Width: 231
GlyphClass: 1
Flags: W
HStem: 429 251<105.496 113>
VStem: 51 129<568.219 660.404>
LayerCount: 2
Fore
SplineSet
58 429 m 1,0,-1
 105 552 l 1,1,2
 82 556 82 556 66.5 573.5 c 128,-1,3
 51 591 51 591 51 615 c 0,4,5
 51 642 51 642 70 661 c 128,-1,6
 89 680 89 680 115 680 c 0,7,8
 142 680 142 680 161 661 c 128,-1,9
 180 642 180 642 180 616 c 0,10,11
 180 604 180 604 175 591 c 2,12,-1
 113 429 l 1,13,-1
 58 429 l 1,0,-1
EndSplineSet
Validated: 1
EndChar

StartChar: quotesinglbase
Encoding: 266 8218 75
Width: 231
GlyphClass: 1
Flags: W
HStem: -134 251<105.496 113>
VStem: 51 129<5.21875 97.4043>
LayerCount: 2
Fore
SplineSet
58 -134 m 1,0,-1
 105 -11 l 1,1,2
 82 -7 82 -7 66.5 10.5 c 128,-1,3
 51 28 51 28 51 52 c 0,4,5
 51 79 51 79 70 98 c 128,-1,6
 89 117 89 117 115 117 c 0,7,8
 142 117 142 117 161 98 c 128,-1,9
 180 79 180 79 180 53 c 0,10,11
 180 41 180 41 175 28 c 2,12,-1
 113 -134 l 1,13,-1
 58 -134 l 1,0,-1
EndSplineSet
Validated: 1
EndChar

StartChar: quotedblleft
Encoding: 267 8220 76
Width: 394
GlyphClass: 1
Flags: W
HStem: 418 250<118 125.504 281 288.504>
VStem: 51 129<437.08 529.344> 214 129<437.08 529.344>
LayerCount: 2
Fore
SplineSet
116 418 m 0,0,1
 91 418 91 418 71 435.5 c 128,-1,2
 51 453 51 453 51 477 c 0,3,4
 51 488 51 488 53 496.5 c 128,-1,5
 55 505 55 505 59 515 c 2,6,-1
 118 668 l 1,7,-1
 173 668 l 1,8,-1
 126 546 l 1,9,10
 149 542 149 542 164.5 524 c 128,-1,11
 180 506 180 506 180 482 c 0,12,13
 180 455 180 455 161 436.5 c 128,-1,14
 142 418 142 418 116 418 c 0,0,1
279 418 m 0,15,16
 254 418 254 418 234 435.5 c 128,-1,17
 214 453 214 453 214 477 c 0,18,19
 214 488 214 488 216 496.5 c 128,-1,20
 218 505 218 505 222 515 c 2,21,-1
 281 668 l 1,22,-1
 336 668 l 1,23,-1
 289 546 l 1,24,25
 312 542 312 542 327.5 524 c 128,-1,26
 343 506 343 506 343 482 c 0,27,28
 343 455 343 455 324 436.5 c 128,-1,29
 305 418 305 418 279 418 c 0,15,16
EndSplineSet
Validated: 1
EndChar

StartChar: quotedblright
Encoding: 268 8221 77
Width: 394
GlyphClass: 1
Flags: W
HStem: 429 251<105.496 113 268.361 277>
VStem: 51 129<568.219 660.404> 214 129<568.219 660.404>
LayerCount: 2
Fore
SplineSet
58 429 m 1,0,-1
 105 552 l 1,1,2
 82 556 82 556 66.5 573.5 c 128,-1,3
 51 591 51 591 51 615 c 0,4,5
 51 642 51 642 70 661 c 128,-1,6
 89 680 89 680 115 680 c 0,7,8
 142 680 142 680 161 661 c 128,-1,9
 180 642 180 642 180 616 c 0,10,11
 180 604 180 604 175 591 c 2,12,-1
 113 429 l 1,13,-1
 58 429 l 1,0,-1
221 429 m 1,14,-1
 268 552 l 1,15,16
 245 556 245 556 229.5 573.5 c 128,-1,17
 214 591 214 591 214 615 c 0,18,19
 214 642 214 642 233 661 c 128,-1,20
 252 680 252 680 279 680 c 256,21,22
 306 680 306 680 324.5 661 c 128,-1,23
 343 642 343 642 343 616 c 0,24,25
 343 604 343 604 338 591 c 2,26,-1
 277 429 l 1,27,-1
 221 429 l 1,14,-1
EndSplineSet
Validated: 1
EndChar

StartChar: quotedblbase
Encoding: 269 8222 78
Width: 394
GlyphClass: 1
Flags: W
HStem: -134 251<105.496 113 268.361 277>
VStem: 51 129<5.21875 97.4043> 214 129<5.21875 97.4043>
LayerCount: 2
Fore
SplineSet
58 -134 m 1,0,-1
 105 -11 l 1,1,2
 82 -7 82 -7 66.5 10.5 c 128,-1,3
 51 28 51 28 51 52 c 0,4,5
 51 79 51 79 70 98 c 128,-1,6
 89 117 89 117 115 117 c 0,7,8
 142 117 142 117 161 98 c 128,-1,9
 180 79 180 79 180 53 c 0,10,11
 180 41 180 41 175 28 c 2,12,-1
 113 -134 l 1,13,-1
 58 -134 l 1,0,-1
221 -134 m 1,14,-1
 268 -11 l 1,15,16
 245 -7 245 -7 229.5 10.5 c 128,-1,17
 214 28 214 28 214 52 c 0,18,19
 214 79 214 79 233 98 c 128,-1,20
 252 117 252 117 279 117 c 256,21,22
 306 117 306 117 324.5 98 c 128,-1,23
 343 79 343 79 343 53 c 0,24,25
 343 41 343 41 338 28 c 2,26,-1
 277 -134 l 1,27,-1
 221 -134 l 1,14,-1
EndSplineSet
Validated: 1
EndChar

StartChar: dagger
Encoding: 270 8224 79
Width: 537
GlyphClass: 1
Flags: W
HStem: 0 21G<228 309> 416 80<38 228 309 499> 648 20G<228 309>
VStem: 228 81<0 416 496 668>
LayerCount: 2
Fore
SplineSet
228 0 m 1,0,-1
 228 416 l 1,1,-1
 38 416 l 1,2,-1
 38 496 l 1,3,-1
 228 496 l 1,4,-1
 228 668 l 1,5,-1
 309 668 l 1,6,-1
 309 496 l 1,7,-1
 499 496 l 1,8,-1
 499 416 l 1,9,-1
 309 416 l 1,10,-1
 309 0 l 1,11,-1
 228 0 l 1,0,-1
EndSplineSet
Validated: 1
EndChar

StartChar: daggerdbl
Encoding: 271 8225 80
Width: 537
GlyphClass: 1
Flags: W
HStem: 0 21G<228 309> 172 79<38 228 309 499> 416 80<38 228 309 499> 648 20G<228 309>
VStem: 228 81<0 172 251 416 496 668>
LayerCount: 2
Fore
SplineSet
228 0 m 1,0,-1
 228 172 l 1,1,-1
 38 172 l 1,2,-1
 38 251 l 1,3,-1
 228 251 l 1,4,-1
 228 416 l 1,5,-1
 38 416 l 1,6,-1
 38 496 l 1,7,-1
 228 496 l 1,8,-1
 228 668 l 1,9,-1
 309 668 l 1,10,-1
 309 496 l 1,11,-1
 499 496 l 1,12,-1
 499 416 l 1,13,-1
 309 416 l 1,14,-1
 309 251 l 1,15,-1
 499 251 l 1,16,-1
 499 172 l 1,17,-1
 309 172 l 1,18,-1
 309 0 l 1,19,-1
 228 0 l 1,0,-1
EndSplineSet
Validated: 1
EndChar

StartChar: bullet
Encoding: 272 8226 81
Width: 434
GlyphClass: 1
Flags: W
HStem: 88 332<134.674 299.326>
VStem: 51 332<172.189 336.326>
LayerCount: 2
Fore
SplineSet
217 88 m 256,0,1
 171 88 171 88 133.5 110.5 c 128,-1,2
 96 133 96 133 73.5 171 c 128,-1,3
 51 209 51 209 51 254 c 0,4,5
 51 300 51 300 73.5 337.5 c 128,-1,6
 96 375 96 375 133.5 397.5 c 128,-1,7
 171 420 171 420 217 420 c 256,8,9
 263 420 263 420 300.5 397.5 c 128,-1,10
 338 375 338 375 360.5 337.5 c 128,-1,11
 383 300 383 300 383 254 c 0,12,13
 383 209 383 209 360.5 171 c 128,-1,14
 338 133 338 133 300.5 110.5 c 128,-1,15
 263 88 263 88 217 88 c 256,0,1
EndSplineSet
Validated: 1
EndChar

StartChar: ellipsis
Encoding: 273 8230 82
Width: 692
GlyphClass: 1
Flags: W
HStem: -12 129<70.5955 160.404 301.08 391.404 531.596 621.405>
VStem: 51 129<7.59546 97.4043> 282 129<7.59546 97.4043> 512 129<7.59546 97.4043>
LayerCount: 2
Fore
SplineSet
577 -12 m 0,0,1
 550 -12 550 -12 531 7 c 128,-1,2
 512 26 512 26 512 52 c 0,3,4
 512 79 512 79 531 98 c 128,-1,5
 550 117 550 117 577 117 c 0,6,7
 603 117 603 117 622 98 c 128,-1,8
 641 79 641 79 641 52 c 0,9,10
 641 26 641 26 622 7 c 128,-1,11
 603 -12 603 -12 577 -12 c 0,0,1
115 -12 m 0,12,13
 89 -12 89 -12 70 7 c 128,-1,14
 51 26 51 26 51 52 c 0,15,16
 51 79 51 79 70 98 c 128,-1,17
 89 117 89 117 115 117 c 0,18,19
 142 117 142 117 161 98 c 128,-1,20
 180 79 180 79 180 52 c 0,21,22
 180 26 180 26 161 7 c 128,-1,23
 142 -12 142 -12 115 -12 c 0,12,13
346 -12 m 256,24,25
 319 -12 319 -12 300.5 7 c 128,-1,26
 282 26 282 26 282 52 c 0,27,28
 282 79 282 79 300.5 98 c 128,-1,29
 319 117 319 117 346 117 c 256,30,31
 373 117 373 117 392 98 c 128,-1,32
 411 79 411 79 411 52 c 0,33,34
 411 26 411 26 392 7 c 128,-1,35
 373 -12 373 -12 346 -12 c 256,24,25
EndSplineSet
Validated: 1
EndChar

StartChar: perthousand
Encoding: 274 8240 83
Width: 1324
GlyphClass: 1
Flags: W
HStem: -12 74<640.997 770.399 1042 1171.4> 0 21G<184 286.012> 277 74<640.997 770.399 1042 1171.4> 316 75<153.311 282.399> 605 75<153.311 282.399> 648 20G<637.988 740>
VStem: 36 74<434.173 561.827> 325 74<433.482 562.518> 524 74<104.601 234.336> 813 74<104.601 234.336> 925 74<104.601 234.336> 1214 74<104.601 234.336>
LayerCount: 2
Fore
SplineSet
218 316 m 256,0,1
 168 316 168 316 126.5 340.5 c 128,-1,2
 85 365 85 365 60.5 406.5 c 128,-1,3
 36 448 36 448 36 498 c 256,4,5
 36 548 36 548 60.5 589.5 c 128,-1,6
 85 631 85 631 126.5 655.5 c 128,-1,7
 168 680 168 680 218 680 c 256,8,9
 268 680 268 680 309 655.5 c 128,-1,10
 350 631 350 631 374.5 589.5 c 128,-1,11
 399 548 399 548 399 498 c 256,12,13
 399 448 399 448 374.5 406.5 c 128,-1,14
 350 365 350 365 309 340.5 c 128,-1,15
 268 316 268 316 218 316 c 256,0,1
184 0 m 1,16,-1
 652 668 l 1,17,-1
 740 668 l 1,18,-1
 272 0 l 1,19,-1
 184 0 l 1,16,-1
218 391 m 256,20,21
 262 391 262 391 293.5 422.5 c 128,-1,22
 325 454 325 454 325 498 c 256,23,24
 325 542 325 542 293.5 573.5 c 128,-1,25
 262 605 262 605 218 605 c 256,26,27
 174 605 174 605 142 573.5 c 128,-1,28
 110 542 110 542 110 498 c 256,29,30
 110 454 110 454 142 422.5 c 128,-1,31
 174 391 174 391 218 391 c 256,20,21
706 -12 m 256,32,33
 656 -12 656 -12 614.5 12.5 c 128,-1,34
 573 37 573 37 548.5 78 c 128,-1,35
 524 119 524 119 524 169 c 0,36,37
 524 220 524 220 548.5 261 c 128,-1,38
 573 302 573 302 614.5 326.5 c 128,-1,39
 656 351 656 351 706 351 c 256,40,41
 756 351 756 351 797 326.5 c 128,-1,42
 838 302 838 302 862.5 261 c 128,-1,43
 887 220 887 220 887 169 c 0,44,45
 887 119 887 119 862.5 78 c 128,-1,46
 838 37 838 37 797 12.5 c 128,-1,47
 756 -12 756 -12 706 -12 c 256,32,33
1107 -12 m 256,48,49
 1057 -12 1057 -12 1015.5 12.5 c 128,-1,50
 974 37 974 37 949.5 78 c 128,-1,51
 925 119 925 119 925 169 c 0,52,53
 925 220 925 220 949.5 261 c 128,-1,54
 974 302 974 302 1015.5 326.5 c 128,-1,55
 1057 351 1057 351 1107 351 c 256,56,57
 1157 351 1157 351 1198 326.5 c 128,-1,58
 1239 302 1239 302 1263.5 261 c 128,-1,59
 1288 220 1288 220 1288 169 c 0,60,61
 1288 119 1288 119 1263.5 78 c 128,-1,62
 1239 37 1239 37 1198 12.5 c 128,-1,63
 1157 -12 1157 -12 1107 -12 c 256,48,49
706 62 m 0,64,65
 750 62 750 62 781.5 93.5 c 128,-1,66
 813 125 813 125 813 169 c 0,67,68
 813 214 813 214 781.5 245.5 c 128,-1,69
 750 277 750 277 706 277 c 0,70,71
 661 277 661 277 629.5 245.5 c 128,-1,72
 598 214 598 214 598 169 c 0,73,74
 598 125 598 125 629.5 93.5 c 128,-1,75
 661 62 661 62 706 62 c 0,64,65
1107 62 m 0,76,77
 1151 62 1151 62 1182.5 93.5 c 128,-1,78
 1214 125 1214 125 1214 169 c 0,79,80
 1214 214 1214 214 1182.5 245.5 c 128,-1,81
 1151 277 1151 277 1107 277 c 0,82,83
 1062 277 1062 277 1030.5 245.5 c 128,-1,84
 999 214 999 214 999 169 c 0,85,86
 999 125 999 125 1030.5 93.5 c 128,-1,87
 1062 62 1062 62 1107 62 c 0,76,77
EndSplineSet
Validated: 1
EndChar

StartChar: guilsinglleft
Encoding: 275 8249 84
Width: 349
GlyphClass: 1
Flags: W
VStem: 51 247
LayerCount: 2
Fore
SplineSet
199 40 m 1,0,-1
 51 250 l 1,1,-1
 199 461 l 1,2,-1
 298 461 l 1,3,-1
 149 250 l 1,4,-1
 298 40 l 1,5,-1
 199 40 l 1,0,-1
EndSplineSet
Validated: 1
EndChar

StartChar: guilsinglright
Encoding: 276 8250 85
Width: 349
GlyphClass: 1
Flags: W
VStem: 51 247
LayerCount: 2
Fore
SplineSet
51 40 m 1,0,-1
 200 250 l 1,1,-1
 51 461 l 1,2,-1
 151 461 l 1,3,-1
 298 250 l 1,4,-1
 151 40 l 1,5,-1
 51 40 l 1,0,-1
EndSplineSet
Validated: 1
EndChar

StartChar: fraction
Encoding: 277 8260 86
Width: 582
GlyphClass: 1
Flags: W
HStem: 0 21G<13 115.012> 648 20G<466.988 569>
LayerCount: 2
Fore
SplineSet
13 0 m 1,0,-1
 481 668 l 1,1,-1
 569 668 l 1,2,-1
 101 0 l 1,3,-1
 13 0 l 1,0,-1
EndSplineSet
Validated: 1
EndChar

StartChar: ordfeminine
Encoding: 170 170 87
Width: 367
GlyphClass: 1
Flags: W
HStem: 397 51<129.665 221.128> 527 49<131.746 237> 643 49<133.07 225.406>
VStem: 51 70<455.091 511.257> 237 68<469.188 530 578 633.202>
LayerCount: 2
Fore
SplineSet
150 397 m 0,0,1
 104 397 104 397 77.5 419.5 c 128,-1,2
 51 442 51 442 51 478 c 0,3,4
 51 513 51 513 74.5 533 c 128,-1,5
 98 553 98 553 136.5 562.5 c 128,-1,6
 175 572 175 572 220 576 c 2,7,-1
 237 578 l 1,8,9
 237 594 237 594 234.5 609 c 128,-1,10
 232 624 232 624 221 633.5 c 128,-1,11
 210 643 210 643 184 643 c 0,12,13
 162 643 162 643 147 634.5 c 128,-1,14
 132 626 132 626 127 607 c 1,15,-1
 66 625 l 1,16,17
 77 655 77 655 108.5 673.5 c 128,-1,18
 140 692 140 692 187 692 c 0,19,20
 219 692 219 692 245.5 681.5 c 128,-1,21
 272 671 272 671 288.5 645 c 128,-1,22
 305 619 305 619 305 573 c 2,23,-1
 305 491 l 2,24,25
 305 468 305 468 308.5 447 c 128,-1,26
 312 426 312 426 316 403 c 1,27,-1
 258 403 l 1,28,-1
 246 442 l 1,29,30
 233 417 233 417 205 407 c 128,-1,31
 177 397 177 397 150 397 c 0,0,1
170 448 m 0,32,33
 205 448 205 448 221 468.5 c 128,-1,34
 237 489 237 489 237 519 c 2,35,-1
 237 530 l 1,36,-1
 215 527 l 2,37,38
 162 520 162 520 141.5 511 c 128,-1,39
 121 502 121 502 121 483 c 0,40,41
 121 466 121 466 134.5 457 c 128,-1,42
 148 448 148 448 170 448 c 0,32,33
EndSplineSet
Validated: 1
EndChar

StartChar: guillemotleft
Encoding: 171 171 88
Width: 558
GlyphClass: 1
Flags: W
LayerCount: 2
Fore
SplineSet
407 40 m 1,0,-1
 260 251 l 1,1,-1
 407 461 l 1,2,-1
 507 461 l 1,3,-1
 357 251 l 1,4,-1
 507 40 l 1,5,-1
 407 40 l 1,0,-1
199 40 m 1,6,-1
 51 251 l 1,7,-1
 199 461 l 1,8,-1
 298 461 l 1,9,-1
 149 251 l 1,10,-1
 298 40 l 1,11,-1
 199 40 l 1,6,-1
EndSplineSet
Validated: 1
EndChar

StartChar: logicalnot
Encoding: 172 172 89
Width: 598
GlyphClass: 1
Flags: W
HStem: 317 79<51 466>
VStem: 466 81<90 317>
LayerCount: 2
Fore
SplineSet
466 90 m 1,0,-1
 466 317 l 1,1,-1
 51 317 l 1,2,-1
 51 396 l 1,3,-1
 547 396 l 1,4,-1
 547 90 l 1,5,-1
 466 90 l 1,0,-1
EndSplineSet
Validated: 1
EndChar

StartChar: registered
Encoding: 174 174 90
Width: 794
GlyphClass: 1
Flags: W
HStem: -12 61<287.396 506.604> 301 58<338 380> 469 61<338 447.247> 619 61<288.197 505.803>
VStem: 51 62<224.376 442.762> 262 76<162 301 359 469> 472 76<372.484 456.897> 681 62<224.376 442.762>
LayerCount: 2
Fore
SplineSet
397 -12 m 256,0,1
 325 -12 325 -12 262.5 15 c 128,-1,2
 200 42 200 42 152.5 89.5 c 128,-1,3
 105 137 105 137 78 199.5 c 128,-1,4
 51 262 51 262 51 333 c 0,5,6
 51 405 51 405 78 468 c 128,-1,7
 105 531 105 531 152.5 578.5 c 128,-1,8
 200 626 200 626 262.5 653 c 128,-1,9
 325 680 325 680 397 680 c 256,10,11
 469 680 469 680 531.5 653 c 128,-1,12
 594 626 594 626 641.5 578.5 c 128,-1,13
 689 531 689 531 716 468 c 128,-1,14
 743 405 743 405 743 333 c 0,15,16
 743 262 743 262 716 199.5 c 128,-1,17
 689 137 689 137 641.5 89.5 c 128,-1,18
 594 42 594 42 531.5 15 c 128,-1,19
 469 -12 469 -12 397 -12 c 256,0,1
397 49 m 256,20,21
 456 49 456 49 507.5 71 c 128,-1,22
 559 93 559 93 598 132.5 c 128,-1,23
 637 172 637 172 659 223.5 c 128,-1,24
 681 275 681 275 681 333 c 0,25,26
 681 392 681 392 659 443.5 c 128,-1,27
 637 495 637 495 598 534.5 c 128,-1,28
 559 574 559 574 507.5 596.5 c 128,-1,29
 456 619 456 619 397 619 c 256,30,31
 338 619 338 619 286.5 596.5 c 128,-1,32
 235 574 235 574 196 534.5 c 128,-1,33
 157 495 157 495 135 443.5 c 128,-1,34
 113 392 113 392 113 333 c 0,35,36
 113 275 113 275 135 223.5 c 128,-1,37
 157 172 157 172 196 132.5 c 128,-1,38
 235 93 235 93 286.5 71 c 128,-1,39
 338 49 338 49 397 49 c 256,20,21
262 162 m 1,40,-1
 262 530 l 1,41,-1
 374 530 l 2,42,43
 429 530 429 530 467.5 521 c 128,-1,44
 506 512 506 512 527 487.5 c 128,-1,45
 548 463 548 463 548 414 c 0,46,47
 548 399 548 399 542 378.5 c 128,-1,48
 536 358 536 358 517 340 c 128,-1,49
 498 322 498 322 460 311 c 1,50,-1
 568 162 l 1,51,-1
 482 162 l 1,52,-1
 380 301 l 1,53,-1
 338 301 l 1,54,-1
 338 162 l 1,55,-1
 262 162 l 1,40,-1
338 359 m 1,56,-1
 391 359 l 2,57,58
 434 359 434 359 453 373 c 128,-1,59
 472 387 472 387 472 413 c 0,60,61
 472 447 472 447 448 458 c 128,-1,62
 424 469 424 469 386 469 c 2,63,-1
 338 469 l 1,64,-1
 338 359 l 1,56,-1
EndSplineSet
Validated: 1
EndChar

StartChar: macron
Encoding: 175 175 91
Width: 378
GlyphClass: 1
Flags: W
HStem: 601 67<51 327>
VStem: 51 276<601 668>
LayerCount: 2
Fore
SplineSet
51 601 m 1,0,-1
 51 668 l 1,1,-1
 327 668 l 1,2,-1
 327 601 l 1,3,-1
 51 601 l 1,0,-1
EndSplineSet
Validated: 1
EndChar

StartChar: degree
Encoding: 176 176 92
Width: 348
GlyphClass: 1
Flags: W
HStem: 408 63<123.033 225.555> 617 63<122.524 226.061>
VStem: 38 63<493.033 595.555> 247 63<492.524 596.061>
LayerCount: 2
Fore
SplineSet
174 408 m 0,0,1
 137 408 137 408 106 426.5 c 128,-1,2
 75 445 75 445 56.5 476 c 128,-1,3
 38 507 38 507 38 544 c 0,4,5
 38 582 38 582 56.5 612.5 c 128,-1,6
 75 643 75 643 106 661.5 c 128,-1,7
 137 680 137 680 174 680 c 0,8,9
 212 680 212 680 242.5 661.5 c 128,-1,10
 273 643 273 643 291.5 612.5 c 128,-1,11
 310 582 310 582 310 544 c 0,12,13
 310 507 310 507 291.5 476 c 128,-1,14
 273 445 273 445 242.5 426.5 c 128,-1,15
 212 408 212 408 174 408 c 0,0,1
174 471 m 0,16,17
 205 471 205 471 226 492.5 c 128,-1,18
 247 514 247 514 247 544 c 0,19,20
 247 575 247 575 226 596 c 128,-1,21
 205 617 205 617 174 617 c 0,22,23
 144 617 144 617 122.5 596 c 128,-1,24
 101 575 101 575 101 544 c 0,25,26
 101 514 101 514 122.5 492.5 c 128,-1,27
 144 471 144 471 174 471 c 0,16,17
EndSplineSet
Validated: 1
EndChar

StartChar: plusminus
Encoding: 177 177 93
Width: 575
GlyphClass: 1
Flags: W
HStem: 0 79<51 524> 270 79<51 248 327 524> 476 20G<248 327>
VStem: 248 79<124 270 349 496>
LayerCount: 2
Fore
SplineSet
248 124 m 1,0,-1
 248 270 l 1,1,-1
 51 270 l 1,2,-1
 51 349 l 1,3,-1
 248 349 l 1,4,-1
 248 496 l 1,5,-1
 327 496 l 1,6,-1
 327 349 l 1,7,-1
 524 349 l 1,8,-1
 524 270 l 1,9,-1
 327 270 l 1,10,-1
 327 124 l 1,11,-1
 248 124 l 1,0,-1
51 0 m 1,12,-1
 51 79 l 1,13,-1
 524 79 l 1,14,-1
 524 0 l 1,15,-1
 51 0 l 1,12,-1
EndSplineSet
Validated: 1
EndChar

StartChar: uni00B2
Encoding: 178 178 94
Width: 378
GlyphClass: 1
Flags: W
HStem: 403 58<132 327> 677 21G<63 129> 736 50<145.895 235.226>
VStem: 248 70<620.541 723.863>
LayerCount: 2
Fore
SplineSet
51 403 m 1,0,-1
 51 458 l 1,1,2
 143 531 143 531 195.5 583.5 c 128,-1,3
 248 636 248 636 248 682 c 0,4,5
 248 708 248 708 232.5 722 c 128,-1,6
 217 736 217 736 191 736 c 0,7,8
 169 736 169 736 150 722.5 c 128,-1,9
 131 709 131 709 127 677 c 1,10,-1
 63 695 l 1,11,12
 74 737 74 737 108 761.5 c 128,-1,13
 142 786 142 786 194 786 c 0,14,15
 247 786 247 786 282.5 760 c 128,-1,16
 318 734 318 734 318 686 c 0,17,18
 318 631 318 631 269 576 c 128,-1,19
 220 521 220 521 132 461 c 1,20,-1
 327 461 l 1,21,-1
 327 403 l 1,22,-1
 51 403 l 1,0,-1
EndSplineSet
Validated: 1
EndChar

StartChar: uni00B3
Encoding: 179 179 95
Width: 379
GlyphClass: 1
Flags: W
HStem: 397 51<133.479 240.23> 484 20G<51 117> 572 54<149 227.309> 736 50<133.491 235.73>
VStem: 56 61<698.934 718.789> 250 69<640.047 723.818> 259 69<464.38 556.465>
LayerCount: 2
Fore
SplineSet
185 397 m 0,0,1
 132 397 132 397 98 422.5 c 128,-1,2
 64 448 64 448 51 486 c 1,3,-1
 113 504 l 1,4,5
 121 481 121 481 138 464.5 c 128,-1,6
 155 448 155 448 186 448 c 256,7,8
 217 448 217 448 238 464.5 c 128,-1,9
 259 481 259 481 259 509 c 0,10,11
 259 544 259 544 235.5 558 c 128,-1,12
 212 572 212 572 174 572 c 2,13,-1
 149 572 l 1,14,-1
 149 626 l 1,15,-1
 170 626 l 2,16,17
 206 626 206 626 228 639.5 c 128,-1,18
 250 653 250 653 250 683 c 0,19,20
 250 711 250 711 231 723.5 c 128,-1,21
 212 736 212 736 188 736 c 0,22,23
 133 736 133 736 117 683 c 1,24,-1
 56 701 l 1,25,26
 69 741 69 741 104.5 763.5 c 128,-1,27
 140 786 140 786 192 786 c 0,28,29
 223 786 223 786 252 775.5 c 128,-1,30
 281 765 281 765 300 743 c 128,-1,31
 319 721 319 721 319 685 c 0,32,33
 319 658 319 658 304 636 c 128,-1,34
 289 614 289 614 266 602 c 1,35,36
 297 590 297 590 312.5 565 c 128,-1,37
 328 540 328 540 328 511 c 0,38,39
 328 473 328 473 308 447.5 c 128,-1,40
 288 422 288 422 255.5 409.5 c 128,-1,41
 223 397 223 397 185 397 c 0,0,1
EndSplineSet
Validated: 1
EndChar

StartChar: acute
Encoding: 180 180 96
Width: 264
GlyphClass: 1
Flags: W
HStem: 571 136<139.116 146.74>
VStem: 51 162
LayerCount: 2
Fore
SplineSet
51 571 m 1,0,1
 54 575 54 575 66.5 591.5 c 128,-1,2
 79 608 79 608 95 629 c 128,-1,3
 111 650 111 650 125.5 668.5 c 128,-1,4
 140 687 140 687 147 694 c 0,5,6
 157 707 157 707 175 707 c 0,7,8
 191 707 191 707 202 696.5 c 128,-1,9
 213 686 213 686 213 669 c 0,10,11
 213 662 213 662 210.5 655.5 c 128,-1,12
 208 649 208 649 200 641 c 0,13,14
 193 633 193 633 175 617 c 128,-1,15
 157 601 157 601 140.5 587.5 c 128,-1,16
 124 574 124 574 121 571 c 2,17,-1
 51 571 l 1,0,1
EndSplineSet
Validated: 1
EndChar

StartChar: uni03BC
Encoding: 278 956 97
Width: 534
GlyphClass: 1
Flags: W
HStem: -162 21G<68 152> -12 74<188.279 327.995> 0 21G<397.167 466> 477 20G<68 152 382 466>
VStem: 68 84<-162 41 97.1094 497> 382 84<121.907 497> 403 63<0 24>
LayerCount: 2
Fore
SplineSet
68 -162 m 1,0,-1
 68 497 l 1,1,-1
 152 497 l 1,2,-1
 152 191 l 2,3,4
 152 156 152 156 160 126.5 c 128,-1,5
 168 97 168 97 190.5 79.5 c 128,-1,6
 213 62 213 62 256 62 c 0,7,8
 315 62 315 62 348.5 103.5 c 128,-1,9
 382 145 382 145 382 224 c 2,10,-1
 382 497 l 1,11,-1
 466 497 l 1,12,-1
 466 0 l 1,13,-1
 403 0 l 1,14,-1
 382 72 l 1,15,16
 361 36 361 36 334.5 12 c 128,-1,17
 308 -12 308 -12 252 -12 c 0,18,19
 221 -12 221 -12 196 2 c 128,-1,20
 171 16 171 16 152 41 c 1,21,-1
 152 -162 l 1,22,-1
 68 -162 l 1,0,-1
EndSplineSet
Validated: 1
EndChar

StartChar: paragraph
Encoding: 182 182 98
Width: 504
GlyphClass: 1
Flags: W
HStem: -161 21G<185 266 360 441> 601 67<266 360 441 481>
VStem: 36 230<390.174 567.226> 185 81<-161 300.016> 360 81<-161 601>
LayerCount: 2
Fore
SplineSet
185 -161 m 1,0,-1
 185 294 l 1,1,2
 143 303 143 303 109 329.5 c 128,-1,3
 75 356 75 356 55.5 395 c 128,-1,4
 36 434 36 434 36 479 c 0,5,6
 36 531 36 531 61.5 574 c 128,-1,7
 87 617 87 617 130 642.5 c 128,-1,8
 173 668 173 668 225 668 c 2,9,-1
 481 668 l 1,10,-1
 481 601 l 1,11,-1
 441 601 l 1,12,-1
 441 -161 l 1,13,-1
 360 -161 l 1,14,-1
 360 601 l 1,15,-1
 266 601 l 1,16,-1
 266 -161 l 1,17,-1
 185 -161 l 1,0,-1
EndSplineSet
Validated: 1
EndChar

StartChar: periodcentered
Encoding: 183 183 99
Width: 231
GlyphClass: 1
Flags: W
HStem: 183 129<70.5955 160.404>
VStem: 51 129<202.596 292.405>
LayerCount: 2
Fore
SplineSet
115 183 m 0,0,1
 89 183 89 183 70 202 c 128,-1,2
 51 221 51 221 51 248 c 0,3,4
 51 274 51 274 70 293 c 128,-1,5
 89 312 89 312 115 312 c 0,6,7
 142 312 142 312 161 293 c 128,-1,8
 180 274 180 274 180 248 c 0,9,10
 180 221 180 221 161 202 c 128,-1,11
 142 183 142 183 115 183 c 0,0,1
EndSplineSet
Validated: 1
EndChar

StartChar: cedilla
Encoding: 184 184 100
Width: 287
GlyphClass: 1
Flags: W
HStem: -181 41<85.5306 181.106> -81 40<157.123 190.202>
VStem: 194 62<-131.512 -85.7319>
LayerCount: 2
Fore
SplineSet
159 -181 m 0,0,1
 140 -181 140 -181 118.5 -176 c 128,-1,2
 97 -171 97 -171 71 -161 c 1,3,-1
 85 -126 l 1,4,5
 102 -133 102 -133 116.5 -136.5 c 128,-1,6
 131 -140 131 -140 143 -140 c 0,7,8
 169 -140 169 -140 181.5 -129 c 128,-1,9
 194 -118 194 -118 194 -106 c 0,10,11
 194 -96 194 -96 185.5 -88.5 c 128,-1,12
 177 -81 177 -81 158 -81 c 0,13,14
 151 -81 151 -81 143.5 -82.5 c 128,-1,15
 136 -84 136 -84 127 -86 c 0,16,17
 114 -90 114 -90 106.5 -83 c 128,-1,18
 99 -76 99 -76 99 -67 c 0,19,20
 99 -61 99 -61 102 -57 c 2,21,-1
 153 25 l 1,22,-1
 187 4 l 1,23,-1
 157 -45 l 1,24,25
 165 -43 165 -43 172.5 -42 c 128,-1,26
 180 -41 180 -41 187 -41 c 0,27,28
 222 -41 222 -41 239 -59.5 c 128,-1,29
 256 -78 256 -78 256 -102 c 0,30,31
 256 -130 256 -130 232 -155.5 c 128,-1,32
 208 -181 208 -181 159 -181 c 0,0,1
EndSplineSet
Validated: 1
EndChar

StartChar: uni00B9
Encoding: 185 185 101
Width: 252
GlyphClass: 1
Flags: W
HStem: 683 47<51 127.661>
VStem: 134 67<403 683>
LayerCount: 2
Fore
SplineSet
134 403 m 1,0,-1
 134 683 l 1,1,-1
 51 683 l 1,2,-1
 51 730 l 1,3,4
 84 730 84 730 109.5 740.5 c 128,-1,5
 135 751 135 751 145 779 c 1,6,-1
 201 779 l 1,7,-1
 201 403 l 1,8,-1
 134 403 l 1,0,-1
EndSplineSet
Validated: 1
EndChar

StartChar: ordmasculine
Encoding: 186 186 102
Width: 377
GlyphClass: 1
Flags: W
HStem: 398 54<145.439 239.511> 638 54<145.439 239.511>
VStem: 55 69<474.919 615.081> 261 69<474.919 615.081>
LayerCount: 2
Fore
SplineSet
192 398 m 0,0,1
 157 398 157 398 125.5 414 c 128,-1,2
 94 430 94 430 74.5 462.5 c 128,-1,3
 55 495 55 495 55 545 c 256,4,5
 55 595 55 595 74.5 627.5 c 128,-1,6
 94 660 94 660 125.5 676 c 128,-1,7
 157 692 157 692 192 692 c 0,8,9
 228 692 228 692 259.5 676 c 128,-1,10
 291 660 291 660 310.5 627.5 c 128,-1,11
 330 595 330 595 330 545 c 256,12,13
 330 495 330 495 310.5 462.5 c 128,-1,14
 291 430 291 430 259.5 414 c 128,-1,15
 228 398 228 398 192 398 c 0,0,1
192 452 m 0,16,17
 222 452 222 452 241.5 476 c 128,-1,18
 261 500 261 500 261 545 c 256,19,20
 261 590 261 590 241.5 614 c 128,-1,21
 222 638 222 638 192 638 c 0,22,23
 163 638 163 638 143.5 614 c 128,-1,24
 124 590 124 590 124 545 c 256,25,26
 124 500 124 500 143.5 476 c 128,-1,27
 163 452 163 452 192 452 c 0,16,17
EndSplineSet
Validated: 1
EndChar

StartChar: guillemotright
Encoding: 187 187 103
Width: 558
GlyphClass: 1
Flags: W
LayerCount: 2
Fore
SplineSet
260 40 m 1,0,-1
 409 251 l 1,1,-1
 260 461 l 1,2,-1
 359 461 l 1,3,-1
 507 251 l 1,4,-1
 359 40 l 1,5,-1
 260 40 l 1,0,-1
51 40 m 1,6,-1
 200 251 l 1,7,-1
 51 461 l 1,8,-1
 151 461 l 1,9,-1
 298 251 l 1,10,-1
 151 40 l 1,11,-1
 51 40 l 1,6,-1
EndSplineSet
Validated: 1
EndChar

StartChar: onequarter
Encoding: 188 188 104
Width: 822
GlyphClass: 1
Flags: W
HStem: 0 21G<113 215.982 638 706> 86 57<526 638 706 771> 571 48<51 127.661> 648 20G<140 202 566.988 669>
VStem: 134 68<292 571> 638 68<0 86 143 289>
LayerCount: 2
Fore
SplineSet
113 0 m 1,0,-1
 581 668 l 1,1,-1
 669 668 l 1,2,-1
 202 0 l 1,3,-1
 113 0 l 1,0,-1
134 292 m 1,4,-1
 134 571 l 1,5,-1
 51 571 l 1,6,-1
 51 619 l 1,7,8
 84 619 84 619 109.5 629.5 c 128,-1,9
 135 640 135 640 145 668 c 1,10,-1
 202 668 l 1,11,-1
 202 292 l 1,12,-1
 134 292 l 1,4,-1
638 0 m 1,13,-1
 638 86 l 1,14,-1
 453 86 l 1,15,-1
 453 140 l 1,16,-1
 639 376 l 1,17,-1
 706 376 l 1,18,-1
 706 143 l 1,19,-1
 771 143 l 1,20,-1
 771 86 l 1,21,-1
 706 86 l 1,22,-1
 706 0 l 1,23,-1
 638 0 l 1,13,-1
526 143 m 1,24,-1
 638 143 l 1,25,-1
 638 289 l 1,26,-1
 526 143 l 1,24,-1
EndSplineSet
Validated: 1
Ligature2: "'frac' Diagonal Fractions lookup 10 subtable" one slash four
EndChar

StartChar: onehalf
Encoding: 189 189 105
Width: 808
GlyphClass: 1
Flags: W
HStem: 0 58<563 757> 332 50<576.816 666.226> 571 48<51 127.661> 648 20G<140 201 566.988 669>
VStem: 134 67<292 571> 679 70<216.726 320.004>
LayerCount: 2
Fore
SplineSet
113 0 m 1,0,-1
 581 668 l 1,1,-1
 669 668 l 1,2,-1
 201 0 l 1,3,-1
 113 0 l 1,0,-1
134 292 m 1,4,-1
 134 571 l 1,5,-1
 51 571 l 1,6,-1
 51 619 l 1,7,8
 84 619 84 619 109.5 629.5 c 128,-1,9
 135 640 135 640 145 668 c 1,10,-1
 201 668 l 1,11,-1
 201 292 l 1,12,-1
 134 292 l 1,4,-1
482 0 m 1,13,-1
 482 54 l 1,14,15
 574 128 574 128 626.5 180 c 128,-1,16
 679 232 679 232 679 278 c 0,17,18
 679 304 679 304 663.5 318 c 128,-1,19
 648 332 648 332 622 332 c 0,20,21
 600 332 600 332 581 318.5 c 128,-1,22
 562 305 562 305 557 273 c 1,23,-1
 493 292 l 1,24,25
 504 333 504 333 538.5 357.5 c 128,-1,26
 573 382 573 382 625 382 c 0,27,28
 678 382 678 382 713.5 356 c 128,-1,29
 749 330 749 330 749 283 c 0,30,31
 749 227 749 227 700 172 c 128,-1,32
 651 117 651 117 563 58 c 1,33,-1
 757 58 l 1,34,-1
 757 0 l 1,35,-1
 482 0 l 1,13,-1
EndSplineSet
Validated: 1
Ligature2: "'frac' Diagonal Fractions lookup 10 subtable" one slash two
EndChar

StartChar: threequarters
Encoding: 190 190 106
Width: 864
GlyphClass: 1
Flags: W
HStem: 0 21G<155 257.042 680 749> 86 57<568 680 749 813> 291 51<132.568 240.23> 466 53<149 234.761> 629 51<134.548 235.271> 648 20G<609.958 712>
VStem: 250 69<532.919 616.658> 259 69<358.38 450.465> 680 69<0 86 143 289>
LayerCount: 2
Fore
SplineSet
185 291 m 0,0,1
 132 291 132 291 98 316.5 c 128,-1,2
 64 342 64 342 51 380 c 1,3,-1
 113 398 l 1,4,5
 121 374 121 374 138 358 c 128,-1,6
 155 342 155 342 186 342 c 256,7,8
 217 342 217 342 238 358.5 c 128,-1,9
 259 375 259 375 259 403 c 0,10,11
 259 438 259 438 235.5 452 c 128,-1,12
 212 466 212 466 168 466 c 2,13,-1
 149 466 l 1,14,-1
 149 519 l 1,15,-1
 167 519 l 2,16,17
 250 519 250 519 250 576 c 0,18,19
 250 603 250 603 231 616 c 128,-1,20
 212 629 212 629 188 629 c 0,21,22
 160 629 160 629 142.5 615 c 128,-1,23
 125 601 125 601 117 576 c 1,24,-1
 56 594 l 1,25,26
 69 634 69 634 104.5 657 c 128,-1,27
 140 680 140 680 192 680 c 0,28,29
 223 680 223 680 252 669.5 c 128,-1,30
 281 659 281 659 300 636.5 c 128,-1,31
 319 614 319 614 319 578 c 0,32,33
 319 550 319 550 304 528.5 c 128,-1,34
 289 507 289 507 266 495 c 1,35,36
 297 484 297 484 312.5 459 c 128,-1,37
 328 434 328 434 328 405 c 0,38,39
 328 367 328 367 308 341.5 c 128,-1,40
 288 316 288 316 255.5 303.5 c 128,-1,41
 223 291 223 291 185 291 c 0,0,1
155 0 m 1,42,-1
 624 668 l 1,43,-1
 712 668 l 1,44,-1
 243 0 l 1,45,-1
 155 0 l 1,42,-1
680 0 m 1,46,-1
 680 86 l 1,47,-1
 495 86 l 1,48,-1
 495 140 l 1,49,-1
 681 376 l 1,50,-1
 749 376 l 1,51,-1
 749 143 l 1,52,-1
 813 143 l 1,53,-1
 813 86 l 1,54,-1
 749 86 l 1,55,-1
 749 0 l 1,56,-1
 680 0 l 1,46,-1
568 143 m 1,57,-1
 680 143 l 1,58,-1
 680 289 l 1,59,-1
 568 143 l 1,57,-1
EndSplineSet
Validated: 1
Ligature2: "'frac' Diagonal Fractions lookup 10 subtable" three slash four
EndChar

StartChar: less
Encoding: 60 60 107
Width: 549
GlyphClass: 1
Flags: W
HStem: 0 21G<466.587 511> 476 20G<466.587 511>
LayerCount: 2
Fore
SplineSet
511 0 m 1,0,-1
 38 213 l 1,1,-1
 38 283 l 1,2,-1
 511 496 l 1,3,-1
 511 406 l 1,4,-1
 143 248 l 1,5,-1
 511 90 l 1,6,-1
 511 0 l 1,0,-1
EndSplineSet
Validated: 1
EndChar

StartChar: equal
Encoding: 61 61 108
Width: 598
GlyphClass: 1
Flags: W
HStem: 121 79<51 547> 307 79<51 547>
LayerCount: 2
Fore
SplineSet
51 307 m 1,0,-1
 51 386 l 1,1,-1
 547 386 l 1,2,-1
 547 307 l 1,3,-1
 51 307 l 1,0,-1
51 121 m 1,4,-1
 51 200 l 1,5,-1
 547 200 l 1,6,-1
 547 121 l 1,7,-1
 51 121 l 1,4,-1
EndSplineSet
Validated: 1
EndChar

StartChar: greater
Encoding: 62 62 109
Width: 549
GlyphClass: 1
Flags: W
HStem: 0 21G<38 82.4131> 476 20G<38 82.4131>
LayerCount: 2
Fore
SplineSet
38 0 m 1,0,-1
 38 90 l 1,1,-1
 406 248 l 1,2,-1
 38 406 l 1,3,-1
 38 496 l 1,4,-1
 511 283 l 1,5,-1
 511 213 l 1,6,-1
 38 0 l 1,0,-1
EndSplineSet
Validated: 1
EndChar

StartChar: question
Encoding: 63 63 110
Width: 516
GlyphClass: 1
Flags: W
HStem: -12 129<180.626 269.92> 501 21G<48.6957 122.5> 610 70<174.591 337.457>
VStem: 38 82<522.037 554.064> 160 129<6.56494 96.889> 180 86<190 286.554> 380 88<443.093 570.409>
LayerCount: 2
Fore
SplineSet
180 190 m 1,0,-1
 180 227 l 2,1,2
 180 266 180 266 192.5 292.5 c 128,-1,3
 205 319 205 319 230.5 341 c 128,-1,4
 256 363 256 363 294 387 c 0,5,6
 330 410 330 410 355 439 c 128,-1,7
 380 468 380 468 380 508 c 0,8,9
 380 556 380 556 345 583 c 128,-1,10
 310 610 310 610 255 610 c 0,11,12
 210 610 210 610 182 593.5 c 128,-1,13
 154 577 154 577 139.5 552 c 128,-1,14
 125 527 125 527 120 501 c 1,15,-1
 38 524 l 1,16,17
 53 596 53 596 113.5 638 c 128,-1,18
 174 680 174 680 259 680 c 0,19,20
 311 680 311 680 359 662.5 c 128,-1,21
 407 645 407 645 437.5 609 c 128,-1,22
 468 573 468 573 468 516 c 0,23,24
 468 473 468 473 450 438 c 128,-1,25
 432 403 432 403 403.5 376 c 128,-1,26
 375 349 375 349 343 328 c 0,27,28
 315 310 315 310 298 296 c 128,-1,29
 281 282 281 282 273.5 266 c 128,-1,30
 266 250 266 250 266 224 c 2,31,-1
 266 190 l 1,32,-1
 180 190 l 1,0,-1
225 -12 m 0,33,34
 200 -12 200 -12 180 6 c 128,-1,35
 160 24 160 24 160 52 c 0,36,37
 160 79 160 79 179 98 c 128,-1,38
 198 117 198 117 225 117 c 256,39,40
 252 117 252 117 270.5 97.5 c 128,-1,41
 289 78 289 78 289 52 c 256,42,43
 289 26 289 26 270 7 c 128,-1,44
 251 -12 251 -12 225 -12 c 0,33,34
EndSplineSet
Validated: 1
EndChar

StartChar: at
Encoding: 64 64 111
Width: 776
GlyphClass: 1
Flags: W
HStem: -12 61<284.985 501.617> 155 74<320.423 416.584 538.64 626.779> 445 74<336.263 449> 618 62<284.896 504.294>
VStem: 48 62<223.608 445.127> 216 84<249.6 406.108> 449 81<262.089 444.031> 666 62<274.388 463.615>
LayerCount: 2
Fore
SplineSet
396 -12 m 0,0,1
 330 -12 330 -12 267.5 13 c 128,-1,2
 205 38 205 38 155.5 83.5 c 128,-1,3
 106 129 106 129 77 193 c 128,-1,4
 48 257 48 257 48 335 c 0,5,6
 48 406 48 406 75 468.5 c 128,-1,7
 102 531 102 531 149.5 578.5 c 128,-1,8
 197 626 197 626 259.5 653 c 128,-1,9
 322 680 322 680 394 680 c 0,10,11
 451 680 451 680 509.5 659.5 c 128,-1,12
 568 639 568 639 617.5 598.5 c 128,-1,13
 667 558 667 558 697.5 499.5 c 128,-1,14
 728 441 728 441 728 366 c 0,15,16
 728 289 728 289 704.5 242.5 c 128,-1,17
 681 196 681 196 645.5 175.5 c 128,-1,18
 610 155 610 155 573 155 c 0,19,20
 539 155 539 155 510 171 c 128,-1,21
 481 187 481 187 471 213 c 1,22,23
 447 184 447 184 416.5 169.5 c 128,-1,24
 386 155 386 155 355 155 c 0,25,26
 320 155 320 155 288 173.5 c 128,-1,27
 256 192 256 192 236 228.5 c 128,-1,28
 216 265 216 265 216 318 c 0,29,30
 216 394 216 394 244 438 c 128,-1,31
 272 482 272 482 316.5 500.5 c 128,-1,32
 361 519 361 519 411 519 c 0,33,34
 441 519 441 519 471.5 513.5 c 128,-1,35
 502 508 502 508 530 499 c 1,36,-1
 530 273 l 2,37,38
 530 251 530 251 542.5 240 c 128,-1,39
 555 229 555 229 573 229 c 0,40,41
 604 229 604 229 624.5 248.5 c 128,-1,42
 645 268 645 268 655.5 299.5 c 128,-1,43
 666 331 666 331 666 366 c 0,44,45
 666 417 666 417 645 462.5 c 128,-1,46
 624 508 624 508 586.5 543 c 128,-1,47
 549 578 549 578 500 598 c 128,-1,48
 451 618 451 618 394 618 c 0,49,50
 336 618 336 618 284.5 596 c 128,-1,51
 233 574 233 574 193.5 535.5 c 128,-1,52
 154 497 154 497 132 445.5 c 128,-1,53
 110 394 110 394 110 335 c 0,54,55
 110 271 110 271 133.5 218.5 c 128,-1,56
 157 166 157 166 197 128 c 128,-1,57
 237 90 237 90 288 69.5 c 128,-1,58
 339 49 339 49 394 49 c 0,59,60
 466 49 466 49 530 85 c 1,61,-1
 530 16 l 1,62,63
 498 2 498 2 464 -5 c 128,-1,64
 430 -12 430 -12 396 -12 c 0,0,1
367 229 m 0,65,66
 396 229 396 229 422.5 256.5 c 128,-1,67
 449 284 449 284 449 338 c 2,68,-1
 449 441 l 1,69,70
 439 443 439 443 427.5 444 c 128,-1,71
 416 445 416 445 404 445 c 0,72,73
 379 445 379 445 355 435 c 128,-1,74
 331 425 331 425 315.5 396.5 c 128,-1,75
 300 368 300 368 300 313 c 0,76,77
 300 270 300 270 320.5 249.5 c 128,-1,78
 341 229 341 229 367 229 c 0,65,66
EndSplineSet
Validated: 1
EndChar

StartChar: colon
Encoding: 58 58 112
Width: 201
GlyphClass: 1
Flags: W
HStem: -12 129<55.5955 145.404> 375 129<55.5955 145.404>
VStem: 36 129<7.59546 97.4043 394.596 484.405>
LayerCount: 2
Fore
SplineSet
100 375 m 0,0,1
 74 375 74 375 55 394 c 128,-1,2
 36 413 36 413 36 440 c 0,3,4
 36 466 36 466 55 485 c 128,-1,5
 74 504 74 504 100 504 c 0,6,7
 127 504 127 504 146 485 c 128,-1,8
 165 466 165 466 165 440 c 0,9,10
 165 413 165 413 146 394 c 128,-1,11
 127 375 127 375 100 375 c 0,0,1
100 -12 m 0,12,13
 74 -12 74 -12 55 7 c 128,-1,14
 36 26 36 26 36 52 c 0,15,16
 36 79 36 79 55 98 c 128,-1,17
 74 117 74 117 100 117 c 0,18,19
 127 117 127 117 146 98 c 128,-1,20
 165 79 165 79 165 52 c 0,21,22
 165 26 165 26 146 7 c 128,-1,23
 127 -12 127 -12 100 -12 c 0,12,13
EndSplineSet
Validated: 1
EndChar

StartChar: semicolon
Encoding: 59 59 113
Width: 201
GlyphClass: 1
Flags: W
HStem: 375 129<55.5955 145.404>
VStem: 36 129<5.35938 97.4045 394.596 484.405>
LayerCount: 2
Fore
SplineSet
100 375 m 0,0,1
 74 375 74 375 55 394 c 128,-1,2
 36 413 36 413 36 440 c 0,3,4
 36 466 36 466 55 485 c 128,-1,5
 74 504 74 504 100 504 c 0,6,7
 127 504 127 504 146 485 c 128,-1,8
 165 466 165 466 165 440 c 0,9,10
 165 413 165 413 146 394 c 128,-1,11
 127 375 127 375 100 375 c 0,0,1
43 -133 m 1,12,-1
 90 -11 l 1,13,14
 67 -7 67 -7 51.5 11 c 128,-1,15
 36 29 36 29 36 53 c 0,16,17
 36 79 36 79 55 98 c 128,-1,18
 74 117 74 117 100 117 c 0,19,20
 127 117 127 117 146 98 c 128,-1,21
 165 79 165 79 165 53 c 0,22,23
 165 41 165 41 160 28 c 2,24,-1
 98 -133 l 1,25,-1
 43 -133 l 1,12,-1
EndSplineSet
Validated: 1
EndChar

StartChar: bracketleft
Encoding: 91 91 114
Width: 311
GlyphClass: 1
Flags: W
HStem: -161 74<155 280> 594 74<155 280>
VStem: 74 206<-161 -87 594 668> 74 81<-87 594>
LayerCount: 2
Fore
SplineSet
74 -161 m 1,0,-1
 74 668 l 1,1,-1
 280 668 l 1,2,-1
 280 594 l 1,3,-1
 155 594 l 1,4,-1
 155 -87 l 1,5,-1
 280 -87 l 1,6,-1
 280 -161 l 1,7,-1
 74 -161 l 1,0,-1
EndSplineSet
Validated: 1
EndChar

StartChar: backslash
Encoding: 92 92 115
Width: 373
GlyphClass: 1
Flags: W
HStem: 0 21G<265.216 360> 648 20G<13 107.784>
LayerCount: 2
Fore
SplineSet
273 0 m 1,0,-1
 13 668 l 1,1,-1
 100 668 l 1,2,-1
 360 0 l 1,3,-1
 273 0 l 1,0,-1
EndSplineSet
Validated: 1
EndChar

StartChar: bracketright
Encoding: 93 93 116
Width: 311
GlyphClass: 1
Flags: W
HStem: -161 74<31 156> 594 74<31 156>
VStem: 31 206<-161 -87 594 668> 156 81<-87 594>
LayerCount: 2
Fore
SplineSet
31 -161 m 1,0,-1
 31 -87 l 1,1,-1
 156 -87 l 1,2,-1
 156 594 l 1,3,-1
 31 594 l 1,4,-1
 31 668 l 1,5,-1
 237 668 l 1,6,-1
 237 -161 l 1,7,-1
 31 -161 l 1,0,-1
EndSplineSet
Validated: 1
EndChar

StartChar: asciicircum
Encoding: 94 94 117
Width: 548
GlyphClass: 1
Flags: W
HStem: 648 20G<225.636 322.364>
LayerCount: 2
Fore
SplineSet
51 311 m 1,0,-1
 236 668 l 1,1,-1
 312 668 l 1,2,-1
 497 311 l 1,3,-1
 408 311 l 1,4,-1
 274 569 l 1,5,-1
 140 311 l 1,6,-1
 51 311 l 1,0,-1
EndSplineSet
Validated: 1
EndChar

StartChar: underscore
Encoding: 95 95 118
Width: 392
GlyphClass: 1
Flags: W
HStem: -79 79<8 384>
LayerCount: 2
Fore
SplineSet
8 -79 m 1,0,-1
 8 0 l 1,1,-1
 384 0 l 1,2,-1
 384 -79 l 1,3,-1
 8 -79 l 1,0,-1
EndSplineSet
Validated: 1
EndChar

StartChar: grave
Encoding: 96 96 119
Width: 264
GlyphClass: 1
Flags: W
HStem: 571 136
VStem: 51 162
LayerCount: 2
Fore
SplineSet
143 571 m 1,0,1
 124 587 124 587 103 604.5 c 128,-1,2
 82 622 82 622 68 636 c 0,3,4
 58 647 58 647 54.5 654.5 c 128,-1,5
 51 662 51 662 51 669 c 0,6,7
 51 685 51 685 62 696 c 128,-1,8
 73 707 73 707 89 707 c 0,9,10
 97 707 97 707 105 704 c 128,-1,11
 113 701 113 701 120 692 c 2,12,-1
 213 571 l 1,13,-1
 143 571 l 1,0,1
EndSplineSet
Validated: 1
EndChar

StartChar: exclam
Encoding: 33 33 120
Width: 277
GlyphClass: 1
Flags: W
HStem: -12 129<93.5955 183.404> 648 20G<94 183>
VStem: 74 129<7.59546 97.4043> 94 89<378.944 668>
LayerCount: 2
Fore
SplineSet
112 195 m 1,0,-1
 94 496 l 1,1,-1
 94 668 l 1,2,-1
 183 668 l 1,3,-1
 183 496 l 1,4,-1
 165 195 l 1,5,-1
 112 195 l 1,0,-1
138 -12 m 0,6,7
 112 -12 112 -12 93 7 c 128,-1,8
 74 26 74 26 74 52 c 0,9,10
 74 79 74 79 93 98 c 128,-1,11
 112 117 112 117 138 117 c 0,12,13
 165 117 165 117 184 98 c 128,-1,14
 203 79 203 79 203 52 c 0,15,16
 203 26 203 26 184 7 c 128,-1,17
 165 -12 165 -12 138 -12 c 0,6,7
EndSplineSet
Validated: 1
EndChar

StartChar: quotedbl
Encoding: 34 34 121
Width: 297
GlyphClass: 1
Flags: W
HStem: 447 221<52 104 193 245>
VStem: 52 52<447 557.5> 193 52<447 557.5>
LayerCount: 2
Fore
SplineSet
193 447 m 1,0,-1
 179 668 l 1,1,-1
 259 668 l 1,2,-1
 245 447 l 1,3,-1
 193 447 l 1,0,-1
52 447 m 1,4,-1
 38 668 l 1,5,-1
 118 668 l 1,6,-1
 104 447 l 1,7,-1
 52 447 l 1,4,-1
EndSplineSet
Validated: 1
EndChar

StartChar: numbersign
Encoding: 35 35 122
Width: 651
GlyphClass: 1
Flags: W
HStem: 0 21G<135 219.791 340 424.791> 172 81<47 160 253 364 458 570> 415 81<81 194 287 398 492 604> 648 20G<226.209 311 431.209 516>
LayerCount: 2
Fore
SplineSet
135 0 m 1,0,-1
 160 172 l 1,1,-1
 36 172 l 1,2,-1
 47 253 l 1,3,-1
 171 253 l 1,4,-1
 194 415 l 1,5,-1
 70 415 l 1,6,-1
 81 496 l 1,7,-1
 205 496 l 1,8,-1
 229 668 l 1,9,-1
 311 668 l 1,10,-1
 287 496 l 1,11,-1
 410 496 l 1,12,-1
 434 668 l 1,13,-1
 516 668 l 1,14,-1
 492 496 l 1,15,-1
 615 496 l 1,16,-1
 604 415 l 1,17,-1
 480 415 l 1,18,-1
 458 253 l 1,19,-1
 581 253 l 1,20,-1
 570 172 l 1,21,-1
 446 172 l 1,22,-1
 422 0 l 1,23,-1
 340 0 l 1,24,-1
 364 172 l 1,25,-1
 241 172 l 1,26,-1
 217 0 l 1,27,-1
 135 0 l 1,0,-1
253 253 m 1,28,-1
 376 253 l 1,29,-1
 398 415 l 1,30,-1
 275 415 l 1,31,-1
 253 253 l 1,28,-1
EndSplineSet
Validated: 1
EndChar

StartChar: dollar
Encoding: 36 36 123
Width: 590
GlyphClass: 1
Flags: W
HStem: -11 80<195.625 265 315 400.913> 600 79<189.907 265 315 382.942>
VStem: 45 96<443.61 558.891> 265 50<-87 -12 69 297 398 599 676.827 742> 455 97<118.738 242.655>
LayerCount: 2
Fore
SplineSet
265 -87 m 1,0,-1
 265 -11 l 1,1,2
 179 -3 179 -3 121 38 c 128,-1,3
 63 79 63 79 38 146 c 1,4,-1
 125 172 l 1,5,6
 159 83 159 83 265 69 c 1,7,-1
 265 308 l 1,8,-1
 229 315 l 2,9,10
 183 324 183 324 141 345.5 c 128,-1,11
 99 367 99 367 72 404.5 c 128,-1,12
 45 442 45 442 45 498 c 0,13,14
 45 542 45 542 64.5 575 c 128,-1,15
 84 608 84 608 116.5 630 c 128,-1,16
 149 652 149 652 187.5 664 c 128,-1,17
 226 676 226 676 265 679 c 1,18,-1
 265 742 l 1,19,-1
 315 742 l 1,20,-1
 315 679 l 1,21,22
 382 674 382 674 437.5 644 c 128,-1,23
 493 614 493 614 521 555 c 1,24,-1
 435 530 l 1,25,26
 416 562 416 562 383 578.5 c 128,-1,27
 350 595 350 595 315 599 c 1,28,-1
 315 386 l 1,29,-1
 327 383 l 2,30,31
 365 373 365 373 404.5 360 c 128,-1,32
 444 347 444 347 477.5 326 c 128,-1,33
 511 305 511 305 531.5 272 c 128,-1,34
 552 239 552 239 552 188 c 0,35,36
 552 126 552 126 519 82 c 128,-1,37
 486 38 486 38 432 14.5 c 128,-1,38
 378 -9 378 -9 315 -12 c 1,39,-1
 315 -87 l 1,40,-1
 265 -87 l 1,0,-1
265 398 m 1,41,-1
 265 600 l 1,42,43
 239 598 239 598 210 587.5 c 128,-1,44
 181 577 181 577 161 557 c 128,-1,45
 141 537 141 537 141 503 c 0,46,47
 141 459 141 459 172.5 434.5 c 128,-1,48
 204 410 204 410 250 401 c 2,49,-1
 265 398 l 1,41,-1
315 68 m 1,50,51
 382 72 382 72 418.5 103 c 128,-1,52
 455 134 455 134 455 180 c 0,53,54
 455 232 455 232 416 257.5 c 128,-1,55
 377 283 377 283 315 297 c 1,56,-1
 315 68 l 1,50,51
EndSplineSet
Validated: 1
EndChar

StartChar: percent
Encoding: 37 37 124
Width: 923
GlyphClass: 1
Flags: W
HStem: -12 74<640.997 769.714> 0 21G<184 286.012> 277 75<640.997 770.399> 317 74<153.311 282.399> 606 74<152.997 282.399> 648 20G<637.988 740>
VStem: 36 74<434.286 563.336> 325 74<433.601 563.336> 524 74<105.311 234.518> 813 74<105.311 234.518>
LayerCount: 2
Fore
SplineSet
218 317 m 256,0,1
 168 317 168 317 126.5 341.5 c 128,-1,2
 85 366 85 366 60.5 407 c 128,-1,3
 36 448 36 448 36 498 c 0,4,5
 36 549 36 549 60.5 590 c 128,-1,6
 85 631 85 631 126.5 655.5 c 128,-1,7
 168 680 168 680 218 680 c 256,8,9
 268 680 268 680 309 655.5 c 128,-1,10
 350 631 350 631 374.5 590 c 128,-1,11
 399 549 399 549 399 498 c 0,12,13
 399 448 399 448 374.5 407 c 128,-1,14
 350 366 350 366 309 341.5 c 128,-1,15
 268 317 268 317 218 317 c 256,0,1
184 0 m 1,16,-1
 652 668 l 1,17,-1
 740 668 l 1,18,-1
 272 0 l 1,19,-1
 184 0 l 1,16,-1
218 391 m 256,20,21
 262 391 262 391 293.5 422.5 c 128,-1,22
 325 454 325 454 325 498 c 0,23,24
 325 543 325 543 293.5 574.5 c 128,-1,25
 262 606 262 606 218 606 c 0,26,27
 173 606 173 606 141.5 574.5 c 128,-1,28
 110 543 110 543 110 498 c 0,29,30
 110 454 110 454 142 422.5 c 128,-1,31
 174 391 174 391 218 391 c 256,20,21
706 -12 m 256,32,33
 656 -12 656 -12 614.5 12.5 c 128,-1,34
 573 37 573 37 548.5 78.5 c 128,-1,35
 524 120 524 120 524 170 c 256,36,37
 524 220 524 220 548.5 261.5 c 128,-1,38
 573 303 573 303 614.5 327.5 c 128,-1,39
 656 352 656 352 706 352 c 256,40,41
 756 352 756 352 797 327.5 c 128,-1,42
 838 303 838 303 862.5 261.5 c 128,-1,43
 887 220 887 220 887 170 c 256,44,45
 887 120 887 120 862.5 78.5 c 128,-1,46
 838 37 838 37 797 12.5 c 128,-1,47
 756 -12 756 -12 706 -12 c 256,32,33
706 62 m 0,48,49
 750 62 750 62 781.5 94 c 128,-1,50
 813 126 813 126 813 170 c 256,51,52
 813 214 813 214 781.5 245.5 c 128,-1,53
 750 277 750 277 706 277 c 0,54,55
 661 277 661 277 629.5 245.5 c 128,-1,56
 598 214 598 214 598 170 c 256,57,58
 598 126 598 126 629.5 94 c 128,-1,59
 661 62 661 62 706 62 c 0,48,49
EndSplineSet
Validated: 1
EndChar

StartChar: ampersand
Encoding: 38 38 125
Width: 701
GlyphClass: 1
Flags: W
HStem: -12 74<183.339 359.802> 0 21G<555.149 693> 606 74<247.634 386.348>
VStem: 36 90<117.018 261.461> 133 90<478.343 585.228> 407 82<471.55 585.654> 519 87<252.165 361>
LayerCount: 2
Fore
SplineSet
261 -12 m 0,0,1
 192 -12 192 -12 141.5 14 c 128,-1,2
 91 40 91 40 63.5 84 c 128,-1,3
 36 128 36 128 36 183 c 0,4,5
 36 260 36 260 83 310.5 c 128,-1,6
 130 361 130 361 207 387 c 1,7,8
 173 425 173 425 153 462 c 128,-1,9
 133 499 133 499 133 538 c 0,10,11
 133 603 133 603 184.5 641.5 c 128,-1,12
 236 680 236 680 315 680 c 0,13,14
 356 680 356 680 396 666.5 c 128,-1,15
 436 653 436 653 462.5 621.5 c 128,-1,16
 489 590 489 590 489 536 c 0,17,18
 489 473 489 473 450 431 c 128,-1,19
 411 389 411 389 349 363 c 1,20,-1
 485 219 l 1,21,22
 498 250 498 250 507 285.5 c 128,-1,23
 516 321 516 321 519 361 c 1,24,-1
 606 361 l 1,25,26
 602 307 602 307 586.5 254.5 c 128,-1,27
 571 202 571 202 544 157 c 1,28,-1
 693 0 l 1,29,-1
 574 0 l 1,30,-1
 492 87 l 1,31,32
 449 41 449 41 391 14.5 c 128,-1,33
 333 -12 333 -12 261 -12 c 0,0,1
298 415 m 1,34,35
 347 433 347 433 377 462 c 128,-1,36
 407 491 407 491 407 531 c 0,37,38
 407 572 407 572 380.5 589 c 128,-1,39
 354 606 354 606 317 606 c 256,40,41
 280 606 280 606 251.5 590 c 128,-1,42
 223 574 223 574 223 540 c 0,43,44
 223 513 223 513 239.5 486.5 c 128,-1,45
 256 460 256 460 274.5 441 c 128,-1,46
 293 422 293 422 298 415 c 1,34,35
261 62 m 0,47,48
 314 62 314 62 359 83 c 128,-1,49
 404 104 404 104 438 143 c 1,50,-1
 257 334 l 1,51,52
 197 313 197 313 161.5 278 c 128,-1,53
 126 243 126 243 126 187 c 0,54,55
 126 149 126 149 145 120.5 c 128,-1,56
 164 92 164 92 195 77 c 128,-1,57
 226 62 226 62 261 62 c 0,47,48
EndSplineSet
Validated: 1
EndChar

StartChar: quotesingle
Encoding: 39 39 126
Width: 156
GlyphClass: 1
Flags: W
HStem: 447 221<52 104>
VStem: 52 52<447 557.5>
LayerCount: 2
Fore
SplineSet
52 447 m 1,0,-1
 38 668 l 1,1,-1
 118 668 l 1,2,-1
 104 447 l 1,3,-1
 52 447 l 1,0,-1
EndSplineSet
Validated: 1
EndChar

StartChar: parenleft
Encoding: 40 40 127
Width: 296
GlyphClass: 1
Flags: W
HStem: -161 21G<152.5 263> 648 20G<130.5 233>
VStem: 48 74<99.0901 458.283>
LayerCount: 2
Fore
SplineSet
187 -161 m 1,0,1
 118 -63 118 -63 83 50.5 c 128,-1,2
 48 164 48 164 48 280 c 0,3,4
 48 382 48 382 75.5 481 c 128,-1,5
 103 580 103 580 158 668 c 1,6,-1
 233 668 l 1,7,8
 184 598 184 598 153 496 c 128,-1,9
 122 394 122 394 122 278 c 0,10,11
 122 169 122 169 154.5 55.5 c 128,-1,12
 187 -58 187 -58 263 -161 c 1,13,-1
 187 -161 l 1,0,1
EndSplineSet
Validated: 1
EndChar

StartChar: parenright
Encoding: 41 41 128
Width: 296
GlyphClass: 1
Flags: W
HStem: -161 21G<33 144> 648 20G<64 167>
VStem: 175 73<99.449 461.487>
LayerCount: 2
Fore
SplineSet
33 -161 m 1,0,1
 109 -58 109 -58 142 56 c 128,-1,2
 175 170 175 170 175 279 c 0,3,4
 175 394 175 394 144.5 496 c 128,-1,5
 114 598 114 598 64 668 c 1,6,-1
 139 668 l 1,7,8
 195 580 195 580 221.5 481 c 128,-1,9
 248 382 248 382 248 281 c 0,10,11
 248 164 248 164 213 50.5 c 128,-1,12
 178 -63 178 -63 110 -161 c 1,13,-1
 33 -161 l 1,0,1
EndSplineSet
Validated: 1
EndChar

StartChar: asterisk
Encoding: 42 42 129
Width: 429
GlyphClass: 1
Flags: W
HStem: 388 280
VStem: 185 57<562 668>
LayerCount: 2
Fore
SplineSet
151 388 m 1,0,-1
 105 422 l 1,1,-1
 167 508 l 1,2,-1
 66 540 l 1,3,-1
 84 595 l 1,4,-1
 185 562 l 1,5,-1
 185 668 l 1,6,-1
 242 668 l 1,7,-1
 242 562 l 1,8,-1
 343 595 l 1,9,-1
 361 540 l 1,10,-1
 259 508 l 1,11,-1
 322 422 l 1,12,-1
 276 388 l 1,13,-1
 213 474 l 1,14,-1
 151 388 l 1,0,-1
EndSplineSet
Validated: 1
EndChar

StartChar: plus
Encoding: 43 43 130
Width: 598
GlyphClass: 1
Flags: W
HStem: 0 21G<259 339> 208 80<51 259 339 547> 476 20G<259 339>
VStem: 259 80<0 208 288 496>
LayerCount: 2
Fore
SplineSet
259 0 m 1,0,-1
 259 208 l 1,1,-1
 51 208 l 1,2,-1
 51 288 l 1,3,-1
 259 288 l 1,4,-1
 259 496 l 1,5,-1
 339 496 l 1,6,-1
 339 288 l 1,7,-1
 547 288 l 1,8,-1
 547 208 l 1,9,-1
 339 208 l 1,10,-1
 339 0 l 1,11,-1
 259 0 l 1,0,-1
EndSplineSet
Validated: 1
EndChar

StartChar: comma
Encoding: 44 44 131
Width: 201
GlyphClass: 1
Flags: W
HStem: -133 250<90.4961 98>
VStem: 36 129<5.35938 97.4045>
LayerCount: 2
Fore
SplineSet
43 -133 m 1,0,-1
 90 -11 l 1,1,2
 67 -7 67 -7 51.5 11 c 128,-1,3
 36 29 36 29 36 53 c 0,4,5
 36 79 36 79 55 98 c 128,-1,6
 74 117 74 117 100 117 c 0,7,8
 127 117 127 117 146 98 c 128,-1,9
 165 79 165 79 165 53 c 0,10,11
 165 41 165 41 160 28 c 2,12,-1
 98 -133 l 1,13,-1
 43 -133 l 1,0,-1
EndSplineSet
Validated: 1
EndChar

StartChar: hyphen
Encoding: 45 45 132
Width: 364
GlyphClass: 1
Flags: W
HStem: 208 81<36 328>
VStem: 36 292<208 289>
LayerCount: 2
Fore
SplineSet
36 208 m 1,0,-1
 36 289 l 1,1,-1
 328 289 l 1,2,-1
 328 208 l 1,3,-1
 36 208 l 1,0,-1
EndSplineSet
Validated: 1
EndChar

StartChar: period
Encoding: 46 46 133
Width: 201
GlyphClass: 1
Flags: W
HStem: -12 129<55.5955 145.404>
VStem: 36 129<7.59546 97.4043>
LayerCount: 2
Fore
SplineSet
100 -12 m 0,0,1
 74 -12 74 -12 55 7 c 128,-1,2
 36 26 36 26 36 52 c 0,3,4
 36 79 36 79 55 98 c 128,-1,5
 74 117 74 117 100 117 c 0,6,7
 127 117 127 117 146 98 c 128,-1,8
 165 79 165 79 165 52 c 0,9,10
 165 26 165 26 146 7 c 128,-1,11
 127 -12 127 -12 100 -12 c 0,0,1
EndSplineSet
Validated: 1
EndChar

StartChar: slash
Encoding: 47 47 134
Width: 373
GlyphClass: 1
Flags: W
HStem: 0 21G<13 107.784> 648 20G<265.216 360>
LayerCount: 2
Fore
SplineSet
13 0 m 1,0,-1
 273 668 l 1,1,-1
 360 668 l 1,2,-1
 100 0 l 1,3,-1
 13 0 l 1,0,-1
EndSplineSet
Validated: 1
EndChar

StartChar: braceleft
Encoding: 123 123 135
Width: 315
GlyphClass: 1
Flags: W
HStem: -161 71<199.287 283> 220 67<36 92.0317> 597 71<199.287 283>
VStem: 106 84<-77.1029 206.708 299.854 583.588>
CounterMasks: 1 e0
LayerCount: 2
Fore
SplineSet
240 -161 m 2,0,1
 184 -161 184 -161 155 -148.5 c 128,-1,2
 126 -136 126 -136 116 -106 c 128,-1,3
 106 -76 106 -76 106 -25 c 2,4,-1
 106 125 l 2,5,6
 106 168 106 168 94.5 194 c 128,-1,7
 83 220 83 220 36 220 c 1,8,-1
 36 287 l 1,9,10
 83 287 83 287 94.5 313 c 128,-1,11
 106 339 106 339 106 382 c 2,12,-1
 106 532 l 2,13,14
 106 584 106 584 116 613.5 c 128,-1,15
 126 643 126 643 155 655.5 c 128,-1,16
 184 668 184 668 240 668 c 2,17,-1
 283 668 l 1,18,-1
 283 597 l 1,19,-1
 241 597 l 2,20,21
 208 597 208 597 199 584 c 128,-1,22
 190 571 190 571 190 533 c 2,23,-1
 190 380 l 2,24,25
 190 317 190 317 168.5 290.5 c 128,-1,26
 147 264 147 264 111 254 c 1,27,-1
 111 253 l 1,28,29
 149 243 149 243 169.5 216 c 128,-1,30
 190 189 190 189 190 127 c 2,31,-1
 190 -26 l 2,32,33
 190 -65 190 -65 199 -77.5 c 128,-1,34
 208 -90 208 -90 241 -90 c 2,35,-1
 283 -90 l 1,36,-1
 283 -161 l 1,37,-1
 240 -161 l 2,0,1
EndSplineSet
Validated: 1
EndChar

StartChar: bar
Encoding: 124 124 136
Width: 229
GlyphClass: 1
Flags: W
HStem: -161 21G<74 155> 648 20G<74 155>
VStem: 74 81<-161 668>
LayerCount: 2
Fore
SplineSet
74 -161 m 1,0,-1
 74 668 l 1,1,-1
 155 668 l 1,2,-1
 155 -161 l 1,3,-1
 74 -161 l 1,0,-1
EndSplineSet
Validated: 1
EndChar

StartChar: braceright
Encoding: 125 125 137
Width: 315
GlyphClass: 1
Flags: W
HStem: -161 71<32 115.713> 220 67<223.549 279> 597 71<32 115.713>
VStem: 125 84<-77.1029 206.568 300.688 583.588>
CounterMasks: 1 e0
LayerCount: 2
Fore
SplineSet
32 -161 m 1,0,-1
 32 -90 l 1,1,-1
 74 -90 l 2,2,3
 107 -90 107 -90 116 -77.5 c 128,-1,4
 125 -65 125 -65 125 -26 c 2,5,-1
 125 127 l 2,6,7
 125 189 125 189 146 216 c 128,-1,8
 167 243 167 243 204 253 c 1,9,-1
 204 254 l 1,10,11
 168 264 168 264 146.5 290.5 c 128,-1,12
 125 317 125 317 125 380 c 2,13,-1
 125 533 l 2,14,15
 125 571 125 571 116 584 c 128,-1,16
 107 597 107 597 74 597 c 2,17,-1
 32 597 l 1,18,-1
 32 668 l 1,19,-1
 75 668 l 2,20,21
 131 668 131 668 160 655.5 c 128,-1,22
 189 643 189 643 199 613.5 c 128,-1,23
 209 584 209 584 209 532 c 2,24,-1
 209 382 l 2,25,26
 209 339 209 339 221 313 c 128,-1,27
 233 287 233 287 279 287 c 1,28,-1
 279 220 l 1,29,30
 233 220 233 220 221 194 c 128,-1,31
 209 168 209 168 209 125 c 2,32,-1
 209 -25 l 2,33,34
 209 -76 209 -76 199 -106 c 128,-1,35
 189 -136 189 -136 160 -148.5 c 128,-1,36
 131 -161 131 -161 75 -161 c 2,37,-1
 32 -161 l 1,0,-1
EndSplineSet
Validated: 1
EndChar

StartChar: asciitilde
Encoding: 126 126 138
Width: 551
GlyphClass: 1
Flags: W
HStem: 195 73<301.164 425.769> 249 74<130.517 259.562>
LayerCount: 2
Fore
SplineSet
377 195 m 0,0,1
 341 195 341 195 306.5 208.5 c 128,-1,2
 272 222 272 222 239.5 235.5 c 128,-1,3
 207 249 207 249 177 249 c 0,4,5
 152 249 152 249 135 236.5 c 128,-1,6
 118 224 118 224 113 199 c 1,7,-1
 38 221 l 1,8,9
 49 267 49 267 85 295 c 128,-1,10
 121 323 121 323 175 323 c 0,11,12
 217 323 217 323 252.5 309.5 c 128,-1,13
 288 296 288 296 319 282 c 128,-1,14
 350 268 350 268 376 268 c 0,15,16
 399 268 399 268 416.5 281 c 128,-1,17
 434 294 434 294 439 319 c 1,18,-1
 513 297 l 1,19,20
 502 251 502 251 466 223 c 128,-1,21
 430 195 430 195 377 195 c 0,0,1
EndSplineSet
Validated: 1
EndChar

StartChar: exclamdown
Encoding: 161 161 139
Width: 277
GlyphClass: 1
Flags: W
HStem: -161 21G<94 183> 390 129<93.5955 183.404>
VStem: 74 129<409.595 499.404> 94 89<-161 127.667>
LayerCount: 2
Fore
SplineSet
138 390 m 0,0,1
 112 390 112 390 93 409 c 128,-1,2
 74 428 74 428 74 454 c 0,3,4
 74 481 74 481 93 500 c 128,-1,5
 112 519 112 519 138 519 c 0,6,7
 165 519 165 519 184 500 c 128,-1,8
 203 481 203 481 203 454 c 0,9,10
 203 428 203 428 184 409 c 128,-1,11
 165 390 165 390 138 390 c 0,0,1
94 -161 m 1,12,-1
 94 11 l 1,13,-1
 112 311 l 1,14,-1
 165 311 l 1,15,-1
 183 11 l 1,16,-1
 183 -161 l 1,17,-1
 94 -161 l 1,12,-1
EndSplineSet
Validated: 1
EndChar

StartChar: cent
Encoding: 162 162 140
Width: 496
GlyphClass: 1
Flags: W
HStem: -12 74<284 345.002> 430 74<284 345.847>
VStem: 36 91<140.495 353.042> 234 50<-87 -9.52795 67 425 504 571>
LayerCount: 2
Fore
SplineSet
234 -87 m 1,0,-1
 234 -10 l 1,1,2
 173 -2 173 -2 128.5 32.5 c 128,-1,3
 84 67 84 67 60 122.5 c 128,-1,4
 36 178 36 178 36 247 c 0,5,6
 36 314 36 314 60 368 c 128,-1,7
 84 422 84 422 128.5 457 c 128,-1,8
 173 492 173 492 234 501 c 1,9,-1
 234 571 l 1,10,-1
 284 571 l 1,11,-1
 284 504 l 1,12,13
 349 502 349 502 394.5 469.5 c 128,-1,14
 440 437 440 437 463 393 c 1,15,-1
 386 365 l 1,16,17
 354 422 354 422 284 430 c 1,18,-1
 284 62 l 1,19,20
 320 66 320 66 346.5 84 c 128,-1,21
 373 102 373 102 388 127 c 1,22,-1
 465 99 l 1,23,24
 440 54 440 54 392.5 23.5 c 128,-1,25
 345 -7 345 -7 284 -12 c 1,26,-1
 284 -87 l 1,27,-1
 234 -87 l 1,0,-1
234 67 m 1,28,-1
 234 425 l 1,29,30
 190 413 190 413 158.5 369.5 c 128,-1,31
 127 326 127 326 127 248 c 0,32,33
 127 169 127 169 158.5 124.5 c 128,-1,34
 190 80 190 80 234 67 c 1,28,-1
EndSplineSet
Validated: 1
EndChar

StartChar: sterling
Encoding: 163 163 141
Width: 582
GlyphClass: 1
Flags: W
HStem: -12 78<321.456 521.276> 26 76<192.298 339.829> 318 51<68 154 270 451> 609 71<241.052 412.677>
VStem: 110 89<424.363 570.427> 200 88<159.424 315.258>
LayerCount: 2
Fore
SplineSet
99 -12 m 1,0,-1
 71 55 l 1,1,2
 85 61 85 61 106.5 74 c 128,-1,3
 128 87 128 87 149.5 108 c 128,-1,4
 171 129 171 129 185.5 158.5 c 128,-1,5
 200 188 200 188 200 226 c 0,6,7
 200 246 200 246 194.5 269.5 c 128,-1,8
 189 293 189 293 177 318 c 1,9,-1
 68 318 l 1,10,-1
 68 369 l 1,11,-1
 154 369 l 1,12,13
 138 403 138 403 124 437.5 c 128,-1,14
 110 472 110 472 110 511 c 0,15,16
 110 573 110 573 143 610 c 128,-1,17
 176 647 176 647 227 663.5 c 128,-1,18
 278 680 278 680 331 680 c 0,19,20
 415 680 415 680 470 642.5 c 128,-1,21
 525 605 525 605 544 541 c 1,22,-1
 461 516 l 1,23,24
 448 568 448 568 411 588.5 c 128,-1,25
 374 609 374 609 327 609 c 0,26,27
 299 609 299 609 269 600 c 128,-1,28
 239 591 239 591 219 569 c 128,-1,29
 199 547 199 547 199 508 c 0,30,31
 199 472 199 472 214.5 438 c 128,-1,32
 230 404 230 404 247 369 c 1,33,-1
 451 369 l 1,34,-1
 451 318 l 1,35,-1
 270 318 l 1,36,37
 280 296 280 296 284 276 c 128,-1,38
 288 256 288 256 288 238 c 0,39,40
 288 188 288 188 260.5 151 c 128,-1,41
 233 114 233 114 192 90 c 1,42,43
 209 97 209 97 224 99.5 c 128,-1,44
 239 102 239 102 252 102 c 0,45,46
 282 102 282 102 307 93 c 128,-1,47
 332 84 332 84 359 75 c 128,-1,48
 386 66 386 66 420 66 c 0,49,50
 443 66 443 66 469.5 71.5 c 128,-1,51
 496 77 496 77 529 91 c 1,52,-1
 554 18 l 1,53,54
 517 2 517 2 486 -5 c 128,-1,55
 455 -12 455 -12 429 -12 c 0,56,57
 392 -12 392 -12 361 -2.5 c 128,-1,58
 330 7 330 7 300 16.5 c 128,-1,59
 270 26 270 26 233 26 c 0,60,61
 206 26 206 26 173 17.5 c 128,-1,62
 140 9 140 9 99 -12 c 1,0,-1
EndSplineSet
Validated: 1
EndChar

StartChar: currency
Encoding: 164 164 142
Width: 576
GlyphClass: 1
Flags: W
HStem: 103 75<212.848 363.65> 463 76<212.848 363.65>
VStem: 70 76<245.376 396.151> 430 76<245.566 396.151>
LayerCount: 2
Fore
SplineSet
87 84 m 1,0,-1
 51 119 l 1,1,-1
 117 185 l 1,2,3
 70 246 70 246 70 321 c 0,4,5
 70 357 70 357 82 392 c 128,-1,6
 94 427 94 427 117 456 c 1,7,-1
 51 522 l 1,8,-1
 87 558 l 1,9,-1
 153 492 l 1,10,11
 183 516 183 516 217.5 527.5 c 128,-1,12
 252 539 252 539 288 539 c 256,13,14
 324 539 324 539 359 527.5 c 128,-1,15
 394 516 394 516 423 492 c 1,16,-1
 489 558 l 1,17,-1
 525 522 l 1,18,-1
 459 456 l 1,19,20
 483 427 483 427 494.5 392 c 128,-1,21
 506 357 506 357 506 321 c 256,22,23
 506 285 506 285 494.5 250 c 128,-1,24
 483 215 483 215 459 185 c 1,25,-1
 525 119 l 1,26,-1
 489 84 l 1,27,-1
 423 149 l 1,28,29
 394 126 394 126 359 114.5 c 128,-1,30
 324 103 324 103 288 103 c 256,31,32
 252 103 252 103 217.5 114.5 c 128,-1,33
 183 126 183 126 153 149 c 1,34,-1
 87 84 l 1,0,-1
288 178 m 0,35,36
 328 178 328 178 360 197.5 c 128,-1,37
 392 217 392 217 411 249.5 c 128,-1,38
 430 282 430 282 430 321 c 256,39,40
 430 360 430 360 411 392 c 128,-1,41
 392 424 392 424 360 443.5 c 128,-1,42
 328 463 328 463 288 463 c 0,43,44
 249 463 249 463 216.5 443.5 c 128,-1,45
 184 424 184 424 165 392 c 128,-1,46
 146 360 146 360 146 321 c 256,47,48
 146 282 146 282 165 249.5 c 128,-1,49
 184 217 184 217 216.5 197.5 c 128,-1,50
 249 178 249 178 288 178 c 0,35,36
EndSplineSet
Validated: 1
EndChar

StartChar: yen
Encoding: 165 165 143
Width: 591
GlyphClass: 1
Flags: W
HStem: 0 21G<249 343> 86 51<99 249 343 492> 223 51<99 240 351 492> 648 20G<8 122.455 468.607 583>
VStem: 249 94<0 86 137 223>
LayerCount: 2
Fore
SplineSet
249 0 m 1,0,-1
 249 86 l 1,1,-1
 99 86 l 1,2,-1
 99 137 l 1,3,-1
 249 137 l 1,4,-1
 249 223 l 1,5,-1
 99 223 l 1,6,-1
 99 274 l 1,7,-1
 240 274 l 1,8,-1
 8 668 l 1,9,-1
 111 668 l 1,10,-1
 296 345 l 1,11,-1
 480 668 l 1,12,-1
 583 668 l 1,13,-1
 351 274 l 1,14,-1
 492 274 l 1,15,-1
 492 223 l 1,16,-1
 343 223 l 1,17,-1
 343 137 l 1,18,-1
 492 137 l 1,19,-1
 492 86 l 1,20,-1
 343 86 l 1,21,-1
 343 0 l 1,22,-1
 249 0 l 1,0,-1
EndSplineSet
Validated: 1
EndChar

StartChar: brokenbar
Encoding: 166 166 144
Width: 229
GlyphClass: 1
Flags: W
HStem: -161 21G<74 155> 648 20G<74 155>
VStem: 74 81<-161 149 358 668>
LayerCount: 2
Fore
SplineSet
74 358 m 1,0,-1
 74 668 l 1,1,-1
 155 668 l 1,2,-1
 155 358 l 1,3,-1
 74 358 l 1,0,-1
74 -161 m 1,4,-1
 74 149 l 1,5,-1
 155 149 l 1,6,-1
 155 -161 l 1,7,-1
 74 -161 l 1,4,-1
EndSplineSet
Validated: 1
EndChar

StartChar: section
Encoding: 167 167 145
Width: 526
GlyphClass: 1
Flags: W
HStem: -173 70<186.358 335.744> 610 70<182.079 328.15>
VStem: 29 84<239.257 341.836> 74 86<505.987 592.561> 361 86<-81.6734 18.649> 414 84<175.064 280.89>
LayerCount: 2
Fore
SplineSet
259 -173 m 0,0,1
 185 -173 185 -173 134 -139 c 128,-1,2
 83 -105 83 -105 65 -44 c 1,3,-1
 148 -20 l 1,4,5
 158 -59 158 -59 185 -81 c 128,-1,6
 212 -103 212 -103 261 -103 c 0,7,8
 305 -103 305 -103 333 -86 c 128,-1,9
 361 -69 361 -69 361 -36 c 0,10,11
 361 2 361 2 329 28.5 c 128,-1,12
 297 55 297 55 252 77 c 2,13,-1
 158 124 l 2,14,15
 105 151 105 151 67 191.5 c 128,-1,16
 29 232 29 232 29 289 c 0,17,18
 29 339 29 339 64.5 373.5 c 128,-1,19
 100 408 100 408 149 424 c 1,20,21
 120 444 120 444 97 474.5 c 128,-1,22
 74 505 74 505 74 550 c 0,23,24
 74 594 74 594 100.5 622.5 c 128,-1,25
 127 651 127 651 168.5 665.5 c 128,-1,26
 210 680 210 680 255 680 c 0,27,28
 323 680 323 680 370 651.5 c 128,-1,29
 417 623 417 623 437 574 c 1,30,-1
 356 550 l 1,31,32
 344 582 344 582 315.5 596 c 128,-1,33
 287 610 287 610 251 610 c 0,34,35
 214 610 214 610 187 596 c 128,-1,36
 160 582 160 582 160 552 c 0,37,38
 160 524 160 524 187.5 500.5 c 128,-1,39
 215 477 215 477 255 456 c 2,40,-1
 369 398 l 2,41,42
 423 370 423 370 460.5 332 c 128,-1,43
 498 294 498 294 498 242 c 256,44,45
 498 190 498 190 465.5 151.5 c 128,-1,46
 433 113 433 113 383 91 c 1,47,48
 412 69 412 69 429.5 42 c 128,-1,49
 447 15 447 15 447 -23 c 0,50,51
 447 -72 447 -72 421.5 -105.5 c 128,-1,52
 396 -139 396 -139 353 -156 c 128,-1,53
 310 -173 310 -173 259 -173 c 0,0,1
321 129 m 1,54,55
 355 143 355 143 384.5 167.5 c 128,-1,56
 414 192 414 192 414 226 c 0,57,58
 414 256 414 256 395 278.5 c 128,-1,59
 376 301 376 301 344 318 c 2,60,-1
 216 387 l 1,61,62
 192 380 192 380 168.5 367 c 128,-1,63
 145 354 145 354 129 336 c 128,-1,64
 113 318 113 318 113 294 c 0,65,66
 113 259 113 259 136 238 c 128,-1,67
 159 217 159 217 199 195 c 2,68,-1
 321 129 l 1,54,55
EndSplineSet
Validated: 1
EndChar

StartChar: dieresis
Encoding: 168 168 146
Width: 421
GlyphClass: 1
Flags: W
HStem: 590 107<67.5015 143.014 278.986 354.014>
VStem: 51 108<606.501 681.014> 263 107<606.501 681.014>
LayerCount: 2
Fore
SplineSet
105 590 m 0,0,1
 83 590 83 590 67 606 c 128,-1,2
 51 622 51 622 51 644 c 256,3,4
 51 666 51 666 67 681.5 c 128,-1,5
 83 697 83 697 105 697 c 0,6,7
 128 697 128 697 143.5 681.5 c 128,-1,8
 159 666 159 666 159 644 c 256,9,10
 159 622 159 622 143.5 606 c 128,-1,11
 128 590 128 590 105 590 c 0,0,1
316 590 m 0,12,13
 294 590 294 590 278.5 606 c 128,-1,14
 263 622 263 622 263 644 c 256,15,16
 263 666 263 666 278.5 681.5 c 128,-1,17
 294 697 294 697 316 697 c 0,18,19
 339 697 339 697 354.5 681.5 c 128,-1,20
 370 666 370 666 370 644 c 256,21,22
 370 622 370 622 354.5 606 c 128,-1,23
 339 590 339 590 316 590 c 0,12,13
EndSplineSet
Validated: 1
EndChar

StartChar: copyright
Encoding: 169 169 147
Width: 794
GlyphClass: 1
Flags: W
HStem: -12 62<287.396 506.604> 150 59<339.342 464.343> 473 58<338.515 458.298> 618 62<287.396 506.604>
VStem: 51 62<224.396 443.604> 225 76<249.579 432.726> 681 62<224.396 443.604>
LayerCount: 2
Fore
SplineSet
397 -12 m 256,0,1
 325 -12 325 -12 262.5 15 c 128,-1,2
 200 42 200 42 152.5 89.5 c 128,-1,3
 105 137 105 137 78 199.5 c 128,-1,4
 51 262 51 262 51 334 c 256,5,6
 51 406 51 406 78 468.5 c 128,-1,7
 105 531 105 531 152.5 578.5 c 128,-1,8
 200 626 200 626 262.5 653 c 128,-1,9
 325 680 325 680 397 680 c 256,10,11
 469 680 469 680 531.5 653 c 128,-1,12
 594 626 594 626 641.5 578.5 c 128,-1,13
 689 531 689 531 716 468.5 c 128,-1,14
 743 406 743 406 743 334 c 256,15,16
 743 262 743 262 716 199.5 c 128,-1,17
 689 137 689 137 641.5 89.5 c 128,-1,18
 594 42 594 42 531.5 15 c 128,-1,19
 469 -12 469 -12 397 -12 c 256,0,1
397 50 m 256,20,21
 456 50 456 50 507.5 72 c 128,-1,22
 559 94 559 94 598 133 c 128,-1,23
 637 172 637 172 659 223.5 c 128,-1,24
 681 275 681 275 681 334 c 256,25,26
 681 393 681 393 659 444.5 c 128,-1,27
 637 496 637 496 598 535 c 128,-1,28
 559 574 559 574 507.5 596 c 128,-1,29
 456 618 456 618 397 618 c 256,30,31
 338 618 338 618 286.5 596 c 128,-1,32
 235 574 235 574 196 535 c 128,-1,33
 157 496 157 496 135 444.5 c 128,-1,34
 113 393 113 393 113 334 c 256,35,36
 113 275 113 275 135 223.5 c 128,-1,37
 157 172 157 172 196 133 c 128,-1,38
 235 94 235 94 286.5 72 c 128,-1,39
 338 50 338 50 397 50 c 256,20,21
399 150 m 0,40,41
 315 150 315 150 270 201.5 c 128,-1,42
 225 253 225 253 225 342 c 256,43,44
 225 431 225 431 272.5 481 c 128,-1,45
 320 531 320 531 401 531 c 0,46,47
 455 531 455 531 491 508 c 128,-1,48
 527 485 527 485 546 449 c 1,49,-1
 479 424 l 1,50,51
 453 473 453 473 399 473 c 0,52,53
 356 473 356 473 328.5 441 c 128,-1,54
 301 409 301 409 301 342 c 256,55,56
 301 275 301 275 328.5 242 c 128,-1,57
 356 209 356 209 399 209 c 0,58,59
 424 209 424 209 446.5 219 c 128,-1,60
 469 229 469 229 482 254 c 1,61,-1
 548 230 l 1,62,63
 529 196 529 196 492 173 c 128,-1,64
 455 150 455 150 399 150 c 0,40,41
EndSplineSet
Validated: 1
EndChar

StartChar: questiondown
Encoding: 191 191 148
Width: 516
GlyphClass: 1
Flags: W
HStem: -174 70<177.543 340.735> 390 129<245.596 335.405>
VStem: 47 88<-64.0896 63.9609> 226 129<409.596 499.405> 249 86<220.038 316> 395 82<-50.1021 -16.0366>
LayerCount: 2
Fore
SplineSet
291 390 m 0,0,1
 264 390 264 390 245 409 c 128,-1,2
 226 428 226 428 226 455 c 0,3,4
 226 481 226 481 245 500 c 128,-1,5
 264 519 264 519 291 519 c 0,6,7
 317 519 317 519 336 500 c 128,-1,8
 355 481 355 481 355 455 c 0,9,10
 355 428 355 428 336 409 c 128,-1,11
 317 390 317 390 291 390 c 0,0,1
256 -174 m 0,12,13
 204 -174 204 -174 156 -156.5 c 128,-1,14
 108 -139 108 -139 77.5 -102.5 c 128,-1,15
 47 -66 47 -66 47 -10 c 0,16,17
 47 33 47 33 65 68 c 128,-1,18
 83 103 83 103 112 130.5 c 128,-1,19
 141 158 141 158 172 178 c 0,20,21
 201 197 201 197 217.5 210.5 c 128,-1,22
 234 224 234 224 241.5 240.5 c 128,-1,23
 249 257 249 257 249 282 c 2,24,-1
 249 316 l 1,25,-1
 335 316 l 1,26,-1
 335 279 l 2,27,28
 335 241 335 241 322.5 214 c 128,-1,29
 310 187 310 187 284.5 165.5 c 128,-1,30
 259 144 259 144 221 119 c 0,31,32
 185 97 185 97 160 68 c 128,-1,33
 135 39 135 39 135 -2 c 0,34,35
 135 -50 135 -50 170 -77 c 128,-1,36
 205 -104 205 -104 260 -104 c 0,37,38
 305 -104 305 -104 333 -87.5 c 128,-1,39
 361 -71 361 -71 376 -46 c 128,-1,40
 391 -21 391 -21 395 5 c 1,41,-1
 477 -18 l 1,42,43
 462 -90 462 -90 402 -132 c 128,-1,44
 342 -174 342 -174 256 -174 c 0,12,13
EndSplineSet
Validated: 1
EndChar

StartChar: germandbls
Encoding: 223 223 149
Width: 593
GlyphClass: 1
Flags: W
HStem: -12 74<300 408.507> 0 21G<74 158> 330 76<277 382.503> 611 69<212.259 389.845>
VStem: 74 84<0 556.245> 433 85<449.964 570.761> 467 90<115.884 273.253>
LayerCount: 2
Fore
SplineSet
314 -12 m 2,0,-1
 300 -12 l 1,1,-1
 277 65 l 1,2,3
 298 62 298 62 316 62 c 0,4,5
 384 62 384 62 425.5 95 c 128,-1,6
 467 128 467 128 467 195 c 0,7,8
 467 268 467 268 418 299 c 128,-1,9
 369 330 369 330 289 330 c 2,10,-1
 277 330 l 1,11,-1
 277 406 l 1,12,-1
 283 406 l 2,13,14
 324 406 324 406 358 417 c 128,-1,15
 392 428 392 428 412.5 451.5 c 128,-1,16
 433 475 433 475 433 511 c 0,17,18
 433 555 433 555 399 583 c 128,-1,19
 365 611 365 611 309 611 c 0,20,21
 230 611 230 611 194 575 c 128,-1,22
 158 539 158 539 158 453 c 2,23,-1
 158 0 l 1,24,-1
 74 0 l 1,25,-1
 74 453 l 2,26,27
 74 489 74 489 81.5 528.5 c 128,-1,28
 89 568 89 568 112.5 602.5 c 128,-1,29
 136 637 136 637 183.5 658.5 c 128,-1,30
 231 680 231 680 310 680 c 0,31,32
 370 680 370 680 417 660.5 c 128,-1,33
 464 641 464 641 491 605.5 c 128,-1,34
 518 570 518 570 518 521 c 0,35,36
 518 471 518 471 494 434.5 c 128,-1,37
 470 398 470 398 418 376 c 1,38,39
 477 361 477 361 517 319.5 c 128,-1,40
 557 278 557 278 557 197 c 0,41,42
 557 121 557 121 522.5 75 c 128,-1,43
 488 29 488 29 433 8.5 c 128,-1,44
 378 -12 378 -12 314 -12 c 2,0,-1
EndSplineSet
Validated: 1
EndChar

StartChar: AE
Encoding: 198 198 150
Width: 994
GlyphClass: 1
Flags: W
HStem: 0 81<598 958> 145 81<277 504> 303 81<598 864> 587 81<598 958>
VStem: 504 94<81 145 226 303 384 546>
LayerCount: 2
Fore
SplineSet
8 0 m 1,0,-1
 494 668 l 1,1,-1
 958 668 l 1,2,-1
 958 587 l 1,3,-1
 598 587 l 1,4,-1
 598 384 l 1,5,-1
 864 384 l 1,6,-1
 864 303 l 1,7,-1
 598 303 l 1,8,-1
 598 81 l 1,9,-1
 958 81 l 1,10,-1
 958 0 l 1,11,-1
 504 0 l 1,12,-1
 504 145 l 1,13,-1
 221 145 l 1,14,-1
 117 0 l 1,15,-1
 8 0 l 1,0,-1
277 226 m 1,16,-1
 504 226 l 1,17,-1
 504 546 l 1,18,-1
 277 226 l 1,16,-1
EndSplineSet
Validated: 1
EndChar

StartChar: florin
Encoding: 279 402 151
Width: 317
GlyphClass: 1
Flags: W
HStem: -173 80<23.4526 94.7106> 429 67<23 107 191 294> 635 71<200.802 294>
VStem: 107 84<-73.4033 429 496 621.588>
LayerCount: 2
Fore
SplineSet
78 -173 m 0,0,1
 64 -173 64 -173 50.5 -171 c 128,-1,2
 37 -169 37 -169 23 -165 c 1,3,-1
 23 -90 l 1,4,5
 38 -93 38 -93 49 -93 c 0,6,7
 81 -93 81 -93 94 -74 c 128,-1,8
 107 -55 107 -55 107 -24 c 2,9,-1
 107 429 l 1,10,-1
 23 429 l 1,11,-1
 23 496 l 1,12,-1
 107 496 l 1,13,-1
 107 570 l 2,14,15
 107 621 107 621 117 651 c 128,-1,16
 127 681 127 681 156 693.5 c 128,-1,17
 185 706 185 706 240 706 c 2,18,-1
 294 706 l 1,19,-1
 294 635 l 1,20,-1
 242 635 l 2,21,22
 210 635 210 635 200.5 622 c 128,-1,23
 191 609 191 609 191 571 c 2,24,-1
 191 496 l 1,25,-1
 294 496 l 1,26,-1
 294 429 l 1,27,-1
 191 429 l 1,28,-1
 191 -27 l 2,29,30
 191 -84 191 -84 175 -115.5 c 128,-1,31
 159 -147 159 -147 133 -160 c 128,-1,32
 107 -173 107 -173 78 -173 c 0,0,1
EndSplineSet
Validated: 1
EndChar

StartChar: integral
Encoding: 280 8747 152
Width: 454
GlyphClass: 1
Flags: W
HStem: -173 112<77.8142 136.076> 569 112<317.439 376.186>
VStem: 51 99<-126.225 -76.9855> 187 84<-96.0781 611.918> 303 100<584.985 634.225>
LayerCount: 2
Fore
SplineSet
136 -173 m 0,0,1
 103 -173 103 -173 77 -159.5 c 128,-1,2
 51 -146 51 -146 51 -111 c 0,3,4
 51 -91 51 -91 65.5 -76 c 128,-1,5
 80 -61 80 -61 101 -61 c 0,6,7
 123 -61 123 -61 136.5 -76.5 c 128,-1,8
 150 -92 150 -92 150 -112 c 0,9,10
 150 -116 150 -116 150 -119.5 c 128,-1,11
 150 -123 150 -123 148 -127 c 1,12,13
 148 -127 148 -127 154 -126 c 128,-1,14
 160 -125 160 -125 167.5 -117 c 128,-1,15
 175 -109 175 -109 181 -89 c 128,-1,16
 187 -69 187 -69 187 -31 c 0,17,18
 187 93 187 93 185 216.5 c 128,-1,19
 183 340 183 340 183 464 c 0,20,21
 183 533 183 533 195.5 576 c 128,-1,22
 208 619 208 619 228 642 c 128,-1,23
 248 665 248 665 272 673 c 128,-1,24
 296 681 296 681 318 681 c 0,25,26
 351 681 351 681 377 667.5 c 128,-1,27
 403 654 403 654 403 619 c 0,28,29
 403 598 403 598 388.5 583.5 c 128,-1,30
 374 569 374 569 353 569 c 0,31,32
 331 569 331 569 317 584.5 c 128,-1,33
 303 600 303 600 303 619 c 0,34,35
 303 628 303 628 306 635 c 1,36,37
 306 635 306 635 300 634 c 128,-1,38
 294 633 294 633 286.5 625 c 128,-1,39
 279 617 279 617 273 596.5 c 128,-1,40
 267 576 267 576 267 538 c 0,41,42
 267 414 267 414 269 291 c 128,-1,43
 271 168 271 168 271 44 c 0,44,45
 271 -26 271 -26 258.5 -69 c 128,-1,46
 246 -112 246 -112 226 -134.5 c 128,-1,47
 206 -157 206 -157 182.5 -165 c 128,-1,48
 159 -173 159 -173 136 -173 c 0,0,1
EndSplineSet
Validated: 1
EndChar

StartChar: approxequal
Encoding: 281 8776 153
Width: 577
GlyphClass: 1
Flags: W
HStem: 97 73<314.164 438.769> 151 74<143.517 272.562> 283 73<316.109 434.109> 337 74<143.433 273.012>
LayerCount: 2
Fore
SplineSet
126 287 m 1,0,-1
 51 309 l 1,1,2
 63 355 63 355 99 383 c 128,-1,3
 135 411 135 411 190 411 c 0,4,5
 232 411 232 411 267.5 397.5 c 128,-1,6
 303 384 303 384 333.5 370 c 128,-1,7
 364 356 364 356 390 356 c 0,8,9
 413 356 413 356 430 369 c 128,-1,10
 447 382 447 382 452 407 c 1,11,-1
 526 385 l 1,12,13
 515 339 515 339 479 311 c 128,-1,14
 443 283 443 283 390 283 c 0,15,16
 354 283 354 283 319.5 296.5 c 128,-1,17
 285 310 285 310 252.5 323.5 c 128,-1,18
 220 337 220 337 190 337 c 0,19,20
 165 337 165 337 148 324.5 c 128,-1,21
 131 312 131 312 126 287 c 1,0,-1
126 101 m 1,22,-1
 51 123 l 1,23,24
 62 169 62 169 98 197 c 128,-1,25
 134 225 134 225 188 225 c 0,26,27
 230 225 230 225 265.5 211.5 c 128,-1,28
 301 198 301 198 332 184 c 128,-1,29
 363 170 363 170 389 170 c 0,30,31
 412 170 412 170 429.5 183 c 128,-1,32
 447 196 447 196 452 221 c 1,33,-1
 526 199 l 1,34,35
 515 153 515 153 479 125 c 128,-1,36
 443 97 443 97 390 97 c 0,37,38
 354 97 354 97 319.5 110.5 c 128,-1,39
 285 124 285 124 252.5 137.5 c 128,-1,40
 220 151 220 151 190 151 c 0,41,42
 165 151 165 151 148 138.5 c 128,-1,43
 131 126 131 126 126 101 c 1,22,-1
EndSplineSet
Validated: 1
EndChar

StartChar: notequal
Encoding: 282 8800 154
Width: 598
GlyphClass: 1
Flags: W
HStem: 0 21G<75 189.05> 121 79<51 160 315 547> 307 80<51 290 446 547> 476 20G<408.872 522>
LayerCount: 2
Fore
SplineSet
75 0 m 1,0,-1
 160 121 l 1,1,-1
 51 121 l 1,2,-1
 51 200 l 1,3,-1
 216 200 l 1,4,-1
 290 307 l 1,5,-1
 51 307 l 1,6,-1
 51 387 l 1,7,-1
 346 387 l 1,8,-1
 423 496 l 1,9,-1
 522 496 l 1,10,-1
 446 387 l 1,11,-1
 547 387 l 1,12,-1
 547 307 l 1,13,-1
 390 307 l 1,14,-1
 315 200 l 1,15,-1
 547 200 l 1,16,-1
 547 121 l 1,17,-1
 260 121 l 1,18,-1
 175 0 l 1,19,-1
 75 0 l 1,0,-1
EndSplineSet
Validated: 1
EndChar

StartChar: lessequal
Encoding: 283 8804 155
Width: 575
GlyphClass: 1
Flags: W
HStem: 0 80<51 524> 485 20G<467.69 524>
LayerCount: 2
Fore
SplineSet
524 100 m 1,0,-1
 51 267 l 1,1,-1
 51 337 l 1,2,-1
 524 505 l 1,3,-1
 524 414 l 1,4,-1
 156 302 l 1,5,-1
 524 190 l 1,6,-1
 524 100 l 1,0,-1
51 0 m 1,7,-1
 51 80 l 1,8,-1
 524 80 l 1,9,-1
 524 0 l 1,10,-1
 51 0 l 1,7,-1
EndSplineSet
Validated: 1
EndChar

StartChar: greaterequal
Encoding: 284 8805 156
Width: 575
GlyphClass: 1
Flags: W
HStem: 0 80<51 524> 485 20G<51 107.31>
LayerCount: 2
Fore
SplineSet
51 100 m 1,0,-1
 51 190 l 1,1,-1
 419 302 l 1,2,-1
 51 414 l 1,3,-1
 51 505 l 1,4,-1
 524 337 l 1,5,-1
 524 267 l 1,6,-1
 51 100 l 1,0,-1
51 0 m 1,7,-1
 51 80 l 1,8,-1
 524 80 l 1,9,-1
 524 0 l 1,10,-1
 51 0 l 1,7,-1
EndSplineSet
Validated: 1
EndChar

StartChar: lozenge
Encoding: 285 9674 157
Width: 557
GlyphClass: 1
Flags: W
LayerCount: 2
Fore
SplineSet
279 -73 m 1,0,-1
 51 315 l 1,1,-1
 279 703 l 1,2,-1
 506 315 l 1,3,-1
 279 -73 l 1,0,-1
279 76 m 1,4,-1
 419 315 l 1,5,-1
 279 554 l 1,6,-1
 138 315 l 1,7,-1
 279 76 l 1,4,-1
EndSplineSet
Validated: 1
EndChar

StartChar: summation
Encoding: 286 8721 158
Width: 583
GlyphClass: 1
Flags: W
HStem: -161 81<152 532> 587 81<152 532>
LayerCount: 2
Fore
SplineSet
51 -161 m 1,0,-1
 51 -80 l 1,1,-1
 297 254 l 1,2,-1
 51 587 l 1,3,-1
 51 668 l 1,4,-1
 532 668 l 1,5,-1
 532 587 l 1,6,-1
 152 587 l 1,7,-1
 397 254 l 1,8,-1
 152 -80 l 1,9,-1
 532 -80 l 1,10,-1
 532 -161 l 1,11,-1
 51 -161 l 1,0,-1
EndSplineSet
Validated: 1
EndChar

StartChar: minus
Encoding: 287 8722 159
Width: 598
GlyphClass: 1
Flags: W
HStem: 209 79<51 547>
LayerCount: 2
Fore
SplineSet
51 209 m 1,0,-1
 51 288 l 1,1,-1
 547 288 l 1,2,-1
 547 209 l 1,3,-1
 51 209 l 1,0,-1
EndSplineSet
Validated: 1
EndChar

StartChar: uni2215
Encoding: 288 8725 160
Width: 594
GlyphClass: 1
Flags: W
HStem: 0 21G<13 126.991> 649 20G<467.009 581>
LayerCount: 2
Fore
SplineSet
13 0 m 1,0,-1
 481 669 l 1,1,-1
 581 669 l 1,2,-1
 113 0 l 1,3,-1
 13 0 l 1,0,-1
EndSplineSet
Validated: 1
EndChar

StartChar: uni2219
Encoding: 289 8729 161
Width: 231
GlyphClass: 1
Flags: W
HStem: 191 129<70.5957 163.301>
VStem: 51 129<211.626 300.404>
LayerCount: 2
Fore
SplineSet
116 191 m 0,0,1
 86 191 86 191 68.5 211 c 128,-1,2
 51 231 51 231 51 255 c 0,3,4
 51 282 51 282 70 301 c 128,-1,5
 89 320 89 320 116 320 c 0,6,7
 142 320 142 320 161 301 c 128,-1,8
 180 282 180 282 180 256 c 256,9,10
 180 230 180 230 161 210.5 c 128,-1,11
 142 191 142 191 116 191 c 0,0,1
EndSplineSet
Validated: 1
EndChar

StartChar: radical
Encoding: 290 8730 162
Width: 578
GlyphClass: 1
Flags: W
HStem: -161 21G<269.157 379.639> 145 80<51 157> 649 20G<435.516 527>
LayerCount: 2
Fore
SplineSet
277 -161 m 1,0,-1
 157 145 l 1,1,-1
 51 145 l 1,2,-1
 51 225 l 1,3,-1
 213 225 l 1,4,-1
 316 -37 l 1,5,-1
 439 669 l 1,6,-1
 527 669 l 1,7,-1
 376 -161 l 1,8,-1
 277 -161 l 1,0,-1
EndSplineSet
Validated: 1
EndChar

StartChar: infinity
Encoding: 291 8734 163
Width: 769
GlyphClass: 1
Flags: W
HStem: 104 76<156.962 281.738 488.322 612.038> 330 76<156.478 283.527 486.79 612.522>
VStem: 51 81<205.117 307.142> 637 81<205.117 307.142>
LayerCount: 2
Fore
SplineSet
211 104 m 0,0,1
 140 104 140 104 95.5 146.5 c 128,-1,2
 51 189 51 189 51 256 c 0,3,4
 51 321 51 321 97 363.5 c 128,-1,5
 143 406 143 406 217 406 c 0,6,7
 271 406 271 406 312 379 c 128,-1,8
 353 352 353 352 385 317 c 1,9,10
 417 352 417 352 457.5 379 c 128,-1,11
 498 406 498 406 552 406 c 0,12,13
 626 406 626 406 672 363.5 c 128,-1,14
 718 321 718 321 718 256 c 0,15,16
 718 189 718 189 673.5 146.5 c 128,-1,17
 629 104 629 104 558 104 c 0,18,19
 503 104 503 104 461 132.5 c 128,-1,20
 419 161 419 161 385 198 c 1,21,22
 351 161 351 161 309 132.5 c 128,-1,23
 267 104 267 104 211 104 c 0,0,1
215 180 m 0,24,25
 247 180 247 180 275 197 c 128,-1,26
 303 214 303 214 337 256 c 1,27,28
 310 288 310 288 282.5 309 c 128,-1,29
 255 330 255 330 218 330 c 256,30,31
 181 330 181 330 156.5 310 c 128,-1,32
 132 290 132 290 132 256 c 0,33,34
 132 225 132 225 155.5 202.5 c 128,-1,35
 179 180 179 180 215 180 c 0,24,25
554 180 m 0,36,37
 590 180 590 180 613.5 202.5 c 128,-1,38
 637 225 637 225 637 256 c 0,39,40
 637 290 637 290 612.5 310 c 128,-1,41
 588 330 588 330 551 330 c 0,42,43
 515 330 515 330 487.5 309 c 128,-1,44
 460 288 460 288 433 256 c 1,45,46
 468 214 468 214 495 197 c 128,-1,47
 522 180 522 180 554 180 c 0,36,37
EndSplineSet
Validated: 1
EndChar

StartChar: uni03A9
Encoding: 292 937 164
Width: 683
GlyphClass: 1
Flags: W
HStem: 0 81<48 199 484 635> 606 74<247.013 436.497>
VStem: 48 73<290.038 480.497> 199 85<81 142.595> 399 85<81 142.595> 562 73<290.038 480.497>
LayerCount: 2
Fore
SplineSet
48 0 m 1,0,-1
 48 81 l 1,1,-1
 199 81 l 1,2,-1
 199 130 l 1,3,4
 132 168 132 168 90 235.5 c 128,-1,5
 48 303 48 303 48 385 c 0,6,7
 48 446 48 446 70.5 499.5 c 128,-1,8
 93 553 93 553 133.5 593.5 c 128,-1,9
 174 634 174 634 227 657 c 128,-1,10
 280 680 280 680 341 680 c 256,11,12
 402 680 402 680 455.5 657 c 128,-1,13
 509 634 509 634 549 593.5 c 128,-1,14
 589 553 589 553 612 499.5 c 128,-1,15
 635 446 635 446 635 385 c 0,16,17
 635 303 635 303 593.5 235.5 c 128,-1,18
 552 168 552 168 484 130 c 1,19,-1
 484 81 l 1,20,-1
 635 81 l 1,21,-1
 635 0 l 1,22,-1
 399 0 l 1,23,-1
 399 173 l 1,24,25
 446 186 446 186 483 216.5 c 128,-1,26
 520 247 520 247 541 291 c 128,-1,27
 562 335 562 335 562 385 c 0,28,29
 562 446 562 446 532 496 c 128,-1,30
 502 546 502 546 452 576 c 128,-1,31
 402 606 402 606 341 606 c 0,32,33
 281 606 281 606 231 576 c 128,-1,34
 181 546 181 546 151 496 c 128,-1,35
 121 446 121 446 121 385 c 0,36,37
 121 335 121 335 142 291 c 128,-1,38
 163 247 163 247 200 216.5 c 128,-1,39
 237 186 237 186 284 173 c 1,40,-1
 284 0 l 1,41,-1
 48 0 l 1,0,-1
EndSplineSet
Validated: 1
EndChar

StartChar: estimated
Encoding: 293 8494 165
Width: 618
GlyphClass: 1
Flags: W
HStem: -12 32<225.41 391.612> 248 31<157 461> 472 32<224.784 393.042>
VStem: 51 106<142.671 248 279 350.826> 461 106<279 351.003>
LayerCount: 2
Fore
SplineSet
309 -12 m 0,0,1
 263 -12 263 -12 217.5 5 c 128,-1,2
 172 22 172 22 134.5 55.5 c 128,-1,3
 97 89 97 89 74 139.5 c 128,-1,4
 51 190 51 190 51 256 c 0,5,6
 51 300 51 300 69.5 344 c 128,-1,7
 88 388 88 388 122 424 c 128,-1,8
 156 460 156 460 203.5 482 c 128,-1,9
 251 504 251 504 309 504 c 0,10,11
 380 504 380 504 438.5 469.5 c 128,-1,12
 497 435 497 435 532 377 c 128,-1,13
 567 319 567 319 567 248 c 1,14,-1
 157 248 l 1,15,-1
 157 78 l 1,16,17
 187 51 187 51 226 35.5 c 128,-1,18
 265 20 265 20 309 20 c 0,19,20
 360 20 360 20 404 41 c 128,-1,21
 448 62 448 62 479 97 c 1,22,-1
 512 87 l 1,23,24
 477 42 477 42 424 15 c 128,-1,25
 371 -12 371 -12 309 -12 c 0,0,1
157 279 m 1,26,-1
 461 279 l 1,27,-1
 461 413 l 1,28,29
 431 441 431 441 392 456.5 c 128,-1,30
 353 472 353 472 309 472 c 256,31,32
 265 472 265 472 226 456.5 c 128,-1,33
 187 441 187 441 157 413 c 1,34,-1
 157 279 l 1,26,-1
EndSplineSet
Validated: 1
EndChar

StartChar: partialdiff
Encoding: 294 8706 166
Width: 578
GlyphClass: 1
Flags: W
HStem: -12 73<215.65 362.566> 430 74<215.65 362.119> 598 82<140 309.051>
VStem: 51 89<142.409 348.851> 437 90<142.953 348.93>
LayerCount: 2
Fore
SplineSet
289 -12 m 0,0,1
 246 -12 246 -12 203.5 3 c 128,-1,2
 161 18 161 18 126.5 49.5 c 128,-1,3
 92 81 92 81 71.5 130 c 128,-1,4
 51 179 51 179 51 246 c 0,5,6
 51 314 51 314 71.5 362.5 c 128,-1,7
 92 411 92 411 126.5 442.5 c 128,-1,8
 161 474 161 474 203.5 489 c 128,-1,9
 246 504 246 504 289 504 c 0,10,11
 320 504 320 504 358.5 492 c 128,-1,12
 397 480 397 480 421 450 c 1,13,14
 401 514 401 514 360 546.5 c 128,-1,15
 319 579 319 579 263 589.5 c 128,-1,16
 207 600 207 600 140 598 c 1,17,-1
 140 680 l 1,18,19
 170 680 170 680 210 678 c 128,-1,20
 250 676 250 676 294 665.5 c 128,-1,21
 338 655 338 655 379.5 630.5 c 128,-1,22
 421 606 421 606 454.5 562 c 128,-1,23
 488 518 488 518 508 448.5 c 128,-1,24
 528 379 528 379 528 277 c 0,25,26
 528 270 528 270 527.5 262 c 128,-1,27
 527 254 527 254 527 246 c 0,28,29
 524 152 524 152 488.5 95 c 128,-1,30
 453 38 453 38 400 13 c 128,-1,31
 347 -12 347 -12 289 -12 c 0,0,1
289 61 m 256,32,33
 325 61 325 61 359 80.5 c 128,-1,34
 393 100 393 100 415 141 c 128,-1,35
 437 182 437 182 437 246 c 256,36,37
 437 310 437 310 415 350.5 c 128,-1,38
 393 391 393 391 359 410.5 c 128,-1,39
 325 430 325 430 289 430 c 256,40,41
 253 430 253 430 219 410.5 c 128,-1,42
 185 391 185 391 162.5 350.5 c 128,-1,43
 140 310 140 310 140 246 c 256,44,45
 140 182 140 182 162.5 141 c 128,-1,46
 185 100 185 100 219 80.5 c 128,-1,47
 253 61 253 61 289 61 c 256,32,33
EndSplineSet
Validated: 33
EndChar

StartChar: uni0394
Encoding: 295 916 167
Width: 755
GlyphClass: 1
Flags: W
HStem: 0 78<176 578> 660 20G<367.412 386.618>
LayerCount: 2
Fore
SplineSet
51 0 m 1,0,-1
 377 680 l 1,1,-1
 704 0 l 1,2,-1
 51 0 l 1,0,-1
176 78 m 1,3,-1
 578 78 l 1,4,-1
 377 498 l 1,5,-1
 176 78 l 1,3,-1
EndSplineSet
Validated: 1
EndChar

StartChar: product
Encoding: 296 8719 168
Width: 581
GlyphClass: 1
Flags: W
HStem: -161 21G<51 132 448 530> 587 81<132 448>
VStem: 51 81<-161 587> 448 82<-161 587>
LayerCount: 2
Fore
SplineSet
51 -161 m 1,0,-1
 51 668 l 1,1,-1
 530 668 l 1,2,-1
 530 -161 l 1,3,-1
 448 -161 l 1,4,-1
 448 587 l 1,5,-1
 132 587 l 1,6,-1
 132 -161 l 1,7,-1
 51 -161 l 1,0,-1
EndSplineSet
Validated: 1
EndChar

StartChar: pi
Encoding: 297 960 169
Width: 587
GlyphClass: 1
Flags: W
HStem: 0 74<472.741 549> 414 82<18 102 183 381 465 549>
VStem: 102 81<0 414> 381 84<87.4126 414>
LayerCount: 2
Fore
SplineSet
102 0 m 1,0,-1
 102 414 l 1,1,-1
 18 414 l 1,2,-1
 18 496 l 1,3,-1
 549 496 l 1,4,-1
 549 414 l 1,5,-1
 465 414 l 1,6,-1
 465 139 l 2,7,8
 465 100 465 100 472.5 87 c 128,-1,9
 480 74 480 74 516 74 c 2,10,-1
 549 74 l 1,11,-1
 549 0 l 1,12,-1
 498 0 l 2,13,14
 451 0 451 0 425.5 9.5 c 128,-1,15
 400 19 400 19 390.5 46 c 128,-1,16
 381 73 381 73 381 124 c 2,17,-1
 381 414 l 1,18,-1
 183 414 l 1,19,-1
 183 0 l 1,20,-1
 102 0 l 1,0,-1
EndSplineSet
Validated: 1
EndChar

StartChar: hungarumlaut
Encoding: 298 733 170
Width: 410
GlyphClass: 1
Flags: W
HStem: 572 136
VStem: 51 308
LayerCount: 2
Fore
SplineSet
51 572 m 1,0,-1
 147 695 l 2,1,2
 157 708 157 708 175 708 c 0,3,4
 191 708 191 708 202 697 c 128,-1,5
 213 686 213 686 213 670 c 0,6,7
 213 663 213 663 211 656 c 128,-1,8
 209 649 209 649 202 643 c 2,9,-1
 121 572 l 1,10,-1
 51 572 l 1,0,-1
197 572 m 1,11,-1
 293 695 l 2,12,13
 303 708 303 708 321 708 c 0,14,15
 336 708 336 708 347.5 696.5 c 128,-1,16
 359 685 359 685 359 670 c 0,17,18
 359 663 359 663 357 656 c 128,-1,19
 355 649 355 649 348 643 c 2,20,-1
 267 572 l 1,21,-1
 197 572 l 1,11,-1
EndSplineSet
Validated: 1
EndChar

StartChar: tilde
Encoding: 299 732 171
Width: 431
GlyphClass: 1
Flags: W
HStem: 575 63<224.562 319.285> 618 63<121.685 214.92>
VStem: 51 65<577 612.883>
LayerCount: 2
Fore
SplineSet
283 575 m 0,0,1
 267 575 267 575 251 580.5 c 128,-1,2
 235 586 235 586 215 596 c 0,3,4
 200 604 200 604 186.5 611 c 128,-1,5
 173 618 173 618 158 618 c 0,6,7
 121 618 121 618 116 577 c 1,8,-1
 51 577 l 1,9,10
 60 630 60 630 88.5 655.5 c 128,-1,11
 117 681 117 681 157 681 c 0,12,13
 185 681 185 681 205 670.5 c 128,-1,14
 225 660 225 660 242.5 649 c 128,-1,15
 260 638 260 638 281 638 c 0,16,17
 296 638 296 638 304.5 644 c 128,-1,18
 313 650 313 650 320 661 c 0,19,20
 326 672 326 672 334 676 c 128,-1,21
 342 680 342 680 349 680 c 0,22,23
 363 680 363 680 371.5 670.5 c 128,-1,24
 380 661 380 661 380 649 c 0,25,26
 380 634 380 634 367 617 c 128,-1,27
 354 600 354 600 332 587.5 c 128,-1,28
 310 575 310 575 283 575 c 0,0,1
EndSplineSet
Validated: 1
EndChar

StartChar: endash
Encoding: 300 8211 172
Width: 476
GlyphClass: 1
Flags: W
HStem: 208 79<39 437>
LayerCount: 2
Fore
SplineSet
39 208 m 1,0,-1
 39 287 l 1,1,-1
 437 287 l 1,2,-1
 437 208 l 1,3,-1
 39 208 l 1,0,-1
EndSplineSet
Validated: 1
EndChar

StartChar: emdash
Encoding: 301 8212 173
Width: 796
GlyphClass: 1
Flags: W
HStem: 208 79<39 757>
LayerCount: 2
Fore
SplineSet
39 208 m 1,0,-1
 39 287 l 1,1,-1
 757 287 l 1,2,-1
 757 208 l 1,3,-1
 39 208 l 1,0,-1
EndSplineSet
Validated: 1
EndChar

StartChar: trademark
Encoding: 302 8482 174
Width: 844
GlyphClass: 1
Flags: W
HStem: 608 60<51 169 236 354>
VStem: 169 67<292 608> 391 67<292 571> 726 67<292 571>
LayerCount: 2
Fore
SplineSet
391 292 m 1,0,-1
 391 668 l 1,1,-1
 499 668 l 1,2,-1
 592 384 l 1,3,-1
 685 668 l 1,4,-1
 793 668 l 1,5,-1
 793 292 l 1,6,-1
 726 292 l 1,7,-1
 726 571 l 1,8,-1
 628 292 l 1,9,-1
 556 292 l 1,10,-1
 458 571 l 1,11,-1
 458 292 l 1,12,-1
 391 292 l 1,0,-1
169 292 m 1,13,-1
 169 608 l 1,14,-1
 51 608 l 1,15,-1
 51 668 l 1,16,-1
 354 668 l 1,17,-1
 354 608 l 1,18,-1
 236 608 l 1,19,-1
 236 292 l 1,20,-1
 169 292 l 1,13,-1
EndSplineSet
Validated: 1
EndChar

StartChar: uni2113
Encoding: 303 8467 175
Width: 446
GlyphClass: 1
Flags: W
HStem: -12 73<217.566 334.327> 610 70<214.522 296.769>
VStem: 51 151<138 227> 117 85<78.0117 188 344 589.882> 310 82<440.374 595.59>
LayerCount: 2
Fore
SplineSet
259 -12 m 0,0,1
 183 -12 183 -12 150 28 c 128,-1,2
 117 68 117 68 117 156 c 2,3,-1
 117 188 l 1,4,-1
 51 138 l 1,5,-1
 51 227 l 1,6,-1
 117 278 l 1,7,-1
 117 507 l 2,8,9
 117 589 117 589 150.5 634.5 c 128,-1,10
 184 680 184 680 262 680 c 0,11,12
 325 680 325 680 358.5 640 c 128,-1,13
 392 600 392 600 392 538 c 0,14,15
 392 479 392 479 370 431 c 128,-1,16
 348 383 348 383 306 340 c 128,-1,17
 264 297 264 297 202 251 c 1,18,-1
 202 151 l 2,19,20
 202 96 202 96 221.5 78.5 c 128,-1,21
 241 61 241 61 269 61 c 0,22,23
 295 61 295 61 317 72.5 c 128,-1,24
 339 84 339 84 358 100 c 1,25,-1
 395 42 l 1,26,27
 372 21 372 21 336.5 4.5 c 128,-1,28
 301 -12 301 -12 259 -12 c 0,0,1
202 344 m 1,29,30
 258 383 258 383 284 431.5 c 128,-1,31
 310 480 310 480 310 535 c 0,32,33
 310 575 310 575 295.5 592.5 c 128,-1,34
 281 610 281 610 257 610 c 0,35,36
 228 610 228 610 215 590.5 c 128,-1,37
 202 571 202 571 202 518 c 2,38,-1
 202 344 l 1,29,30
EndSplineSet
Validated: 1
EndChar

StartChar: Lslash
Encoding: 304 321 176
Width: 569
GlyphClass: 1
Flags: W
HStem: 0 81<202 561> 485 20G<348.667 382> 649 20G<108 202>
VStem: 108 94<81 270 397 669>
LayerCount: 2
Fore
SplineSet
108 0 m 1,0,-1
 108 270 l 1,1,-1
 18 216 l 1,2,-1
 18 287 l 1,3,-1
 108 340 l 1,4,-1
 108 669 l 1,5,-1
 202 669 l 1,6,-1
 202 397 l 1,7,-1
 382 505 l 1,8,-1
 382 434 l 1,9,-1
 202 326 l 1,10,-1
 202 81 l 1,11,-1
 561 81 l 1,12,-1
 561 0 l 1,13,-1
 108 0 l 1,0,-1
EndSplineSet
Validated: 1
EndChar

StartChar: lslash
Encoding: 305 322 177
Width: 233
GlyphClass: 1
Flags: W
HStem: 0 74<158.257 220> 648 20G<66 150>
VStem: 66 154<25.2817 74 365 394> 66 84<87.4126 273 394 668>
LayerCount: 2
Fore
SplineSet
184 0 m 2,0,1
 136 0 136 0 110.5 10 c 128,-1,2
 85 20 85 20 75.5 46.5 c 128,-1,3
 66 73 66 73 66 124 c 2,4,-1
 66 273 l 1,5,-1
 13 242 l 1,6,-1
 13 312 l 1,7,-1
 66 344 l 1,8,-1
 66 668 l 1,9,-1
 150 668 l 1,10,-1
 150 394 l 1,11,-1
 220 436 l 1,12,-1
 220 365 l 1,13,-1
 150 323 l 1,14,-1
 150 139 l 2,15,16
 150 100 150 100 158 87 c 128,-1,17
 166 74 166 74 202 74 c 2,18,-1
 220 74 l 1,19,-1
 220 0 l 1,20,-1
 184 0 l 2,0,1
EndSplineSet
Validated: 1
EndChar

StartChar: oslash
Encoding: 248 248 178
Width: 548
GlyphClass: 1
Flags: W
HStem: -12 74<199.511 347.349> 430 74<200.65 349.173>
VStem: 36 89<146.356 349.349> 422 90<142.02 349.653>
LayerCount: 2
Fore
SplineSet
274 -12 m 0,0,1
 234 -12 234 -12 194.5 0.5 c 128,-1,2
 155 13 155 13 123 40 c 1,3,-1
 81 -9 l 1,4,-1
 43 24 l 1,5,-1
 87 77 l 1,6,7
 64 108 64 108 50 150 c 128,-1,8
 36 192 36 192 36 246 c 0,9,10
 36 313 36 313 56.5 362 c 128,-1,11
 77 411 77 411 111.5 442.5 c 128,-1,12
 146 474 146 474 188.5 489 c 128,-1,13
 231 504 231 504 274 504 c 0,14,15
 311 504 311 504 347 493.5 c 128,-1,16
 383 483 383 483 414 460 c 1,17,-1
 455 507 l 1,18,-1
 493 474 l 1,19,-1
 452 425 l 1,20,21
 479 394 479 394 495.5 349.5 c 128,-1,22
 512 305 512 305 512 246 c 0,23,24
 512 179 512 179 491.5 130 c 128,-1,25
 471 81 471 81 436.5 49.5 c 128,-1,26
 402 18 402 18 359.5 3 c 128,-1,27
 317 -12 317 -12 274 -12 c 0,0,1
146 146 m 1,28,-1
 362 398 l 1,29,30
 343 415 343 415 320 422.5 c 128,-1,31
 297 430 297 430 274 430 c 0,32,33
 238 430 238 430 204 410.5 c 128,-1,34
 170 391 170 391 147.5 350.5 c 128,-1,35
 125 310 125 310 125 246 c 0,36,37
 125 216 125 216 130.5 191 c 128,-1,38
 136 166 136 166 146 146 c 1,28,-1
274 62 m 0,39,40
 310 62 310 62 344 81.5 c 128,-1,41
 378 101 378 101 400 141.5 c 128,-1,42
 422 182 422 182 422 246 c 0,43,44
 422 281 422 281 415 309 c 128,-1,45
 408 337 408 337 395 359 c 1,46,-1
 176 103 l 1,47,48
 197 82 197 82 222.5 72 c 128,-1,49
 248 62 248 62 274 62 c 0,39,40
EndSplineSet
Validated: 1
EndChar

StartChar: Oslash
Encoding: 216 216 179
Width: 723
GlyphClass: 1
Flags: W
HStem: -12 79<266.78 453.999> 599 81<268.069 456.095> 653 20G<597.175 638.375>
VStem: 48 96<206.11 461.546> 579 96<205.819 459.715>
LayerCount: 2
Fore
SplineSet
361 -12 m 0,0,1
 300 -12 300 -12 248.5 7 c 128,-1,2
 197 26 197 26 158 60 c 1,3,-1
 101 -6 l 1,4,-1
 63 27 l 1,5,-1
 123 97 l 1,6,7
 87 142 87 142 67.5 202.5 c 128,-1,8
 48 263 48 263 48 333 c 0,9,10
 48 434 48 434 86.5 512.5 c 128,-1,11
 125 591 125 591 195 635.5 c 128,-1,12
 265 680 265 680 361 680 c 0,13,14
 421 680 421 680 471.5 662 c 128,-1,15
 522 644 522 644 561 610 c 1,16,-1
 614 673 l 1,17,-1
 653 641 l 1,18,-1
 597 574 l 1,19,20
 635 528 635 528 655 467 c 128,-1,21
 675 406 675 406 675 333 c 0,22,23
 675 233 675 233 636.5 155 c 128,-1,24
 598 77 598 77 528 32.5 c 128,-1,25
 458 -12 458 -12 361 -12 c 0,0,1
184 169 m 1,26,-1
 504 543 l 1,27,28
 446 599 446 599 361 599 c 0,29,30
 301 599 301 599 251.5 568.5 c 128,-1,31
 202 538 202 538 173 479 c 128,-1,32
 144 420 144 420 144 333 c 0,33,34
 144 234 144 234 184 169 c 1,26,-1
361 67 m 0,35,36
 422 67 422 67 471.5 98 c 128,-1,37
 521 129 521 129 550 188.5 c 128,-1,38
 579 248 579 248 579 333 c 0,39,40
 579 386 579 386 567.5 428.5 c 128,-1,41
 556 471 556 471 536 503 c 1,42,-1
 215 127 l 1,43,44
 273 67 273 67 361 67 c 0,35,36
EndSplineSet
Validated: 1
EndChar

StartChar: Thorn
Encoding: 222 222 180
Width: 572
GlyphClass: 1
Flags: W
HStem: 0 21G<74 158> 163 81<158 406.565> 447 81<158 402.931> 648 20G<74 158>
VStem: 74 84<0 163 244 447 528 668> 439 97<276.568 411.864>
LayerCount: 2
Fore
SplineSet
74 0 m 1,0,-1
 74 668 l 1,1,-1
 158 668 l 1,2,-1
 158 528 l 1,3,-1
 285 528 l 2,4,5
 359 528 359 528 415.5 513.5 c 128,-1,6
 472 499 472 499 504 459.5 c 128,-1,7
 536 420 536 420 536 345 c 256,8,9
 536 270 536 270 504 231 c 128,-1,10
 472 192 472 192 415.5 177.5 c 128,-1,11
 359 163 359 163 285 163 c 2,12,-1
 158 163 l 1,13,-1
 158 0 l 1,14,-1
 74 0 l 1,0,-1
158 244 m 1,15,-1
 294 244 l 2,16,17
 335 244 335 244 367.5 250 c 128,-1,18
 400 256 400 256 419.5 277 c 128,-1,19
 439 298 439 298 439 344 c 256,20,21
 439 390 439 390 419.5 411.5 c 128,-1,22
 400 433 400 433 367.5 440 c 128,-1,23
 335 447 335 447 294 447 c 2,24,-1
 158 447 l 1,25,-1
 158 244 l 1,15,-1
EndSplineSet
Validated: 1
EndChar

StartChar: ae
Encoding: 230 230 181
Width: 870
GlyphClass: 1
Flags: W
HStem: -12 74<534.176 699.421> -12 66<155.316 317.539> 225 67<193.944 371 463 755> 436 68<184.112 332.852 534.109 682.508>
VStem: 36 93<79.6725 180.483> 371 92<292 368.04> 378 83<137.639 225> 755 88<292 363.93>
LayerCount: 2
Fore
SplineSet
207 -12 m 0,0,1
 160 -12 160 -12 121 5 c 128,-1,2
 82 22 82 22 59 54 c 128,-1,3
 36 86 36 86 36 131 c 0,4,5
 36 191 36 191 80.5 226 c 128,-1,6
 125 261 125 261 201 276.5 c 128,-1,7
 277 292 277 292 371 292 c 1,8,-1
 371 319 l 2,9,10
 371 342 371 342 363.5 369 c 128,-1,11
 356 396 356 396 332.5 416 c 128,-1,12
 309 436 309 436 259 436 c 0,13,14
 214 436 214 436 185.5 415.5 c 128,-1,15
 157 395 157 395 149 359 c 1,16,-1
 68 383 l 1,17,18
 89 442 89 442 143 473 c 128,-1,19
 197 504 197 504 258 504 c 0,20,21
 388 504 388 504 431 424 c 1,22,23
 464 462 464 462 510.5 483 c 128,-1,24
 557 504 557 504 612 504 c 0,25,26
 672 504 672 504 716.5 480.5 c 128,-1,27
 761 457 761 457 790.5 417.5 c 128,-1,28
 820 378 820 378 833.5 328 c 128,-1,29
 847 278 847 278 843 225 c 1,30,-1
 461 225 l 1,31,32
 464 163 464 163 489 127 c 128,-1,33
 514 91 514 91 549 76.5 c 128,-1,34
 584 62 584 62 615 62 c 0,35,36
 656 62 656 62 684.5 75.5 c 128,-1,37
 713 89 713 89 731 111 c 1,38,-1
 812 87 l 1,39,40
 784 44 784 44 734 16 c 128,-1,41
 684 -12 684 -12 615 -12 c 256,42,43
 546 -12 546 -12 495.5 15 c 128,-1,44
 445 42 445 42 415 88 c 1,45,46
 390 45 390 45 338 16.5 c 128,-1,47
 286 -12 286 -12 207 -12 c 0,0,1
463 292 m 1,48,-1
 755 292 l 1,49,50
 754 327 754 327 736.5 359 c 128,-1,51
 719 391 719 391 687.5 411.5 c 128,-1,52
 656 432 656 432 612 432 c 0,53,54
 575 432 575 432 542 418 c 128,-1,55
 509 404 509 404 488 373 c 128,-1,56
 467 342 467 342 463 292 c 1,48,-1
225 54 m 0,57,58
 305 54 305 54 341.5 95 c 128,-1,59
 378 136 378 136 378 209 c 2,60,-1
 378 225 l 1,61,62
 264 225 264 225 196.5 204.5 c 128,-1,63
 129 184 129 184 129 133 c 0,64,65
 129 98 129 98 154.5 76 c 128,-1,66
 180 54 180 54 225 54 c 0,57,58
EndSplineSet
Validated: 33
EndChar

StartChar: eth
Encoding: 240 240 182
Width: 563
GlyphClass: 1
Flags: W
HStem: -12 71<191.221 351.974> 371 74<191.404 351.669> 602 77<173 302.379>
VStem: 36 90<127.166 302.577> 417 98<147.267 383.414>
LayerCount: 2
Fore
SplineSet
271 -12 m 256,0,1
 200 -12 200 -12 147 19.5 c 128,-1,2
 94 51 94 51 65 103.5 c 128,-1,3
 36 156 36 156 36 218 c 0,4,5
 36 285 36 285 64 336 c 128,-1,6
 92 387 92 387 141 416 c 128,-1,7
 190 445 190 445 252 445 c 0,8,9
 318 445 318 445 361.5 418.5 c 128,-1,10
 405 392 405 392 428 352 c 1,11,12
 424 421 424 421 405 468.5 c 128,-1,13
 386 516 386 516 354 547 c 1,14,-1
 281 474 l 1,15,-1
 245 510 l 1,16,-1
 311 576 l 1,17,18
 284 590 284 590 249.5 596 c 128,-1,19
 215 602 215 602 173 602 c 1,20,-1
 173 679 l 1,21,22
 229 679 229 679 278.5 669 c 128,-1,23
 328 659 328 659 369 634 c 1,24,-1
 415 680 l 1,25,-1
 451 644 l 1,26,-1
 411 604 l 1,27,28
 447 572 447 572 470 524 c 128,-1,29
 493 476 493 476 504 419 c 128,-1,30
 515 362 515 362 515 303 c 0,31,32
 515 243 515 243 503.5 186.5 c 128,-1,33
 492 130 492 130 464.5 85 c 128,-1,34
 437 40 437 40 389.5 14 c 128,-1,35
 342 -12 342 -12 271 -12 c 256,0,1
271 59 m 0,36,37
 338 59 338 59 377.5 102.5 c 128,-1,38
 417 146 417 146 417 215 c 256,39,40
 417 284 417 284 377.5 327.5 c 128,-1,41
 338 371 338 371 271 371 c 0,42,43
 205 371 205 371 165.5 327.5 c 128,-1,44
 126 284 126 284 126 215 c 256,45,46
 126 146 126 146 165.5 102.5 c 128,-1,47
 205 59 205 59 271 59 c 0,36,37
EndSplineSet
Validated: 1
EndChar

StartChar: thorn
Encoding: 254 254 183
Width: 562
GlyphClass: 1
Flags: W
HStem: -161 21G<68 152> -12 72<219.127 364.294> 433 72<219.127 364.294> 649 20G<68 152>
VStem: 68 84<-161 75 132.304 360.648 418 669> 432 94<135.694 356.578>
LayerCount: 2
Fore
SplineSet
68 -161 m 1,0,-1
 68 669 l 1,1,-1
 152 669 l 1,2,-1
 152 418 l 1,3,4
 175 457 175 457 215 481 c 128,-1,5
 255 505 255 505 313 505 c 0,6,7
 370 505 370 505 418.5 474.5 c 128,-1,8
 467 444 467 444 496.5 386.5 c 128,-1,9
 526 329 526 329 526 246 c 0,10,11
 526 165 526 165 496.5 107 c 128,-1,12
 467 49 467 49 418.5 18.5 c 128,-1,13
 370 -12 370 -12 313 -12 c 0,14,15
 255 -12 255 -12 215 12 c 128,-1,16
 175 36 175 36 152 75 c 1,17,-1
 152 -161 l 1,18,-1
 68 -161 l 1,0,-1
291 60 m 256,19,20
 355 60 355 60 393.5 109 c 128,-1,21
 432 158 432 158 432 246 c 0,22,23
 432 335 432 335 393.5 384 c 128,-1,24
 355 433 355 433 291 433 c 256,25,26
 227 433 227 433 188.5 384 c 128,-1,27
 150 335 150 335 150 246 c 0,28,29
 150 158 150 158 188.5 109 c 128,-1,30
 227 60 227 60 291 60 c 256,19,20
EndSplineSet
Validated: 1
EndChar

StartChar: multiply
Encoding: 215 215 184
Width: 524
GlyphClass: 1
Flags: W
LayerCount: 2
Fore
SplineSet
108 39 m 1,0,-1
 51 97 l 1,1,-1
 205 250 l 1,2,-1
 51 404 l 1,3,-1
 108 462 l 1,4,-1
 262 308 l 1,5,-1
 416 462 l 1,6,-1
 473 404 l 1,7,-1
 320 250 l 1,8,-1
 473 97 l 1,9,-1
 416 39 l 1,10,-1
 262 193 l 1,11,-1
 108 39 l 1,0,-1
EndSplineSet
Validated: 1
EndChar

StartChar: divide
Encoding: 247 247 185
Width: 598
GlyphClass: 1
Flags: W
HStem: 14 129<253.596 343.92> 208 81<51 547> 354 129<253.596 343.92>
VStem: 234 129<33.5957 123.405 373.08 463.404>
CounterMasks: 1 e0
LayerCount: 2
Fore
SplineSet
299 354 m 256,0,1
 272 354 272 354 253 372.5 c 128,-1,2
 234 391 234 391 234 418 c 256,3,4
 234 445 234 445 253 464 c 128,-1,5
 272 483 272 483 299 483 c 256,6,7
 326 483 326 483 344.5 464 c 128,-1,8
 363 445 363 445 363 418 c 256,9,10
 363 391 363 391 344.5 372.5 c 128,-1,11
 326 354 326 354 299 354 c 256,0,1
51 208 m 1,12,-1
 51 289 l 1,13,-1
 547 289 l 1,14,-1
 547 208 l 1,15,-1
 51 208 l 1,12,-1
299 14 m 256,16,17
 272 14 272 14 253 33 c 128,-1,18
 234 52 234 52 234 79 c 0,19,20
 234 105 234 105 253 124 c 128,-1,21
 272 143 272 143 299 143 c 256,22,23
 326 143 326 143 344.5 124 c 128,-1,24
 363 105 363 105 363 79 c 0,25,26
 363 52 363 52 344.5 33 c 128,-1,27
 326 14 326 14 299 14 c 256,16,17
EndSplineSet
Validated: 1
EndChar

StartChar: OE
Encoding: 306 338 186
Width: 1048
GlyphClass: 1
Flags: W
HStem: -12 81<268.069 455.231> 0 81<653 1012> 304 81<653 918> 588 81<653 1012> 602 78<268.069 453.643>
VStem: 48 96<206.759 463.946> 579 74<205.147 304 385 465.685>
LayerCount: 2
Fore
SplineSet
361 -12 m 0,0,1
 265 -12 265 -12 195 32.5 c 128,-1,2
 125 77 125 77 86.5 155.5 c 128,-1,3
 48 234 48 234 48 335 c 0,4,5
 48 437 48 437 86.5 514.5 c 128,-1,6
 125 592 125 592 195 636 c 128,-1,7
 265 680 265 680 361 680 c 0,8,9
 429 680 429 680 484 658 c 128,-1,10
 539 636 539 636 579 597 c 1,11,-1
 579 669 l 1,12,-1
 1012 669 l 1,13,-1
 1012 588 l 1,14,-1
 653 588 l 1,15,-1
 653 385 l 1,16,-1
 918 385 l 1,17,-1
 918 304 l 1,18,-1
 653 304 l 1,19,-1
 653 81 l 1,20,-1
 1012 81 l 1,21,-1
 1012 0 l 1,22,-1
 579 0 l 1,23,-1
 579 75 l 1,24,25
 539 34 539 34 484 11 c 128,-1,26
 429 -12 429 -12 361 -12 c 0,0,1
361 69 m 256,27,28
 421 69 421 69 470.5 99 c 128,-1,29
 520 129 520 129 549.5 188 c 128,-1,30
 579 247 579 247 579 334 c 0,31,32
 579 428 579 428 547.5 487 c 128,-1,33
 516 546 516 546 466 574 c 128,-1,34
 416 602 416 602 361 602 c 0,35,36
 301 602 301 602 251.5 571.5 c 128,-1,37
 202 541 202 541 173 481.5 c 128,-1,38
 144 422 144 422 144 335 c 0,39,40
 144 249 144 249 173 189.5 c 128,-1,41
 202 130 202 130 251.5 99.5 c 128,-1,42
 301 69 301 69 361 69 c 256,27,28
EndSplineSet
Validated: 1
EndChar

StartChar: oe
Encoding: 307 339 187
Width: 923
GlyphClass: 1
Flags: W
HStem: -12 74<200.65 347.469 587.1 751.884> 225 67<515 807> 431 74<200.65 347.082 577.607 745.448>
VStem: 36 89<142.651 350.149> 422 92<142.698 225 292 350.611> 807 89<292 363.955>
LayerCount: 2
Fore
SplineSet
274 -12 m 0,0,1
 231 -12 231 -12 188.5 3 c 128,-1,2
 146 18 146 18 111.5 49.5 c 128,-1,3
 77 81 77 81 56.5 130 c 128,-1,4
 36 179 36 179 36 246 c 0,5,6
 36 314 36 314 56.5 362.5 c 128,-1,7
 77 411 77 411 111.5 443 c 128,-1,8
 146 475 146 475 188.5 490 c 128,-1,9
 231 505 231 505 274 505 c 0,10,11
 329 505 329 505 382 480.5 c 128,-1,12
 435 456 435 456 469 404 c 1,13,14
 501 452 501 452 552 478.5 c 128,-1,15
 603 505 603 505 664 505 c 0,16,17
 724 505 724 505 769 481.5 c 128,-1,18
 814 458 814 458 843.5 418 c 128,-1,19
 873 378 873 378 886.5 328 c 128,-1,20
 900 278 900 278 896 225 c 1,21,-1
 514 225 l 1,22,23
 516 163 516 163 541.5 127 c 128,-1,24
 567 91 567 91 602 76.5 c 128,-1,25
 637 62 637 62 667 62 c 0,26,27
 709 62 709 62 737 75.5 c 128,-1,28
 765 89 765 89 783 111 c 1,29,-1
 864 87 l 1,30,31
 836 44 836 44 786.5 16 c 128,-1,32
 737 -12 737 -12 667 -12 c 0,33,34
 599 -12 599 -12 548.5 15 c 128,-1,35
 498 42 498 42 468 88 c 1,36,37
 434 37 434 37 381 12.5 c 128,-1,38
 328 -12 328 -12 274 -12 c 0,0,1
515 292 m 1,39,-1
 807 292 l 1,40,41
 806 328 806 328 789 360 c 128,-1,42
 772 392 772 392 740.5 412.5 c 128,-1,43
 709 433 709 433 664 433 c 0,44,45
 627 433 627 433 594.5 418.5 c 128,-1,46
 562 404 562 404 540.5 373 c 128,-1,47
 519 342 519 342 515 292 c 1,39,-1
274 62 m 256,48,49
 310 62 310 62 344 81.5 c 128,-1,50
 378 101 378 101 400 141.5 c 128,-1,51
 422 182 422 182 422 246 c 0,52,53
 422 311 422 311 400 351.5 c 128,-1,54
 378 392 378 392 344 411.5 c 128,-1,55
 310 431 310 431 274 431 c 256,56,57
 238 431 238 431 204 411.5 c 128,-1,58
 170 392 170 392 147.5 351.5 c 128,-1,59
 125 311 125 311 125 246 c 0,60,61
 125 182 125 182 147.5 141.5 c 128,-1,62
 170 101 170 101 204 81.5 c 128,-1,63
 238 62 238 62 274 62 c 256,48,49
EndSplineSet
Validated: 33
EndChar

StartChar: Eth
Encoding: 208 208 248
Width: 708
GlyphClass: 2
Flags: W
HStem: 0 79<207 439.419> 303 80<18 113 207 347> 589 79<207 439.419>
VStem: 113 94<79 303 383 589> 564 96<199.956 469.077>
AnchorPoint: "Anchor-1" 374 0 basechar 0
AnchorPoint: "Anchor-0" 364 668 basechar 0
LayerCount: 2
Fore
SplineSet
113 0 m 1,0,-1
 113 303 l 1,1,-1
 18 303 l 1,2,-1
 18 383 l 1,3,-1
 113 383 l 1,4,-1
 113 668 l 1,5,-1
 295 668 l 2,6,7
 375 668 375 668 441.5 651.5 c 128,-1,8
 508 635 508 635 557 597 c 128,-1,9
 606 559 606 559 633 494.5 c 128,-1,10
 660 430 660 430 660 335 c 0,11,12
 660 239 660 239 633 174.5 c 128,-1,13
 606 110 606 110 557 71.5 c 128,-1,14
 508 33 508 33 441.5 16.5 c 128,-1,15
 375 0 375 0 295 0 c 2,16,-1
 113 0 l 1,0,-1
207 79 m 1,17,-1
 293 79 l 2,18,19
 345 79 345 79 393.5 87.5 c 128,-1,20
 442 96 442 96 480.5 121.5 c 128,-1,21
 519 147 519 147 541.5 198.5 c 128,-1,22
 564 250 564 250 564 335 c 256,23,24
 564 420 564 420 541.5 470.5 c 128,-1,25
 519 521 519 521 480.5 546.5 c 128,-1,26
 442 572 442 572 393.5 580.5 c 128,-1,27
 345 589 345 589 293 589 c 2,28,-1
 207 589 l 1,29,-1
 207 383 l 1,30,-1
 347 383 l 1,31,-1
 347 303 l 1,32,-1
 207 303 l 1,33,-1
 207 79 l 1,17,-1
EndSplineSet
Validated: 1
EndChar

StartChar: one.tf
Encoding: 316 -1 250
Width: 635
GlyphClass: 1
Flags: W
HStem: 0 77<107 285 368 528> 504 67<107 244.222> 648 20G<305 368>
VStem: 285 83<77 504> 312 56<627.278 668>
LayerCount: 2
Fore
SplineSet
107 0 m 1,0,-1
 107 77 l 1,1,-1
 285 77 l 1,2,-1
 285 504 l 1,3,-1
 107 504 l 1,4,-1
 107 571 l 1,5,6
 155 571 155 571 196 578 c 128,-1,7
 237 585 237 585 267.5 606 c 128,-1,8
 298 627 298 627 312 668 c 1,9,-1
 368 668 l 1,10,-1
 368 77 l 1,11,-1
 528 77 l 1,12,-1
 528 0 l 1,13,-1
 107 0 l 1,0,-1
EndSplineSet
Validated: 1
Substitution2: "'pnum' Proportional Numbers lookup 13 subtable" one
Substitution2: "'aalt' Access All Alternates lookup 0 subtable" one
EndChar

StartChar: eogonek
Encoding: 334 281 268
Width: 535
GlyphClass: 2
Flags: W
HStem: -173 58<331.866 408.313> -12 74<200.865 282> 225 67<127 419> 432 72<191.941 354.518>
VStem: 36 90<136.406 225 292 362.849> 252 70<-106.624 -22.4028> 419 89<292 363.93>
AnchorPoint: "Anchor-2" 363 0 basechar 0
AnchorPoint: "Anchor-1" 268 0 basechar 0
AnchorPoint: "Anchor-0" 279 496 basechar 0
LayerCount: 2
Fore
SplineSet
279 -12 m 2,0,1
 201 -12 201 -12 147 22.5 c 128,-1,2
 93 57 93 57 64.5 115.5 c 128,-1,3
 36 174 36 174 36 247 c 0,4,5
 36 326 36 326 68 383.5 c 128,-1,6
 100 441 100 441 154.5 472.5 c 128,-1,7
 209 504 209 504 277 504 c 0,8,9
 336 504 336 504 381 480.5 c 128,-1,10
 426 457 426 457 455.5 417.5 c 128,-1,11
 485 378 485 378 498.5 328 c 128,-1,12
 512 278 512 278 508 225 c 1,13,-1
 126 225 l 1,14,15
 128 163 128 163 153.5 127 c 128,-1,16
 179 91 179 91 214 76.5 c 128,-1,17
 249 62 249 62 279 62 c 0,18,19
 321 62 321 62 349.5 75.5 c 128,-1,20
 378 89 378 89 395 111 c 1,21,-1
 476 87 l 1,22,23
 445 37 445 37 389 11 c 0,24,25
 357 -7 357 -7 339.5 -27 c 128,-1,26
 322 -47 322 -47 322 -70 c 0,27,28
 322 -94 322 -94 336 -104.5 c 128,-1,29
 350 -115 350 -115 371 -115 c 0,30,31
 380 -115 380 -115 389.5 -113 c 128,-1,32
 399 -111 399 -111 409 -107 c 1,33,-1
 409 -161 l 1,34,35
 375 -173 375 -173 346 -173 c 0,36,37
 301 -173 301 -173 276.5 -147.5 c 128,-1,38
 252 -122 252 -122 252 -85 c 0,39,40
 252 -63 252 -63 260.5 -44.5 c 128,-1,41
 269 -26 269 -26 282 -12 c 1,42,-1
 279 -12 l 2,0,1
127 292 m 1,43,-1
 419 292 l 1,44,45
 419 327 419 327 401.5 359 c 128,-1,46
 384 391 384 391 352.5 411.5 c 128,-1,47
 321 432 321 432 277 432 c 0,48,49
 240 432 240 432 207 418 c 128,-1,50
 174 404 174 404 152.5 373 c 128,-1,51
 131 342 131 342 127 292 c 1,43,-1
EndSplineSet
Validated: 33
EndChar

StartChar: uogonek
Encoding: 356 371 290
Width: 532
GlyphClass: 1
Flags: W
HStem: -173 58<386.236 463.313> -12 74<185.971 319.348> 477 20G<66 150 380 464>
VStem: 66 84<98.6876 497> 307 70<-107.034 -33.9099> 380 84<121.907 497>
LayerCount: 2
Fore
SplineSet
225 -12 m 0,0,1
 167 -12 167 -12 132 12.5 c 128,-1,2
 97 37 97 37 81.5 80.5 c 128,-1,3
 66 124 66 124 66 180 c 2,4,-1
 66 497 l 1,5,-1
 150 497 l 1,6,-1
 150 205 l 2,7,8
 150 167 150 167 157 134 c 128,-1,9
 164 101 164 101 186.5 81.5 c 128,-1,10
 209 62 209 62 254 62 c 0,11,12
 313 62 313 62 346.5 103.5 c 128,-1,13
 380 145 380 145 380 224 c 2,14,-1
 380 497 l 1,15,-1
 464 497 l 1,16,-1
 464 0 l 1,17,18
 413 -19 413 -19 395 -37.5 c 128,-1,19
 377 -56 377 -56 377 -75 c 0,20,21
 377 -95 377 -95 391 -105 c 128,-1,22
 405 -115 405 -115 426 -115 c 0,23,24
 435 -115 435 -115 444.5 -113 c 128,-1,25
 454 -111 454 -111 464 -107 c 1,26,-1
 464 -161 l 1,27,28
 430 -173 430 -173 401 -173 c 0,29,30
 356 -173 356 -173 331.5 -148 c 128,-1,31
 307 -123 307 -123 307 -91 c 0,32,33
 307 -54 307 -54 331.5 -29 c 128,-1,34
 356 -4 356 -4 400 4 c 1,35,-1
 380 72 l 1,36,37
 359 36 359 36 323 12 c 128,-1,38
 287 -12 287 -12 225 -12 c 0,0,1
EndSplineSet
Validated: 1
EndChar

StartChar: Hbar
Encoding: 365 294 299
Width: 706
GlyphClass: 2
Flags: W
HStem: 0 21G<84 178 528 622> 303 81<178 528> 504 77<8 84 178 528 622 698> 648 20G<84 178 528 622>
VStem: 84 94<0 303 384 504 581 668> 528 94<0 303 384 504 581 668>
AnchorPoint: "Anchor-1" 353 0 basechar 0
AnchorPoint: "Anchor-0" 353 668 basechar 0
LayerCount: 2
Fore
SplineSet
84 0 m 1,0,-1
 84 504 l 1,1,-1
 8 504 l 1,2,-1
 8 581 l 1,3,-1
 84 581 l 1,4,-1
 84 668 l 1,5,-1
 178 668 l 1,6,-1
 178 581 l 1,7,-1
 528 581 l 1,8,-1
 528 668 l 1,9,-1
 622 668 l 1,10,-1
 622 581 l 1,11,-1
 698 581 l 1,12,-1
 698 504 l 1,13,-1
 622 504 l 1,14,-1
 622 0 l 1,15,-1
 528 0 l 1,16,-1
 528 303 l 1,17,-1
 178 303 l 1,18,-1
 178 0 l 1,19,-1
 84 0 l 1,0,-1
178 384 m 1,20,-1
 528 384 l 1,21,-1
 528 504 l 1,22,-1
 178 504 l 1,23,-1
 178 384 l 1,20,-1
EndSplineSet
Validated: 1
EndChar

StartChar: hbar
Encoding: 366 295 300
Width: 577
GlyphClass: 1
Flags: W
HStem: 0 21G<103 187 427 511> 432 72<250.066 389.916> 548 67<18 103 187 347> 648 20G<103 187>
VStem: 103 84<0 370.501 421 548 615 668> 427 84<0 393.016>
LayerCount: 2
Fore
SplineSet
103 0 m 1,0,-1
 103 548 l 1,1,-1
 18 548 l 1,2,-1
 18 615 l 1,3,-1
 103 615 l 1,4,-1
 103 668 l 1,5,-1
 187 668 l 1,6,-1
 187 615 l 1,7,-1
 347 615 l 1,8,-1
 347 548 l 1,9,-1
 187 548 l 1,10,-1
 187 421 l 1,11,12
 208 456 208 456 246 480 c 128,-1,13
 284 504 284 504 347 504 c 0,14,15
 437 504 437 504 474 451.5 c 128,-1,16
 511 399 511 399 511 314 c 2,17,-1
 511 0 l 1,18,-1
 427 0 l 1,19,-1
 427 289 l 2,20,21
 427 327 427 327 420 359.5 c 128,-1,22
 413 392 413 392 389.5 412 c 128,-1,23
 366 432 366 432 318 432 c 0,24,25
 257 432 257 432 222 390.5 c 128,-1,26
 187 349 187 349 187 269 c 2,27,-1
 187 0 l 1,28,-1
 103 0 l 1,0,-1
EndSplineSet
Validated: 1
EndChar

StartChar: dcroat
Encoding: 385 273 319
Width: 599
GlyphClass: 1
Flags: W
HStem: -12 72<198.01 344.113> 0 21G<426.133 511> 432 72<196.452 344.113> 548 67<247 410 494 576> 648 20G<410 494>
VStem: 36 94<136.359 356.96> 410 84<132.304 360.343 418 548 615 668>
LayerCount: 2
Fore
SplineSet
249 -12 m 0,0,1
 193 -12 193 -12 144 18.5 c 128,-1,2
 95 49 95 49 65.5 106.5 c 128,-1,3
 36 164 36 164 36 246 c 256,4,5
 36 328 36 328 65.5 385.5 c 128,-1,6
 95 443 95 443 144 473.5 c 128,-1,7
 193 504 193 504 249 504 c 0,8,9
 308 504 308 504 348 480.5 c 128,-1,10
 388 457 388 457 410 418 c 1,11,-1
 410 548 l 1,12,-1
 247 548 l 1,13,-1
 247 615 l 1,14,-1
 410 615 l 1,15,-1
 410 668 l 1,16,-1
 494 668 l 1,17,-1
 494 615 l 1,18,-1
 576 615 l 1,19,-1
 576 548 l 1,20,-1
 494 548 l 1,21,-1
 494 187 l 2,22,23
 494 162 494 162 496 113.5 c 128,-1,24
 498 65 498 65 511 0 c 1,25,-1
 432 0 l 1,26,-1
 410 75 l 1,27,28
 388 35 388 35 348 11.5 c 128,-1,29
 308 -12 308 -12 249 -12 c 0,0,1
271 60 m 256,30,31
 335 60 335 60 373.5 109 c 128,-1,32
 412 158 412 158 412 246 c 0,33,34
 412 335 412 335 373.5 383.5 c 128,-1,35
 335 432 335 432 271 432 c 256,36,37
 207 432 207 432 168.5 383.5 c 128,-1,38
 130 335 130 335 130 246 c 0,39,40
 130 158 130 158 168.5 109 c 128,-1,41
 207 60 207 60 271 60 c 256,30,31
EndSplineSet
Validated: 1
EndChar

StartChar: acutecomb
Encoding: 398 769 332
Width: 0
GlyphClass: 4
Flags: W
HStem: 571 136<88.1163 95.7402>
VStem: 0 162
AnchorPoint: "Anchor-4" 81 707 basemark 0
AnchorPoint: "Anchor-4" 47 496 mark 0
AnchorPoint: "Anchor-0" 47 496 mark 0
LayerCount: 2
Fore
SplineSet
0 571 m 1,0,1
 3 575 3 575 15.5 591.5 c 128,-1,2
 28 608 28 608 44 629 c 128,-1,3
 60 650 60 650 74.5 668.5 c 128,-1,4
 89 687 89 687 96 694 c 0,5,6
 106 707 106 707 124 707 c 0,7,8
 140 707 140 707 151 696.5 c 128,-1,9
 162 686 162 686 162 669 c 0,10,11
 162 662 162 662 159.5 655.5 c 128,-1,12
 157 649 157 649 149 641 c 0,13,14
 142 633 142 633 124 617 c 128,-1,15
 106 601 106 601 89.5 587.5 c 128,-1,16
 73 574 73 574 70 571 c 2,17,-1
 0 571 l 1,0,1
EndSplineSet
Validated: 1
Substitution2: "'case' Case-Sensitive Forms lookup 15 subtable" acutecomb.case
Substitution2: "Single Substitution lookup 7 subtable" acutecomb.case
Substitution2: "Single Substitution lookup 6 subtable" acutecomb.case
Substitution2: "Single Substitution lookup 4 subtable" acutecomb.case
Substitution2: "Single Substitution lookup 3 subtable" acutecomb.case
Substitution2: "'aalt' Access All Alternates lookup 0 subtable" acutecomb.case
EndChar

StartChar: acutecomb.case
Encoding: 399 -1 333
Width: 0
GlyphClass: 4
Flags: W
HStem: 744 120
VStem: 0 172
AnchorPoint: "Anchor-4" 86 864 basemark 0
AnchorPoint: "Anchor-4" 58 668 mark 0
AnchorPoint: "Anchor-0" 58 668 mark 0
LayerCount: 2
Fore
SplineSet
0 744 m 1,0,1
 3 747 3 747 17.5 762 c 128,-1,2
 32 777 32 777 50.5 796 c 128,-1,3
 69 815 69 815 85 831 c 128,-1,4
 101 847 101 847 107 852 c 0,5,6
 121 864 121 864 136 864 c 256,7,8
 151 864 151 864 161.5 853.5 c 128,-1,9
 172 843 172 843 172 828 c 0,10,11
 172 809 172 809 156 796 c 0,12,13
 148 789 148 789 129.5 777 c 128,-1,14
 111 765 111 765 95 755.5 c 128,-1,15
 79 746 79 746 76 744 c 2,16,-1
 0 744 l 1,0,1
EndSplineSet
Validated: 1
EndChar

StartChar: uni0306
Encoding: 400 774 334
Width: 0
GlyphClass: 4
Flags: W
HStem: 569 67<90.7835 202.493>
VStem: 0 294
AnchorPoint: "Anchor-4" 147 689 basemark 0
AnchorPoint: "Anchor-4" 147 496 mark 0
AnchorPoint: "Anchor-0" 147 496 mark 0
LayerCount: 2
Fore
SplineSet
147 569 m 0,0,1
 92 569 92 569 51.5 603.5 c 128,-1,2
 11 638 11 638 0 689 c 1,3,-1
 69 689 l 1,4,5
 78 666 78 666 99 651 c 128,-1,6
 120 636 120 636 147 636 c 0,7,8
 173 636 173 636 194 651 c 128,-1,9
 215 666 215 666 225 689 c 1,10,-1
 294 689 l 1,11,12
 284 638 284 638 242.5 603.5 c 128,-1,13
 201 569 201 569 147 569 c 0,0,1
EndSplineSet
Validated: 1
Substitution2: "'case' Case-Sensitive Forms lookup 15 subtable" uni0306.case
Substitution2: "Single Substitution lookup 7 subtable" uni0306.case
Substitution2: "Single Substitution lookup 6 subtable" uni0306.case
Substitution2: "Single Substitution lookup 4 subtable" uni0306.case
Substitution2: "Single Substitution lookup 3 subtable" uni0306.case
Substitution2: "'aalt' Access All Alternates lookup 0 subtable" uni0306.case
EndChar

StartChar: uni030C
Encoding: 402 780 336
Width: 0
GlyphClass: 4
Flags: W
HStem: 569 120
VStem: 0 323
AnchorPoint: "Anchor-4" 162 689 basemark 0
AnchorPoint: "Anchor-4" 162 496 mark 0
AnchorPoint: "Anchor-0" 162 496 mark 0
LayerCount: 2
Fore
SplineSet
162 569 m 0,0,1
 132 569 132 569 112 588 c 2,2,-1
 0 689 l 1,3,-1
 94 689 l 1,4,-1
 161 628 l 1,5,-1
 229 689 l 1,6,-1
 323 689 l 1,7,-1
 211 588 l 2,8,9
 191 569 191 569 162 569 c 0,0,1
EndSplineSet
Validated: 1
Substitution2: "'case' Case-Sensitive Forms lookup 15 subtable" uni030C.case
Substitution2: "Single Substitution lookup 7 subtable" uni030C.case
Substitution2: "Single Substitution lookup 6 subtable" uni030C.case
Substitution2: "Single Substitution lookup 4 subtable" uni030C.case
Substitution2: "Single Substitution lookup 3 subtable" uni030C.case
Substitution2: "'aalt' Access All Alternates lookup 0 subtable" uni030C.case
EndChar

StartChar: uni030C.alt
Encoding: 403 -1 337
Width: 0
GlyphClass: 1
Flags: W
HStem: 495 183<48.8444 69>
LayerCount: 2
Fore
SplineSet
20 495 m 1,0,1
 21 500 21 500 24 520.5 c 128,-1,2
 27 541 27 541 31 567.5 c 128,-1,3
 35 594 35 594 39 617 c 128,-1,4
 43 640 43 640 46 649 c 0,5,6
 48 657 48 657 56.5 667.5 c 128,-1,7
 65 678 65 678 82 678 c 0,8,9
 98 678 98 678 109 667.5 c 128,-1,10
 120 657 120 657 120 640 c 0,11,12
 120 634 120 634 116.5 625 c 128,-1,13
 113 616 113 616 111 609 c 2,14,-1
 69 495 l 1,15,-1
 20 495 l 1,0,1
EndSplineSet
Validated: 1
EndChar

StartChar: uni0327
Encoding: 405 807 339
Width: 0
GlyphClass: 4
Flags: W
HStem: -181 41<14.5306 110.106> -81 40<86.123 119.202>
VStem: 123 62<-131.512 -85.7319>
AnchorPoint: "Anchor-3" 93 -181 basemark 0
AnchorPoint: "Anchor-3" 89 0 mark 0
AnchorPoint: "Anchor-1" 89 0 mark 0
LayerCount: 2
Fore
SplineSet
88 -181 m 0,0,1
 69 -181 69 -181 47.5 -176 c 128,-1,2
 26 -171 26 -171 0 -161 c 1,3,-1
 14 -126 l 1,4,5
 31 -133 31 -133 45.5 -136.5 c 128,-1,6
 60 -140 60 -140 72 -140 c 0,7,8
 98 -140 98 -140 110.5 -129 c 128,-1,9
 123 -118 123 -118 123 -106 c 0,10,11
 123 -96 123 -96 114.5 -88.5 c 128,-1,12
 106 -81 106 -81 87 -81 c 0,13,14
 80 -81 80 -81 72.5 -82.5 c 128,-1,15
 65 -84 65 -84 56 -86 c 0,16,17
 43 -90 43 -90 35.5 -83 c 128,-1,18
 28 -76 28 -76 28 -67 c 0,19,20
 28 -61 28 -61 31 -57 c 2,21,-1
 82 25 l 1,22,-1
 116 4 l 1,23,-1
 86 -45 l 1,24,25
 94 -43 94 -43 101.5 -42 c 128,-1,26
 109 -41 109 -41 116 -41 c 0,27,28
 151 -41 151 -41 168 -59.5 c 128,-1,29
 185 -78 185 -78 185 -102 c 0,30,31
 185 -130 185 -130 161 -155.5 c 128,-1,32
 137 -181 137 -181 88 -181 c 0,0,1
EndSplineSet
Validated: 1
EndChar

StartChar: uni0302
Encoding: 406 770 340
Width: 0
GlyphClass: 4
Flags: W
HStem: 575 120
VStem: 0 323
AnchorPoint: "Anchor-4" 162 695 basemark 0
AnchorPoint: "Anchor-4" 162 496 mark 0
AnchorPoint: "Anchor-0" 162 496 mark 0
LayerCount: 2
Fore
SplineSet
0 575 m 1,0,-1
 112 676 l 2,1,2
 132 695 132 695 162 695 c 0,3,4
 191 695 191 695 211 676 c 2,5,-1
 323 575 l 1,6,-1
 229 575 l 1,7,-1
 161 636 l 1,8,-1
 94 575 l 1,9,-1
 0 575 l 1,0,-1
EndSplineSet
Validated: 1
Substitution2: "'case' Case-Sensitive Forms lookup 15 subtable" uni0302.case
Substitution2: "Single Substitution lookup 7 subtable" uni0302.case
Substitution2: "Single Substitution lookup 6 subtable" uni0302.case
Substitution2: "Single Substitution lookup 4 subtable" uni0302.case
Substitution2: "Single Substitution lookup 3 subtable" uni0302.case
Substitution2: "'aalt' Access All Alternates lookup 0 subtable" uni0302.case
EndChar

StartChar: uni0302.case
Encoding: 407 -1 341
Width: 0
GlyphClass: 4
Flags: W
HStem: 747 120
VStem: 0 323
AnchorPoint: "Anchor-4" 162 867 basemark 0
AnchorPoint: "Anchor-4" 162 668 mark 0
AnchorPoint: "Anchor-0" 162 668 mark 0
LayerCount: 2
Fore
SplineSet
0 747 m 1,0,-1
 112 848 l 2,1,2
 132 867 132 867 162 867 c 0,3,4
 191 867 191 867 211 848 c 2,5,-1
 323 747 l 1,6,-1
 229 747 l 1,7,-1
 161 808 l 1,8,-1
 94 747 l 1,9,-1
 0 747 l 1,0,-1
EndSplineSet
Validated: 1
EndChar

StartChar: uni0326
Encoding: 408 806 342
Width: 0
GlyphClass: 4
Flags: W
HStem: -250 194
VStem: 94 66<-194.142 -97.567>
AnchorPoint: "Anchor-3" 80 -250 basemark 0
AnchorPoint: "Anchor-3" 90 0 mark 0
AnchorPoint: "Anchor-1" 90 0 mark 0
LayerCount: 2
Fore
SplineSet
40 -250 m 1,0,-1
 0 -216 l 1,1,2
 16 -216 16 -216 38 -211.5 c 128,-1,3
 60 -207 60 -207 77 -192.5 c 128,-1,4
 94 -178 94 -178 94 -147 c 0,5,6
 94 -127 94 -127 83 -109.5 c 128,-1,7
 72 -92 72 -92 44 -82 c 1,8,-1
 104 -56 l 1,9,10
 134 -72 134 -72 147 -95.5 c 128,-1,11
 160 -119 160 -119 160 -143 c 0,12,13
 160 -190 160 -190 126.5 -220 c 128,-1,14
 93 -250 93 -250 40 -250 c 1,0,-1
EndSplineSet
Validated: 1
EndChar

StartChar: uni0308
Encoding: 409 776 343
Width: 0
GlyphClass: 4
Flags: W
HStem: 590 107<16.5015 92.0138 227.986 303.014>
VStem: 0 108<606.501 681.014> 212 107<606.501 681.014>
AnchorPoint: "Anchor-4" 160 697 basemark 0
AnchorPoint: "Anchor-4" 160 496 mark 0
AnchorPoint: "Anchor-0" 160 496 mark 0
LayerCount: 2
Fore
SplineSet
54 590 m 0,0,1
 32 590 32 590 16 606 c 128,-1,2
 0 622 0 622 0 644 c 256,3,4
 0 666 0 666 16 681.5 c 128,-1,5
 32 697 32 697 54 697 c 0,6,7
 77 697 77 697 92.5 681.5 c 128,-1,8
 108 666 108 666 108 644 c 256,9,10
 108 622 108 622 92.5 606 c 128,-1,11
 77 590 77 590 54 590 c 0,0,1
265 590 m 0,12,13
 243 590 243 590 227.5 606 c 128,-1,14
 212 622 212 622 212 644 c 256,15,16
 212 666 212 666 227.5 681.5 c 128,-1,17
 243 697 243 697 265 697 c 0,18,19
 288 697 288 697 303.5 681.5 c 128,-1,20
 319 666 319 666 319 644 c 256,21,22
 319 622 319 622 303.5 606 c 128,-1,23
 288 590 288 590 265 590 c 0,12,13
EndSplineSet
Validated: 1
Substitution2: "'case' Case-Sensitive Forms lookup 15 subtable" uni0308.case
Substitution2: "Single Substitution lookup 7 subtable" uni0308.case
Substitution2: "Single Substitution lookup 6 subtable" uni0308.case
Substitution2: "Single Substitution lookup 4 subtable" uni0308.case
Substitution2: "Single Substitution lookup 3 subtable" uni0308.case
Substitution2: "'aalt' Access All Alternates lookup 0 subtable" uni0308.case
EndChar

StartChar: uni0307
Encoding: 411 775 345
Width: 0
GlyphClass: 4
Flags: W
HStem: 590 108<16.5015 92.0138>
VStem: 0 108<606.501 682.014>
AnchorPoint: "Anchor-4" 54 698 basemark 0
AnchorPoint: "Anchor-4" 54 496 mark 0
AnchorPoint: "Anchor-0" 54 496 mark 0
LayerCount: 2
Fore
SplineSet
54 590 m 0,0,1
 32 590 32 590 16 606 c 128,-1,2
 0 622 0 622 0 644 c 0,3,4
 0 667 0 667 16 682.5 c 128,-1,5
 32 698 32 698 54 698 c 0,6,7
 77 698 77 698 92.5 682.5 c 128,-1,8
 108 667 108 667 108 644 c 0,9,10
 108 622 108 622 92.5 606 c 128,-1,11
 77 590 77 590 54 590 c 0,0,1
EndSplineSet
Validated: 1
Substitution2: "'case' Case-Sensitive Forms lookup 15 subtable" uni0307.case
Substitution2: "Single Substitution lookup 7 subtable" uni0307.case
Substitution2: "Single Substitution lookup 6 subtable" uni0307.case
Substitution2: "Single Substitution lookup 4 subtable" uni0307.case
Substitution2: "Single Substitution lookup 3 subtable" uni0307.case
Substitution2: "'aalt' Access All Alternates lookup 0 subtable" uni0307.case
EndChar

StartChar: Euro
Encoding: 413 8364 347
Width: 660
GlyphClass: 1
Flags: W
HStem: -12 79<297.087 474.664> 240 51<41 98 195 341> 377 51<41 98 195 416> 500 21G<532.5 598.714> 601 79<295.027 470.531>
VStem: 97.5 89<291 377>
LayerCount: 2
Fore
SplineSet
378 -12 m 0,0,1
 266 -12 266 -12 195.5 57 c 128,-1,2
 125 126 125 126 104 240 c 1,3,-1
 13 240 l 1,4,-1
 41 291 l 1,5,-1
 98 291 l 1,6,7
 98 299 98 299 97.5 316.5 c 128,-1,8
 97 334 97 334 97.5 352 c 128,-1,9
 98 370 98 370 98 377 c 1,10,-1
 13 377 l 1,11,-1
 41 428 l 1,12,-1
 104 428 l 1,13,14
 126 544 126 544 200 612 c 128,-1,15
 274 680 274 680 385 680 c 0,16,17
 463 680 463 680 525.5 640.5 c 128,-1,18
 588 601 588 601 621 528 c 1,19,-1
 543 500 l 1,20,21
 522 545 522 545 481.5 573 c 128,-1,22
 441 601 441 601 380 601 c 0,23,24
 314 601 314 601 264 557 c 128,-1,25
 214 513 214 513 195 428 c 1,26,-1
 444 428 l 1,27,-1
 416 377 l 1,28,-1
 187 377 l 1,29,30
 187 370 187 370 186.5 352 c 128,-1,31
 186 334 186 334 186.5 316.5 c 128,-1,32
 187 299 187 299 187 291 c 1,33,-1
 369 291 l 1,34,-1
 341 240 l 1,35,-1
 195 240 l 1,36,37
 215 158 215 158 264.5 112.5 c 128,-1,38
 314 67 314 67 383 67 c 0,39,40
 443 67 443 67 484 94.5 c 128,-1,41
 525 122 525 122 547 167 c 1,42,-1
 624 139 l 1,43,44
 590 65 590 65 525.5 26.5 c 128,-1,45
 461 -12 461 -12 378 -12 c 0,0,1
EndSplineSet
Validated: 33
EndChar

StartChar: uni2074
Encoding: 414 8308 348
Width: 408
GlyphClass: 1
Flags: W
HStem: 489 57<111 223 291 356>
VStem: 223 68<403 489 546 692>
LayerCount: 2
Fore
SplineSet
223 403 m 1,0,-1
 223 489 l 1,1,-1
 38 489 l 1,2,-1
 38 543 l 1,3,-1
 224 779 l 1,4,-1
 291 779 l 1,5,-1
 291 546 l 1,6,-1
 356 546 l 1,7,-1
 356 489 l 1,8,-1
 291 489 l 1,9,-1
 291 403 l 1,10,-1
 223 403 l 1,0,-1
111 546 m 1,11,-1
 223 546 l 1,12,-1
 223 692 l 1,13,-1
 111 546 l 1,11,-1
EndSplineSet
Validated: 1
EndChar

StartChar: gravecomb
Encoding: 415 768 349
Width: 0
GlyphClass: 4
Flags: W
HStem: 571 136
VStem: 0 162
AnchorPoint: "Anchor-4" 81 707 basemark 0
AnchorPoint: "Anchor-4" 108 496 mark 0
AnchorPoint: "Anchor-0" 108 496 mark 0
LayerCount: 2
Fore
SplineSet
92 571 m 1,0,1
 73 587 73 587 52 604.5 c 128,-1,2
 31 622 31 622 17 636 c 0,3,4
 7 647 7 647 3.5 654.5 c 128,-1,5
 0 662 0 662 0 669 c 0,6,7
 0 685 0 685 11 696 c 128,-1,8
 22 707 22 707 38 707 c 0,9,10
 46 707 46 707 54 704 c 128,-1,11
 62 701 62 701 69 692 c 2,12,-1
 162 571 l 1,13,-1
 92 571 l 1,0,1
EndSplineSet
Validated: 1
Substitution2: "'case' Case-Sensitive Forms lookup 15 subtable" gravecomb.case
Substitution2: "Single Substitution lookup 7 subtable" gravecomb.case
Substitution2: "Single Substitution lookup 6 subtable" gravecomb.case
Substitution2: "Single Substitution lookup 4 subtable" gravecomb.case
Substitution2: "Single Substitution lookup 3 subtable" gravecomb.case
Substitution2: "'aalt' Access All Alternates lookup 0 subtable" gravecomb.case
EndChar

StartChar: gravecomb.case
Encoding: 416 -1 350
Width: 0
GlyphClass: 4
Flags: W
HStem: 744 120
VStem: 0 173
AnchorPoint: "Anchor-4" 87 864 basemark 0
AnchorPoint: "Anchor-4" 122 668 mark 0
AnchorPoint: "Anchor-0" 122 668 mark 0
LayerCount: 2
Fore
SplineSet
97 744 m 2,0,1
 94 746 94 746 78 755.5 c 128,-1,2
 62 765 62 765 43.5 777 c 128,-1,3
 25 789 25 789 16 796 c 0,4,5
 0 810 0 810 0 828 c 0,6,7
 0 843 0 843 10.5 853.5 c 128,-1,8
 21 864 21 864 36 864 c 0,9,10
 44 864 44 864 52 861.5 c 128,-1,11
 60 859 60 859 67 851 c 2,12,-1
 173 744 l 1,13,-1
 97 744 l 2,0,1
EndSplineSet
Validated: 1
EndChar

StartChar: uni030B
Encoding: 417 779 351
Width: 0
GlyphClass: 4
Flags: W
HStem: 572 136
VStem: 0 308
AnchorPoint: "Anchor-4" 154 708 basemark 0
AnchorPoint: "Anchor-4" 114 496 mark 0
AnchorPoint: "Anchor-0" 114 496 mark 0
LayerCount: 2
Fore
SplineSet
0 572 m 1,0,-1
 96 695 l 2,1,2
 106 708 106 708 124 708 c 0,3,4
 140 708 140 708 151 697 c 128,-1,5
 162 686 162 686 162 670 c 0,6,7
 162 663 162 663 160 656 c 128,-1,8
 158 649 158 649 151 643 c 2,9,-1
 70 572 l 1,10,-1
 0 572 l 1,0,-1
146 572 m 1,11,-1
 242 695 l 2,12,13
 252 708 252 708 270 708 c 0,14,15
 285 708 285 708 296.5 696.5 c 128,-1,16
 308 685 308 685 308 670 c 0,17,18
 308 663 308 663 306 656 c 128,-1,19
 304 649 304 649 297 643 c 2,20,-1
 216 572 l 1,21,-1
 146 572 l 1,11,-1
EndSplineSet
Validated: 1
Substitution2: "'case' Case-Sensitive Forms lookup 15 subtable" uni030B.case
Substitution2: "Single Substitution lookup 7 subtable" uni030B.case
Substitution2: "Single Substitution lookup 6 subtable" uni030B.case
Substitution2: "Single Substitution lookup 4 subtable" uni030B.case
Substitution2: "Single Substitution lookup 3 subtable" uni030B.case
Substitution2: "'aalt' Access All Alternates lookup 0 subtable" uni030B.case
EndChar

StartChar: dotlessi
Encoding: 419 305 353
Width: 274
GlyphClass: 2
Flags: W
HStem: 0 21G<112 196> 429 67<43 112>
VStem: 112 84<0 429>
AnchorPoint: "Anchor-2" 248 10 basechar 0
AnchorPoint: "Anchor-1" 137 0 basechar 0
AnchorPoint: "Anchor-0" 132 496 basechar 0
LayerCount: 2
Fore
SplineSet
112 0 m 1,0,-1
 112 429 l 1,1,-1
 43 429 l 1,2,-1
 43 496 l 1,3,-1
 196 496 l 1,4,-1
 196 0 l 1,5,-1
 112 0 l 1,0,-1
EndSplineSet
Validated: 1
EndChar

StartChar: uni0304
Encoding: 420 772 354
Width: 0
GlyphClass: 4
Flags: W
HStem: 601 67<0 276>
VStem: 0 276<601 668>
AnchorPoint: "Anchor-4" 138 668 basemark 0
AnchorPoint: "Anchor-4" 138 496 mark 0
AnchorPoint: "Anchor-0" 138 496 mark 0
LayerCount: 2
Fore
SplineSet
0 601 m 1,0,-1
 0 668 l 1,1,-1
 276 668 l 1,2,-1
 276 601 l 1,3,-1
 0 601 l 1,0,-1
EndSplineSet
Validated: 1
Substitution2: "'case' Case-Sensitive Forms lookup 15 subtable" uni0304.case
Substitution2: "Single Substitution lookup 7 subtable" uni0304.case
Substitution2: "Single Substitution lookup 6 subtable" uni0304.case
Substitution2: "Single Substitution lookup 4 subtable" uni0304.case
Substitution2: "Single Substitution lookup 3 subtable" uni0304.case
Substitution2: "'aalt' Access All Alternates lookup 0 subtable" uni0304.case
EndChar

StartChar: uni00B5
Encoding: 181 181 356
Width: 551
GlyphClass: 1
Flags: W
HStem: -162 21G<68 152> -11 72<188.87 325.328> 0 75<473.901 537.765> 476 20G<68 152 383 467>
VStem: 68 84<-162 23.2494 99.3076 496> 383 84<123.423 496>
LayerCount: 2
Fore
SplineSet
68 -162 m 1,0,-1
 68 496 l 1,1,-1
 152 496 l 1,2,-1
 152 198 l 2,3,4
 152 123 152 123 179 92 c 128,-1,5
 206 61 206 61 258 61 c 0,6,7
 309 61 309 61 346 101.5 c 128,-1,8
 383 142 383 142 383 236 c 2,9,-1
 383 496 l 1,10,-1
 467 496 l 1,11,-1
 467 122 l 2,12,13
 467 94 467 94 477 84.5 c 128,-1,14
 487 75 487 75 508 75 c 0,15,16
 519 75 519 75 525.5 77 c 128,-1,17
 532 79 532 79 538 80 c 1,18,-1
 538 7 l 1,19,20
 529 5 529 5 515 2.5 c 128,-1,21
 501 0 501 0 478 0 c 0,22,23
 443 0 443 0 420 20 c 128,-1,24
 397 40 397 40 388 73 c 1,25,26
 367 35 367 35 330 12 c 128,-1,27
 293 -11 293 -11 237 -11 c 0,28,29
 202 -11 202 -11 177.5 -1 c 128,-1,30
 153 9 153 9 137 24 c 1,31,32
 142 0 142 0 147 -26.5 c 128,-1,33
 152 -53 152 -53 152 -79 c 2,34,-1
 152 -162 l 1,35,-1
 68 -162 l 1,0,-1
EndSplineSet
Validated: 1
EndChar

StartChar: uni0328
Encoding: 422 808 357
Width: 0
GlyphClass: 4
Flags: W
HStem: -173 58<79.2358 156.313> -20 20G<61.5 157>
VStem: 0 70<-107.034 -34.266>
AnchorPoint: "Anchor-2" 157 0 mark 0
LayerCount: 2
Fore
SplineSet
94 -173 m 0,0,1
 49 -173 49 -173 24.5 -148 c 128,-1,2
 0 -123 0 -123 0 -91 c 0,3,4
 0 -60 0 -60 21.5 -34.5 c 128,-1,5
 43 -9 43 -9 80 0 c 1,6,-1
 157 0 l 1,7,8
 106 -19 106 -19 88 -37.5 c 128,-1,9
 70 -56 70 -56 70 -75 c 0,10,11
 70 -95 70 -95 84 -105 c 128,-1,12
 98 -115 98 -115 119 -115 c 0,13,14
 128 -115 128 -115 137.5 -113 c 128,-1,15
 147 -111 147 -111 157 -107 c 1,16,-1
 157 -161 l 1,17,18
 123 -173 123 -173 94 -173 c 0,0,1
EndSplineSet
Validated: 1
Substitution2: "'case' Case-Sensitive Forms lookup 15 subtable" uni0328.case
Substitution2: "Single Substitution lookup 7 subtable" uni0328.case
Substitution2: "Single Substitution lookup 6 subtable" uni0328.case
Substitution2: "Single Substitution lookup 4 subtable" uni0328.case
Substitution2: "Single Substitution lookup 3 subtable" uni0328.case
Substitution2: "'aalt' Access All Alternates lookup 0 subtable" uni0328.case
EndChar

StartChar: uni0328.case
Encoding: 423 -1 358
Width: 0
GlyphClass: 4
Flags: W
HStem: -173 58<79.2358 156.313>
VStem: 0 70<-107.034 -32.2612>
AnchorPoint: "Anchor-2" 157 0 mark 0
LayerCount: 2
Fore
SplineSet
94 -173 m 0,0,1
 49 -173 49 -173 24.5 -148 c 128,-1,2
 0 -123 0 -123 0 -91 c 0,3,4
 0 -55 0 -55 19 -32.5 c 128,-1,5
 38 -10 38 -10 57 0 c 1,6,-1
 157 0 l 1,7,8
 115 -15 115 -15 92.5 -31.5 c 128,-1,9
 70 -48 70 -48 70 -74 c 0,10,11
 70 -95 70 -95 84 -105 c 128,-1,12
 98 -115 98 -115 119 -115 c 0,13,14
 128 -115 128 -115 137.5 -113 c 128,-1,15
 147 -111 147 -111 157 -107 c 1,16,-1
 157 -161 l 1,17,18
 123 -173 123 -173 94 -173 c 0,0,1
EndSplineSet
Validated: 1
EndChar

StartChar: uni030A
Encoding: 424 778 359
Width: 0
GlyphClass: 4
Flags: W
HStem: 559 58<69.3475 148.728> 719 58<69.3475 148.728>
VStem: 0 57<629.61 706.718> 161 57<629.673 706.327>
AnchorPoint: "Anchor-4" 109 777 basemark 0
AnchorPoint: "Anchor-4" 109 496 mark 0
AnchorPoint: "Anchor-0" 109 496 mark 0
LayerCount: 2
Fore
SplineSet
111 559 m 0,0,1
 80 559 80 559 55 574 c 128,-1,2
 30 589 30 589 15 614 c 128,-1,3
 0 639 0 639 0 668 c 0,4,5
 0 698 0 698 15 722.5 c 128,-1,6
 30 747 30 747 55 762 c 128,-1,7
 80 777 80 777 111 777 c 0,8,9
 157 777 157 777 187.5 744.5 c 128,-1,10
 218 712 218 712 218 668 c 256,11,12
 218 624 218 624 187.5 591.5 c 128,-1,13
 157 559 157 559 111 559 c 0,0,1
109 617 m 256,14,15
 131 617 131 617 146 632 c 128,-1,16
 161 647 161 647 161 668 c 256,17,18
 161 689 161 689 146 704 c 128,-1,19
 131 719 131 719 109 719 c 256,20,21
 87 719 87 719 72 704 c 128,-1,22
 57 689 57 689 57 668 c 256,23,24
 57 647 57 647 72 632 c 128,-1,25
 87 617 87 617 109 617 c 256,14,15
EndSplineSet
Validated: 1
Substitution2: "'case' Case-Sensitive Forms lookup 15 subtable" uni030A.case
Substitution2: "Single Substitution lookup 7 subtable" uni030A.case
Substitution2: "Single Substitution lookup 6 subtable" uni030A.case
Substitution2: "Single Substitution lookup 4 subtable" uni030A.case
Substitution2: "Single Substitution lookup 3 subtable" uni030A.case
Substitution2: "'aalt' Access All Alternates lookup 0 subtable" uni030A.case
EndChar

StartChar: uni00AD
Encoding: 173 173 362
Width: 344
GlyphClass: 1
Flags: W
HStem: 208 81<36 308>
VStem: 36 272<208 289>
LayerCount: 2
Fore
SplineSet
36 208 m 1,0,-1
 36 289 l 1,1,-1
 308 289 l 1,2,-1
 308 208 l 1,3,-1
 36 208 l 1,0,-1
EndSplineSet
Validated: 1
EndChar

StartChar: tildecomb
Encoding: 429 771 365
Width: 0
GlyphClass: 4
Flags: W
HStem: 575 63<173.562 268.285> 618 63<70.6853 163.92>
VStem: 0 65<577 612.883>
AnchorPoint: "Anchor-4" 165 681 basemark 0
AnchorPoint: "Anchor-4" 165 496 mark 0
AnchorPoint: "Anchor-0" 165 496 mark 0
LayerCount: 2
Fore
SplineSet
232 575 m 0,0,1
 216 575 216 575 200 580.5 c 128,-1,2
 184 586 184 586 164 596 c 0,3,4
 149 604 149 604 135.5 611 c 128,-1,5
 122 618 122 618 107 618 c 0,6,7
 70 618 70 618 65 577 c 1,8,-1
 0 577 l 1,9,10
 9 630 9 630 37.5 655.5 c 128,-1,11
 66 681 66 681 106 681 c 0,12,13
 134 681 134 681 154 670.5 c 128,-1,14
 174 660 174 660 191.5 649 c 128,-1,15
 209 638 209 638 230 638 c 0,16,17
 245 638 245 638 253.5 644 c 128,-1,18
 262 650 262 650 269 661 c 0,19,20
 275 672 275 672 283 676 c 128,-1,21
 291 680 291 680 298 680 c 0,22,23
 312 680 312 680 320.5 670.5 c 128,-1,24
 329 661 329 661 329 649 c 0,25,26
 329 634 329 634 316 617 c 128,-1,27
 303 600 303 600 281 587.5 c 128,-1,28
 259 575 259 575 232 575 c 0,0,1
EndSplineSet
Validated: 1
Substitution2: "'case' Case-Sensitive Forms lookup 15 subtable" tildecomb.case
Substitution2: "Single Substitution lookup 7 subtable" tildecomb.case
Substitution2: "Single Substitution lookup 6 subtable" tildecomb.case
Substitution2: "Single Substitution lookup 4 subtable" tildecomb.case
Substitution2: "Single Substitution lookup 3 subtable" tildecomb.case
Substitution2: "'aalt' Access All Alternates lookup 0 subtable" tildecomb.case
EndChar

StartChar: zero.alt1
Encoding: 431 -1 367
Width: 644
Flags: W
HStem: -12 74<240.233 404.031> 606 74<239.969 404.243>
VStem: 58 91<191.274 491.112> 495 91<178.169 483.765>
LayerCount: 2
Fore
SplineSet
322 -12 m 256,0,1
 193 -12 193 -12 125.5 77.5 c 128,-1,2
 58 167 58 167 58 335 c 0,3,4
 58 502 58 502 125.5 591 c 128,-1,5
 193 680 193 680 322 680 c 256,6,7
 451 680 451 680 518.5 591 c 128,-1,8
 586 502 586 502 586 335 c 0,9,10
 586 167 586 167 518.5 77.5 c 128,-1,11
 451 -12 451 -12 322 -12 c 256,0,1
166 190 m 1,12,13
 166 190 166 190 429 566 c 1,14,15
 387 606 387 606 322 606 c 0,16,17
 234 606 234 606 191.5 536 c 128,-1,18
 149 466 149 466 149 335 c 0,19,20
 149 250 149 250 166 190 c 1,12,13
322 62 m 0,21,22
 410 62 410 62 452.5 133 c 128,-1,23
 495 204 495 204 495 335 c 0,24,25
 495 379 495 379 490 417 c 128,-1,26
 485 455 485 455 475 486 c 1,27,28
 475 486 475 486 211 107 c 1,29,30
 253 62 253 62 322 62 c 0,21,22
EndSplineSet
Validated: 1
Substitution2: "'aalt' Access All Alternates lookup 0 subtable" zero
Substitution2: "'tnum' Tabular Numbers lookup 14 subtable" zero
Substitution2: "'zero' Slashed Zero lookup 0-1" zero
EndChar

StartChar: copyleft
Encoding: 432 127279 368
Width: 794
Flags: W
HStem: -12 62<287.396 506.604> 150 59<329.657 454.658> 473 58<335.702 455.485> 618 62<287.396 506.604>
VStem: 51 62<224.396 443.604> 493 76<249.579 432.726> 681 62<224.396 443.604>
LayerCount: 2
Fore
SplineSet
397 -12 m 256,0,1
 325 -12 325 -12 262.5 15 c 128,-1,2
 200 42 200 42 152.5 89.5 c 128,-1,3
 105 137 105 137 78 199.5 c 128,-1,4
 51 262 51 262 51 334 c 256,5,6
 51 406 51 406 78 468.5 c 128,-1,7
 105 531 105 531 152.5 578.5 c 128,-1,8
 200 626 200 626 262.5 653 c 128,-1,9
 325 680 325 680 397 680 c 256,10,11
 469 680 469 680 531.5 653 c 128,-1,12
 594 626 594 626 641.5 578.5 c 128,-1,13
 689 531 689 531 716 468.5 c 128,-1,14
 743 406 743 406 743 334 c 256,15,16
 743 262 743 262 716 199.5 c 128,-1,17
 689 137 689 137 641.5 89.5 c 128,-1,18
 594 42 594 42 531.5 15 c 128,-1,19
 469 -12 469 -12 397 -12 c 256,0,1
397 50 m 256,20,21
 456 50 456 50 507.5 72 c 128,-1,22
 559 94 559 94 598 133 c 128,-1,23
 637 172 637 172 659 223.5 c 128,-1,24
 681 275 681 275 681 334 c 256,25,26
 681 393 681 393 659 444.5 c 128,-1,27
 637 496 637 496 598 535 c 128,-1,28
 559 574 559 574 507.5 596 c 128,-1,29
 456 618 456 618 397 618 c 256,30,31
 338 618 338 618 286.5 596 c 128,-1,32
 235 574 235 574 196 535 c 128,-1,33
 157 496 157 496 135 444.5 c 128,-1,34
 113 393 113 393 113 334 c 256,35,36
 113 275 113 275 135 223.5 c 128,-1,37
 157 172 157 172 196 133 c 128,-1,38
 235 94 235 94 286.5 72 c 128,-1,39
 338 50 338 50 397 50 c 256,20,21
395 150 m 0,40,41
 339 150 339 150 302 173 c 128,-1,42
 265 196 265 196 246 230 c 1,43,44
 246 230 246 230 312 254 c 1,45,46
 325 229 325 229 347.5 219 c 128,-1,47
 370 209 370 209 395 209 c 0,48,49
 438 209 438 209 465.5 242 c 128,-1,50
 493 275 493 275 493 342 c 256,51,52
 493 409 493 409 465.5 441 c 128,-1,53
 438 473 438 473 395 473 c 0,54,55
 341 473 341 473 315 424 c 1,56,57
 315 424 315 424 248 449 c 1,58,59
 267 485 267 485 303 508 c 128,-1,60
 339 531 339 531 393 531 c 0,61,62
 474 531 474 531 521.5 481 c 128,-1,63
 569 431 569 431 569 342 c 256,64,65
 569 253 569 253 524 201.5 c 128,-1,66
 479 150 479 150 395 150 c 0,40,41
EndSplineSet
Validated: 1
EndChar

StartChar: f_i
Encoding: 433 64257 369
Width: 523
Flags: W
HStem: 0 21G<97 181 361 445> 429 67<13 97 181 361> 590 125<360.08 446.92> 635 71<190.802 284>
VStem: 97 84<0 429 496 621.588> 341 125<609.08 696.436> 361 84<0 429>
LayerCount: 2
Fore
SplineSet
361 0 m 1,0,-1
 361 429 l 1,1,-1
 181 429 l 1,2,-1
 181 0 l 1,3,-1
 97 0 l 1,4,-1
 97 429 l 1,5,-1
 13 429 l 1,6,-1
 13 496 l 1,7,-1
 97 496 l 1,8,-1
 97 570 l 2,9,10
 97 621 97 621 107 651 c 128,-1,11
 117 681 117 681 146 693.5 c 128,-1,12
 175 706 175 706 230 706 c 2,13,-1
 284 706 l 1,14,-1
 284 635 l 1,15,-1
 232 635 l 2,16,17
 200 635 200 635 190.5 622 c 128,-1,18
 181 609 181 609 181 571 c 2,19,-1
 181 496 l 1,20,-1
 445 496 l 1,21,-1
 445 0 l 1,22,-1
 361 0 l 1,0,-1
403 590 m 0,23,24
 378 590 378 590 359.5 608.5 c 128,-1,25
 341 627 341 627 341 653 c 128,-1,26
 341 679 341 679 359.5 697 c 128,-1,27
 378 715 378 715 403 715 c 0,28,29
 429 715 429 715 447.5 697 c 128,-1,30
 466 679 466 679 466 653 c 128,-1,31
 466 627 466 627 447.5 608.5 c 128,-1,32
 429 590 429 590 403 590 c 0,23,24
EndSplineSet
Validated: 1
LCarets2: 1 286
Ligature2: "'liga' Standard Ligatures lookup 0-1" f i
EndChar

StartChar: f_f_i
Encoding: 435 64259 370
Width: 787
Flags: W
HStem: 0 21G<97 181 361 445 625 709> 429 67<13 97 181 361 445 625> 590 125<624.08 710.92> 635 71<190.802 284 454.802 548>
VStem: 97 84<0 429 496 621.588> 361 84<0 429 496 621.588> 605 125<609.08 696.436> 625 84<0 429>
LayerCount: 2
Fore
SplineSet
625 0 m 1,0,-1
 625 429 l 1,1,-1
 445 429 l 1,2,-1
 445 0 l 1,3,-1
 361 0 l 1,4,-1
 361 429 l 1,5,-1
 181 429 l 1,6,-1
 181 0 l 1,7,-1
 97 0 l 1,8,-1
 97 429 l 1,9,-1
 13 429 l 1,10,-1
 13 496 l 1,11,-1
 97 496 l 1,12,-1
 97 570 l 2,13,14
 97 621 97 621 107 651 c 128,-1,15
 117 681 117 681 146 693.5 c 128,-1,16
 175 706 175 706 230 706 c 2,17,-1
 284 706 l 1,18,-1
 284 635 l 1,19,-1
 232 635 l 2,20,21
 200 635 200 635 190.5 622 c 128,-1,22
 181 609 181 609 181 571 c 2,23,-1
 181 496 l 1,24,-1
 361 496 l 1,25,-1
 361 570 l 2,26,27
 361 621 361 621 371 651 c 128,-1,28
 381 681 381 681 410 693.5 c 128,-1,29
 439 706 439 706 494 706 c 2,30,-1
 548 706 l 1,31,-1
 548 635 l 1,32,-1
 496 635 l 2,33,34
 464 635 464 635 454.5 622 c 128,-1,35
 445 609 445 609 445 571 c 2,36,-1
 445 496 l 1,37,-1
 709 496 l 1,38,-1
 709 0 l 1,39,-1
 625 0 l 1,0,-1
667 590 m 0,40,41
 642 590 642 590 623.5 608.5 c 128,-1,42
 605 627 605 627 605 653 c 128,-1,43
 605 679 605 679 623.5 697 c 128,-1,44
 642 715 642 715 667 715 c 0,45,46
 693 715 693 715 711.5 697 c 128,-1,47
 730 679 730 679 730 653 c 128,-1,48
 730 627 730 627 711.5 608.5 c 128,-1,49
 693 590 693 590 667 590 c 0,40,41
EndSplineSet
Validated: 1
LCarets2: 2 298 650
Ligature2: "'liga' Standard Ligatures lookup 0-1" f f i
EndChar

StartChar: f_l
Encoding: 436 64258 371
Width: 528
Flags: W
HStem: 0 74<453.257 515> 429 67<13 97 181 361> 635 71<190.802 284> 647 20G<361 445>
VStem: 97 84<0 429 496 621.588> 361 84<87.4124 429 496 667>
LayerCount: 2
Fore
SplineSet
478 0 m 2,0,1
 431 0 431 0 405.5 9.5 c 128,-1,2
 380 19 380 19 370.5 46 c 128,-1,3
 361 73 361 73 361 124 c 2,4,-1
 361 429 l 1,5,-1
 181 429 l 1,6,-1
 181 0 l 1,7,-1
 97 0 l 1,8,-1
 97 429 l 1,9,-1
 13 429 l 1,10,-1
 13 496 l 1,11,-1
 97 496 l 1,12,-1
 97 570 l 2,13,14
 97 621 97 621 107 651 c 128,-1,15
 117 681 117 681 146 693.5 c 128,-1,16
 175 706 175 706 230 706 c 2,17,-1
 284 706 l 1,18,-1
 284 635 l 1,19,-1
 232 635 l 2,20,21
 200 635 200 635 190.5 622 c 128,-1,22
 181 609 181 609 181 571 c 2,23,-1
 181 496 l 1,24,-1
 361 496 l 1,25,-1
 361 667 l 1,26,-1
 445 667 l 1,27,-1
 445 138 l 2,28,29
 445 100 445 100 453 87 c 128,-1,30
 461 74 461 74 496 74 c 2,31,-1
 515 74 l 1,32,-1
 515 0 l 1,33,-1
 478 0 l 2,0,1
EndSplineSet
Validated: 1
LCarets2: 1 286
Ligature2: "'liga' Standard Ligatures lookup 0-1" f l
EndChar

StartChar: f_f_l
Encoding: 437 64260 372
Width: 792
Flags: W
HStem: 0 74<717.257 779> 429 67<13 97 181 361 445 625> 635 71<190.802 284 454.802 548> 647 20G<625 709>
VStem: 97 84<0 429 496 621.588> 361 84<0 429 496 621.588> 625 84<87.4124 429 496 667>
CounterMasks: 1 0e
LayerCount: 2
Fore
SplineSet
361 0 m 1,0,-1
 361 429 l 1,1,-1
 181 429 l 1,2,-1
 181 0 l 1,3,-1
 97 0 l 1,4,-1
 97 429 l 1,5,-1
 13 429 l 1,6,-1
 13 496 l 1,7,-1
 97 496 l 1,8,-1
 97 570 l 2,9,10
 97 621 97 621 107 651 c 128,-1,11
 117 681 117 681 146 693.5 c 128,-1,12
 175 706 175 706 230 706 c 2,13,-1
 284 706 l 1,14,-1
 284 635 l 1,15,-1
 232 635 l 2,16,17
 200 635 200 635 190.5 622 c 128,-1,18
 181 609 181 609 181 571 c 2,19,-1
 181 496 l 1,20,-1
 361 496 l 1,21,-1
 361 570 l 2,22,23
 361 621 361 621 371 651 c 128,-1,24
 381 681 381 681 410 693.5 c 128,-1,25
 439 706 439 706 494 706 c 2,26,-1
 548 706 l 1,27,-1
 548 635 l 1,28,-1
 496 635 l 2,29,30
 464 635 464 635 454.5 622 c 128,-1,31
 445 609 445 609 445 571 c 2,32,-1
 445 496 l 1,33,-1
 625 496 l 1,34,-1
 625 667 l 1,35,-1
 709 667 l 1,36,-1
 709 138 l 2,37,38
 709 100 709 100 717 87 c 128,-1,39
 725 74 725 74 760 74 c 2,40,-1
 779 74 l 1,41,-1
 779 0 l 1,42,-1
 742 0 l 2,43,44
 695 0 695 0 669.5 9.5 c 128,-1,45
 644 19 644 19 634.5 46 c 128,-1,46
 625 73 625 73 625 124 c 2,47,-1
 625 429 l 1,48,-1
 445 429 l 1,49,-1
 445 0 l 1,50,-1
 361 0 l 1,0,-1
EndSplineSet
Validated: 1
LCarets2: 2 288 552
Ligature2: "'liga' Standard Ligatures lookup 0-1" f f l
EndChar

